<svg width="100" height="100" viewBox="0 0 100 100" fill="none" xmlns="http://www.w3.org/2000/svg">
<path d="M30 18.5C29.7 18.5 29.5 18.7 29.5 19V20.6992L29 21C28.1 21.6 27.5 22.5992 27.5 23.6992V27H27C26.7 27 26.5 27.2 26.5 27.5V30.5C26.5 30.8 26.7 31 27 31H27.5V34.5H26C25.7 34.5 25.5 34.7 25.5 35V39C25.5 39.3 25.7 39.5 26 39.5H27.5V46.5H25C24.7 46.5 24.5 46.7 24.5 47V59C24.5 59.3 24.7 59.5 25 59.5H26.5V81.5H25C24.7 81.5 24.5 81.7 24.5 82C24.5 82.3 24.7 82.5 25 82.5H27H33H39H61H67H73H75C75.3 82.5 75.5 82.3 75.5 82C75.5 81.7 75.3 81.5 75 81.5H73.5V59.5H75C75.3 59.5 75.5 59.3 75.5 59V47C75.5 46.7 75.3 46.5 75 46.5H72.5V39.5H74C74.3 39.5 74.5 39.3 74.5 39V35C74.5 34.7 74.3 34.5 74 34.5H72.5V31H73C73.3 31 73.5 30.8 73.5 30.5V27.5C73.5 27.2 73.3 27 73 27H72.5V23.6992C72.5 22.5992 72 21.6 71 21L70.5 20.6992V19C70.5 18.7 70.3 18.5 70 18.5C69.7 18.5 69.5 18.7 69.5 19V20.6992L69 21C68.1 21.6 67.5 22.5992 67.5 23.6992V27H67C66.7 27 66.5 27.2 66.5 27.5V30.5C66.5 30.8 66.7 31 67 31H67.5V34.5H66C65.7 34.5 65.5 34.7 65.5 35V39C65.5 39.3 65.7 39.5 66 39.5H67.5V40.5H32.5V39.5H34C34.3 39.5 34.5 39.3 34.5 39V35C34.5 34.7 34.3 34.5 34 34.5H32.5V31H33C33.3 31 33.5 30.8 33.5 30.5V27.5C33.5 27.2 33.3 27 33 27H32.5V23.6992C32.5 22.5992 32 21.6 31 21L30.5 20.6992V19C30.5 18.7 30.3 18.5 30 18.5ZM30 21.5996L30.5 21.9004C31.1 22.3004 31.4 22.9 31.5 23.5H28.5C28.6 22.8 28.9 22.2004 29.5 21.9004L30 21.5996ZM70 21.5996L70.5 21.9004C71.1 22.3004 71.4 22.9 71.5 23.5H68.5C68.6 22.8 68.9 22.2004 69.5 21.9004L70 21.5996ZM28.5 24.5H31.5V27H30.5V26C30.5 25.7 30.3 25.5 30 25.5C29.7 25.5 29.5 25.7 29.5 26V27H28.5V24.5ZM68.5 24.5H71.5V27H70.5V26C70.5 25.7 70.3 25.5 70 25.5C69.7 25.5 69.5 25.7 69.5 26V27H68.5V24.5ZM27.5 28H32.5V30H32H31.5V29.5C31.5 29.2 31.3 29 31 29C30.7 29 30.5 29.2 30.5 29.5V30H29.5V29.5C29.5 29.2 29.3 29 29 29C28.7 29 28.5 29.2 28.5 29.5V30H28H27.5V28ZM67.5 28H72.5V30H72H71.5V29.5C71.5 29.2 71.3 29 71 29C70.7 29 70.5 29.2 70.5 29.5V30H69.5V29.5C69.5 29.2 69.3 29 69 29C68.7 29 68.5 29.2 68.5 29.5V30H68H67.5V28ZM28.5 31H31.5V34.5H28.5V31ZM68.5 31H71.5V34.5H68.5V31ZM26.5 35.5H28H32H33.5V38.5H32.5V37C32.5 36.7 32.3 36.5 32 36.5C31.7 36.5 31.5 36.7 31.5 37V38.5H30.5V38V37C30.5 36.7 30.3 36.5 30 36.5C29.7 36.5 29.5 36.7 29.5 37V38V38.5H28.5V37C28.5 36.7 28.3 36.5 28 36.5C27.7 36.5 27.5 36.7 27.5 37V38.5H26.5V35.5ZM66.5 35.5H68H72H73.5V38.5H72.5V37C72.5 36.7 72.3 36.5 72 36.5C71.7 36.5 71.5 36.7 71.5 37V38.5H70.5V37C70.5 36.7 70.3 36.5 70 36.5C69.7 36.5 69.5 36.7 69.5 37V38.5H68.5V37C68.5 36.7 68.3 36.5 68 36.5C67.7 36.5 67.5 36.7 67.5 37V38.5H66.5V35.5ZM28.5 39.5H31.5V41V43V46.5H28.5V39.5ZM68.5 39.5H71.5V46.5H68.5V39.5ZM32.5 41.5H67.5V42.5H32.5V41.5ZM32.5 43.5H67.5V46.5H65.5V46C65.5 45.2 64.8 44.5 64 44.5C63.2 44.5 62.5 45.2 62.5 46V46.5H61.5V46C61.5 45.2 60.8 44.5 60 44.5C59.2 44.5 58.5 45.2 58.5 46V46.5H57.5V46C57.5 45.2 56.8 44.5 56 44.5C55.2 44.5 54.5 45.2 54.5 46V46.5H53.5V46C53.5 45.2 52.8 44.5 52 44.5C51.2 44.5 50.5 45.2 50.5 46V46.5H49.5V46C49.5 45.2 48.8 44.5 48 44.5C47.2 44.5 46.5 45.2 46.5 46V46.5H45.5V46C45.5 45.2 44.8 44.5 44 44.5C43.2 44.5 42.5 45.2 42.5 46V46.5H41.5V46C41.5 45.2 40.8 44.5 40 44.5C39.2 44.5 38.5 45.2 38.5 46V46.5H37.5V46C37.5 45.2 36.8 44.5 36 44.5C35.2 44.5 34.5 45.2 34.5 46V46.5H32.5V43.5ZM36 45.5C36.3 45.5 36.5 45.7 36.5 46V46.5H35.5V46C35.5 45.7 35.7 45.5 36 45.5ZM40 45.5C40.3 45.5 40.5 45.7 40.5 46V46.5H39.5V46C39.5 45.7 39.7 45.5 40 45.5ZM44 45.5C44.3 45.5 44.5 45.7 44.5 46V46.5H43.5V46C43.5 45.7 43.7 45.5 44 45.5ZM48 45.5C48.3 45.5 48.5 45.7 48.5 46V46.5H47.5V46C47.5 45.7 47.7 45.5 48 45.5ZM52 45.5C52.3 45.5 52.5 45.7 52.5 46V46.5H51.5V46C51.5 45.7 51.7 45.5 52 45.5ZM56 45.5C56.3 45.5 56.5 45.7 56.5 46V46.5H55.5V46C55.5 45.7 55.7 45.5 56 45.5ZM60 45.5C60.3 45.5 60.5 45.7 60.5 46V46.5H59.5V46C59.5 45.7 59.7 45.5 60 45.5ZM64 45.5C64.3 45.5 64.5 45.7 64.5 46V46.5H63.5V46C63.5 45.7 63.7 45.5 64 45.5ZM25.5 47.5H28H32H34.5V58.5H33H27H25.5V47.5ZM35.5 47.5H36.5V48C36.5 48.3 36.7 48.5 37 48.5C37.3 48.5 37.5 48.3 37.5 48V47.5H38.5V48C38.5 48.3 38.7 48.5 39 48.5C39.3 48.5 39.5 48.3 39.5 48V47.5H40.5V48C40.5 48.3 40.7 48.5 41 48.5C41.3 48.5 41.5 48.3 41.5 48V47.5H42.5V48C42.5 48.3 42.7 48.5 43 48.5C43.3 48.5 43.5 48.3 43.5 48V47.5H44.5V48C44.5 48.3 44.7 48.5 45 48.5C45.3 48.5 45.5 48.3 45.5 48V47.5H46.5V48C46.5 48.3 46.7 48.5 47 48.5C47.3 48.5 47.5 48.3 47.5 48V47.5H48.5V48C48.5 48.3 48.7 48.5 49 48.5C49.3 48.5 49.5 48.3 49.5 48V47.5H50.5V48C50.5 48.3 50.7 48.5 51 48.5C51.3 48.5 51.5 48.3 51.5 48V47.5H52.5V48C52.5 48.3 52.7 48.5 53 48.5C53.3 48.5 53.5 48.3 53.5 48V47.5H54.5V48C54.5 48.3 54.7 48.5 55 48.5C55.3 48.5 55.5 48.3 55.5 48V47.5H56.5V48C56.5 48.3 56.7 48.5 57 48.5C57.3 48.5 57.5 48.3 57.5 48V47.5H58.5V48C58.5 48.3 58.7 48.5 59 48.5C59.3 48.5 59.5 48.3 59.5 48V47.5H60.5V48C60.5 48.3 60.7 48.5 61 48.5C61.3 48.5 61.5 48.3 61.5 48V47.5H62.5V48C62.5 48.3 62.7 48.5 63 48.5C63.3 48.5 63.5 48.3 63.5 48V47.5H64.5V58.5H63.5V54C63.5 51.4 61.2992 50.6 61.1992 50.5H60.9004C60.8004 50.5 58.5 51.4 58.5 54V58.5H57.5V54C57.5 51.4 55.2992 50.6 55.1992 50.5H54.9004C54.8004 50.5 52.5 51.4 52.5 54V58.5H47.5V54C47.5 51.4 45.2992 50.6 45.1992 50.5H44.9004C44.8004 50.5 42.5 51.4 42.5 54V58.5H41.5V54C41.5 51.4 39.2992 50.6 39.1992 50.5H38.9004C38.8004 50.5 36.5 51.4 36.5 54V58.5H35.5V47.5ZM65.5 47.5H68H72H74.5V58.5H73H67H65.5V47.5ZM28 48.5C27.2 48.5 26.5 49.2 26.5 50V52C26.5 52.3 26.7 52.5 27 52.5H29C29.3 52.5 29.5 52.3 29.5 52V50C29.5 49.2 28.8 48.5 28 48.5ZM32 48.5C31.2 48.5 30.5 49.2 30.5 50V52C30.5 52.3 30.7 52.5 31 52.5H33C33.3 52.5 33.5 52.3 33.5 52V50C33.5 49.2 32.8 48.5 32 48.5ZM68 48.5C67.2 48.5 66.5 49.2 66.5 50V52C66.5 52.3 66.7 52.5 67 52.5H69C69.3 52.5 69.5 52.3 69.5 52V50C69.5 49.2 68.8 48.5 68 48.5ZM72 48.5C71.2 48.5 70.5 49.2 70.5 50V52C70.5 52.3 70.7 52.5 71 52.5H73C73.3 52.5 73.5 52.3 73.5 52V50C73.5 49.2 72.8 48.5 72 48.5ZM28 49.5C28.3 49.5 28.5 49.7 28.5 50V51.5H27.5V50C27.5 49.7 27.7 49.5 28 49.5ZM32 49.5C32.3 49.5 32.5 49.7 32.5 50V51.5H31.5V50C31.5 49.7 31.7 49.5 32 49.5ZM68 49.5C68.3 49.5 68.5 49.7 68.5 50V51.5H67.5V50C67.5 49.7 67.7 49.5 68 49.5ZM72 49.5C72.3 49.5 72.5 49.7 72.5 50V51.5H71.5V50C71.5 49.7 71.7 49.5 72 49.5ZM39 51.5C39.4 51.7 40.5 52.4 40.5 54V58.5H39H37.5V54C37.5 52.5 38.6 51.8 39 51.5ZM45 51.5C45.4 51.7 46.5 52.4 46.5 54V58.5H43.5V54C43.5 52.5 44.6 51.8 45 51.5ZM50 51.5C49.2 51.5 48.5 52.2 48.5 53C48.5 53.8 49.2 54.5 50 54.5C50.8 54.5 51.5 53.8 51.5 53C51.5 52.2 50.8 51.5 50 51.5ZM55 51.5C55.4 51.7 56.5 52.4 56.5 54V58.5H53.5V54C53.5 52.5 54.6 51.8 55 51.5ZM61 51.5C61.4 51.7 62.5 52.4 62.5 54V58.5H61H59.5V54C59.5 52.5 60.6 51.8 61 51.5ZM50 52.5C50.3 52.5 50.5 52.7 50.5 53C50.5 53.3 50.3 53.5 50 53.5C49.7 53.5 49.5 53.3 49.5 53C49.5 52.7 49.7 52.5 50 52.5ZM28 53.5C27.2 53.5 26.5 54.2 26.5 55V57C26.5 57.3 26.7 57.5 27 57.5H29C29.3 57.5 29.5 57.3 29.5 57V55C29.5 54.2 28.8 53.5 28 53.5ZM32 53.5C31.2 53.5 30.5 54.2 30.5 55V57C30.5 57.3 30.7 57.5 31 57.5H33C33.3 57.5 33.5 57.3 33.5 57V55C33.5 54.2 32.8 53.5 32 53.5ZM68 53.5C67.2 53.5 66.5 54.2 66.5 55V57C66.5 57.3 66.7 57.5 67 57.5H69C69.3 57.5 69.5 57.3 69.5 57V55C69.5 54.2 68.8 53.5 68 53.5ZM72 53.5C71.2 53.5 70.5 54.2 70.5 55V57C70.5 57.3 70.7 57.5 71 57.5H73C73.3 57.5 73.5 57.3 73.5 57V55C73.5 54.2 72.8 53.5 72 53.5ZM28 54.5C28.3 54.5 28.5 54.7 28.5 55V56.5H27.5V55C27.5 54.7 27.7 54.5 28 54.5ZM32 54.5C32.3 54.5 32.5 54.7 32.5 55V56.5H31.5V55C31.5 54.7 31.7 54.5 32 54.5ZM68 54.5C68.3 54.5 68.5 54.7 68.5 55V56.5H67.5V55C67.5 54.7 67.7 54.5 68 54.5ZM72 54.5C72.3 54.5 72.5 54.7 72.5 55V56.5H71.5V55C71.5 54.7 71.7 54.5 72 54.5ZM27.5 59.5H32.5V81.5H27.5V59.5ZM33.5 59.5H34.5V60C34.5 60.3 34.7 60.5 35 60.5C35.3 60.5 35.5 60.3 35.5 60V59.5H36.5V60C36.5 60.3 36.7 60.5 37 60.5C37.3 60.5 37.5 60.3 37.5 60V59.5H38.5V81.5H33.5V59.5ZM39.4004 59.5H39.5H40.5V60C40.5 60.3 40.7 60.5 41 60.5C41.3 60.5 41.5 60.3 41.5 60V59.5H42.5V60C42.5 60.3 42.7 60.5 43 60.5C43.3 60.5 43.5 60.3 43.5 60V59.5H44.5V60C44.5 60.3 44.7 60.5 45 60.5C45.3 60.5 45.5 60.3 45.5 60V59.5H46.5V60C46.5 60.3 46.7 60.5 47 60.5C47.3 60.5 47.5 60.3 47.5 60V59.5H48.5V60C48.5 60.3 48.7 60.5 49 60.5C49.3 60.5 49.5 60.3 49.5 60V59.5H50.5V60C50.5 60.3 50.7 60.5 51 60.5C51.3 60.5 51.5 60.3 51.5 60V59.5H52.5V60C52.5 60.3 52.7 60.5 53 60.5C53.3 60.5 53.5 60.3 53.5 60V59.5H54.5V60C54.5 60.3 54.7 60.5 55 60.5C55.3 60.5 55.5 60.3 55.5 60V59.5H56.5V60C56.5 60.3 56.7 60.5 57 60.5C57.3 60.5 57.5 60.3 57.5 60V59.5H58.5V60C58.5 60.3 58.7 60.5 59 60.5C59.3 60.5 59.5 60.3 59.5 60V59.5H60.5V81.5H58.5V71.5996C58.5 68.1996 56.6008 65.1008 53.3008 63.3008L50.1992 61.5996C49.9992 61.4996 49.8992 61.4996 49.6992 61.5996L46.5996 63.3008C43.3996 65.1008 41.4004 68.1996 41.4004 71.5996V81.5H39.4004V59.5ZM61.5 59.5H62.5V60C62.5 60.3 62.7 60.5 63 60.5C63.3 60.5 63.5 60.3 63.5 60V59.5H64.5V60C64.5 60.3 64.7 60.5 65 60.5C65.3 60.5 65.5 60.3 65.5 60V59.5H66.5V81.5H61.5V59.5ZM67.5 59.5H72.5V81.5H67.5V59.5ZM36 61.5C35.2 61.5 34.5 62.2 34.5 63V65C34.5 65.3 34.7 65.5 35 65.5H37C37.3 65.5 37.5 65.3 37.5 65V63C37.5 62.2 36.8 61.5 36 61.5ZM42 61.5C41.2 61.5 40.5 62.2 40.5 63C40.5 63.8 41.2 64.5 42 64.5C42.8 64.5 43.5 63.8 43.5 63C43.5 62.2 42.8 61.5 42 61.5ZM58 61.5C57.2 61.5 56.5 62.2 56.5 63C56.5 63.8 57.2 64.5 58 64.5C58.8 64.5 59.5 63.8 59.5 63C59.5 62.2 58.8 61.5 58 61.5ZM64 61.5C63.2 61.5 62.5 62.2 62.5 63V65C62.5 65.3 62.7 65.5 63 65.5H65C65.3 65.5 65.5 65.3 65.5 65V63C65.5 62.2 64.8 61.5 64 61.5ZM36 62.5C36.3 62.5 36.5 62.7 36.5 63V64.5H35.5V63C35.5 62.7 35.7 62.5 36 62.5ZM42 62.5C42.3 62.5 42.5 62.7 42.5 63C42.5 63.3 42.3 63.5 42 63.5C41.7 63.5 41.5 63.3 41.5 63C41.5 62.7 41.7 62.5 42 62.5ZM58 62.5C58.3 62.5 58.5 62.7 58.5 63C58.5 63.3 58.3 63.5 58 63.5C57.7 63.5 57.5 63.3 57.5 63C57.5 62.7 57.7 62.5 58 62.5ZM64 62.5C64.3 62.5 64.5 62.7 64.5 63V64.5H63.5V63C63.5 62.7 63.7 62.5 64 62.5ZM50 62.5996L52.8008 64.1992C55.7008 65.7992 57.5 68.5996 57.5 71.5996V81.5H42.5V71.5996C42.5 68.5996 44.1996 65.7992 47.0996 64.1992L50 62.5996ZM36 66.5C35.2 66.5 34.5 67.2 34.5 68V70C34.5 70.3 34.7 70.5 35 70.5H37C37.3 70.5 37.5 70.3 37.5 70V68C37.5 67.2 36.8 66.5 36 66.5ZM64 66.5C63.2 66.5 62.5 67.2 62.5 68V70C62.5 70.3 62.7 70.5 63 70.5H65C65.3 70.5 65.5 70.3 65.5 70V68C65.5 67.2 64.8 66.5 64 66.5ZM36 67.5C36.3 67.5 36.5 67.7 36.5 68V69.5H35.5V68C35.5 67.7 35.7 67.5 36 67.5ZM64 67.5C64.3 67.5 64.5 67.7 64.5 68V69.5H63.5V68C63.5 67.7 63.7 67.5 64 67.5ZM36 71.5C35.2 71.5 34.5 72.2 34.5 73V75C34.5 75.3 34.7 75.5 35 75.5H37C37.3 75.5 37.5 75.3 37.5 75V73C37.5 72.2 36.8 71.5 36 71.5ZM64 71.5C63.2 71.5 62.5 72.2 62.5 73V75C62.5 75.3 62.7 75.5 63 75.5H65C65.3 75.5 65.5 75.3 65.5 75V73C65.5 72.2 64.8 71.5 64 71.5ZM36 72.5C36.3 72.5 36.5 72.7 36.5 73V74.5H35.5V73C35.5 72.7 35.7 72.5 36 72.5ZM64 72.5C64.3 72.5 64.5 72.7 64.5 73V74.5H63.5V73C63.5 72.7 63.7 72.5 64 72.5ZM36 76.5C35.2 76.5 34.5 77.2 34.5 78V80C34.5 80.3 34.7 80.5 35 80.5H37C37.3 80.5 37.5 80.3 37.5 80V78C37.5 77.2 36.8 76.5 36 76.5ZM64 76.5C63.2 76.5 62.5 77.2 62.5 78V80C62.5 80.3 62.7 80.5 63 80.5H65C65.3 80.5 65.5 80.3 65.5 80V78C65.5 77.2 64.8 76.5 64 76.5ZM36 77.5C36.3 77.5 36.5 77.7 36.5 78V79.5H35.5V78C35.5 77.7 35.7 77.5 36 77.5ZM64 77.5C64.3 77.5 64.5 77.7 64.5 78V79.5H63.5V78C63.5 77.7 63.7 77.5 64 77.5Z"  fill="#2967FF"/>
</svg>
