<svg width="100" height="100" viewBox="0 0 100 100" fill="none" xmlns="http://www.w3.org/2000/svg">
<path d="M50 10.1816C49.724 10.1816 49.5 10.4056 49.5 10.6816V16.2109H47.5117L47.5 14.707C47.498 14.433 47.274 14.2109 47 14.2109H46.9961C46.7201 14.2129 46.498 14.4388 46.5 14.7148L46.5156 16.7148V19.1816H46C45.724 19.1816 45.5 19.4056 45.5 19.6816C45.5 19.9576 45.724 20.1816 46 20.1816H46.3184L44.4238 26.1816H43.5V24.6816C43.5 24.4056 43.276 24.1816 43 24.1816C42.724 24.1816 42.5 24.4056 42.5 24.6816V26.6816V28.6816V32.1816C42.5 32.2016 42.5097 32.2173 42.5117 32.2363L40.5234 38.5312C40.5184 38.5483 40.5235 38.566 40.5195 38.584C40.5125 38.617 40.5 38.6466 40.5 38.6816V40.6816V41.6816V67.1816H18.5V66.2109H19.0273C19.3033 66.2109 19.5273 65.9869 19.5273 65.7109C19.5273 65.4349 19.3033 65.2109 19.0273 65.2109H18.375L15.707 57.2109H16.0156C16.2916 57.2109 16.5156 56.9869 16.5156 56.7109C16.5156 56.4349 16.2916 56.2109 16.0156 56.2109H15.0137H14.5137V53.7109V51.7109C14.5137 51.4349 14.2897 51.2109 14.0137 51.2109C13.7377 51.2109 13.5137 51.4349 13.5137 51.7109V53.2109H8.51367V51.7109C8.51367 51.4349 8.28967 51.2109 8.01367 51.2109C7.73767 51.2109 7.51367 51.4349 7.51367 51.7109V53.7109V56.2109H7.00391H6.02148C5.74548 56.2109 5.52148 56.4349 5.52148 56.7109C5.52148 56.9869 5.74548 57.2109 6.02148 57.2109H6.3125L3.64062 65.2109H3.00977C2.73377 65.2109 2.50977 65.4349 2.50977 65.7109C2.50977 65.9869 2.73377 66.2109 3.00977 66.2109H3.5V68.6816V69.6816V95.1816H2C1.724 95.1816 1.5 95.4056 1.5 95.6816C1.5 95.9576 1.724 96.1816 2 96.1816H4H18H41H59H82H96H98C98.276 96.1816 98.5 95.9576 98.5 95.6816C98.5 95.4056 98.277 95.1816 98 95.1816H96.5V69.6816V68.6816V66.2109H97C97.276 66.2109 97.5 65.9869 97.5 65.7109C97.5 65.4349 97.276 65.2109 97 65.2109H96.3691L93.7012 57.2109H94.0098C94.2858 57.2109 94.5098 56.9869 94.5098 56.7109C94.5098 56.4349 94.2858 56.2109 94.0098 56.2109H93.0078H92.5078V53.7109V51.7109C92.5078 51.4349 92.2838 51.2109 92.0078 51.2109C91.7318 51.2109 91.5078 51.4349 91.5078 51.7109V53.2109H86.5078V51.7109C86.5078 51.4349 86.2838 51.2109 86.0078 51.2109C85.7318 51.2109 85.5078 51.4349 85.5078 51.7109V53.7109V56.2109H84.998H84.0137C83.7377 56.2109 83.5137 56.4349 83.5137 56.7109C83.5137 56.9869 83.7377 57.2109 84.0137 57.2109H84.3047L81.6426 65.1816H81.002C80.726 65.1816 80.502 65.4056 80.502 65.6816C80.502 65.9576 80.726 66.1816 81.002 66.1816H81.502V67.1816H59.502V41.6816V40.6816V38.6816C59.502 38.6466 59.4894 38.617 59.4824 38.584C59.4794 38.566 59.4845 38.5483 59.4785 38.5312L57.4902 32.2363C57.4922 32.2173 57.5 32.2006 57.5 32.1816V28.6816V26.6816V24.6816C57.5 24.4056 57.276 24.1816 57 24.1816C56.724 24.1816 56.5 24.4056 56.5 24.6816V26.1816H55.5781L53.6836 20.1816H54C54.276 20.1816 54.5 19.9576 54.5 19.6816C54.5 19.4056 54.276 19.1816 54 19.1816H53.5156V16.7109V16.709V16.707L53.5 14.707C53.498 14.433 53.274 14.2109 53 14.2109H52.9961C52.7201 14.2129 52.498 14.4388 52.5 14.7148L52.5117 16.2109H50.5V10.6816C50.5 10.4056 50.276 10.1816 50 10.1816ZM47.5156 17.2109H48.5V19.1816H47.5156V17.2109ZM49.5 17.2109H50.5V19.1816H49.5V17.2109ZM51.5 17.2109H52.5156V19.1816H51.5V17.2109ZM47.3574 20.2109H52.6445L58.3184 38.1816H55.502V35.6816C55.502 35.4056 55.278 35.1816 55.002 35.1816H53.2676L50.4727 27.5117C50.4017 27.3157 50.2139 27.1836 50.0059 27.1816H50.002C49.795 27.1816 49.6092 27.309 49.5352 27.502L46.5742 35.1816H45.002C44.726 35.1816 44.502 35.4056 44.502 35.6816V38.1816H41.6855L47.3574 20.2109ZM43.5 27.1816H44.1094L43.5 29.1055V28.6816V27.1816ZM55.8926 27.1816H56.5V28.6816V29.1055L55.8926 27.1816ZM49.9883 29.1035L52.4473 35.8516C52.4483 35.8546 52.4511 35.8544 52.4531 35.8574C52.4861 35.9434 52.5432 36.0124 52.6152 36.0684C52.6312 36.0804 52.6451 36.0916 52.6621 36.1016C52.7381 36.1476 52.821 36.1797 52.916 36.1797H54.5V38.6758V38.6797C54.5 38.9557 54.724 39.1797 55 39.1797H56H58H58.5V39.2715C58.343 39.2155 58.176 39.1797 58 39.1797C57.615 39.1797 57.266 39.3303 57 39.5703C56.734 39.3303 56.385 39.1797 56 39.1797C55.173 39.1797 54.5 39.8527 54.5 40.6797V41.6797C54.5 41.9557 54.724 42.1797 55 42.1797C55.276 42.1797 55.5 41.9557 55.5 41.6797V40.6797C55.5 40.4047 55.725 40.1797 56 40.1797C56.275 40.1797 56.5 40.4047 56.5 40.6797V41.6797C56.5 41.9557 56.724 42.1797 57 42.1797C57.276 42.1797 57.5 41.9557 57.5 41.6797V40.6797C57.5 40.4047 57.725 40.1797 58 40.1797C58.275 40.1797 58.5 40.4047 58.5 40.6797V41.6797V47.1797H53H47H41.5V41.6797V40.6797C41.5 40.4047 41.725 40.1797 42 40.1797C42.275 40.1797 42.5 40.4047 42.5 40.6797V41.6797C42.5 41.9557 42.724 42.1797 43 42.1797C43.276 42.1797 43.5 41.9557 43.5 41.6797V40.6797C43.5 40.4047 43.725 40.1797 44 40.1797C44.275 40.1797 44.5 40.4047 44.5 40.6797V41.6797C44.5 41.9557 44.724 42.1797 45 42.1797C45.276 42.1797 45.5 41.9557 45.5 41.6797V40.6797C45.5 39.8594 44.8374 39.1924 44.0195 39.1816H45C45.276 39.1816 45.5 38.9576 45.5 38.6816V36.1816H46.918C46.921 36.1816 46.9228 36.1797 46.9258 36.1797C46.9508 36.1787 46.974 36.1691 46.998 36.1641C47.172 36.1351 47.3169 36.0252 47.3809 35.8652C47.3819 35.8632 47.3818 35.8614 47.3828 35.8594L49.9883 29.1035ZM41.5 39.1816H41.9902C41.818 39.183 41.6539 39.2166 41.5 39.2715V39.1816ZM42.0195 39.1816H43.9805C43.6034 39.1867 43.2614 39.3345 43 39.5703C42.7386 39.3345 42.3966 39.1867 42.0195 39.1816ZM50 39.1816C48.07 39.1816 46.5 40.7516 46.5 42.6816C46.5 44.6116 48.071 46.1816 50 46.1816C51.93 46.1816 53.5 44.6116 53.5 42.6816C53.5 40.7516 51.93 39.1816 50 39.1816ZM50 40.1816C51.379 40.1816 52.5 41.3026 52.5 42.6816C52.5 44.0606 51.379 45.1816 50 45.1816C48.621 45.1816 47.5 44.0606 47.5 42.6816C47.5 41.3026 48.621 40.1816 50 40.1816ZM50 41.1816C49.724 41.1816 49.5 41.4056 49.5 41.6816V42.6816C49.501 42.9576 49.724 43.1816 50 43.1816C50.009 43.1816 50.0183 43.1777 50.0273 43.1777C50.0363 43.1777 50.0437 43.1816 50.0527 43.1816H51.5C51.776 43.1816 52 42.9576 52 42.6816C52 42.4056 51.776 42.1816 51.5 42.1816H50.5V41.6816C50.5 41.4056 50.276 41.1816 50 41.1816ZM41.5 48.1816H46.5V49.6816C46.5 49.8706 46.6083 50.0439 46.7773 50.1289L48.5 50.9902V52.6816C48.5 52.9576 48.724 53.1816 49 53.1816H49.5V55.1816C49.224 55.1816 49 55.4056 49 55.6816C49 55.9576 49.224 56.1816 49.5 56.1816H50.5C50.776 56.1816 51 55.9576 51 55.6816C51 55.4056 50.776 55.1816 50.5 55.1816V53.1816H51C51.276 53.1816 51.5 52.9576 51.5 52.6816V50.9902L53.2246 50.1289C53.3936 50.0439 53.5 49.8706 53.5 49.6816V48.1816H58.5V60.1816H54.5V58.1816C54.5 57.0786 53.603 56.1816 52.5 56.1816C51.397 56.1816 50.5 57.0786 50.5 58.1816V60.1816H49.5V58.1816C49.5 57.0786 48.603 56.1816 47.5 56.1816C46.397 56.1816 45.5 57.0786 45.5 58.1816V60.1816H41.5V48.1816ZM47.5 48.1836H52.5V49.373L50.7773 50.2344C50.6083 50.3194 50.5 50.4926 50.5 50.6816V52.1816H49.5V50.6816C49.5 50.4926 49.3936 50.3194 49.2246 50.2344L47.5 49.373V48.1836ZM8.51562 54.2109H9.5V56.1816H8.51562V54.2109ZM10.5 54.2109H11.5V56.1816H10.5V54.2109ZM12.5 54.2109H13.5156V56.1816H12.5V54.2109ZM86.5078 54.2109H87.4941V56.1816H86.5078V54.2109ZM88.4941 54.2109H89.4941V56.1816H88.4941V54.2109ZM90.4922 54.2109H91.5078V56.1816H90.4922V54.2109ZM47.5 57.1816C48.052 57.1816 48.5 57.6296 48.5 58.1816V60.6816V62.6816V65.1816H46.5V58.1816C46.5 57.6296 46.948 57.1816 47.5 57.1816ZM52.5 57.1816C53.052 57.1816 53.5 57.6296 53.5 58.1816V65.1816H51.5V62.6816V60.6816V58.1816C51.5 57.6296 51.948 57.1816 52.5 57.1816ZM7.36719 57.2109H14.6562L17.3223 65.2109H16.2188H14.2246L11.3711 62.3301C11.2771 62.2351 11.1496 62.1816 11.0176 62.1816H11.0156C10.8826 62.1816 10.7551 62.2341 10.6621 62.3281L7.79297 65.2109H6.21875H4.69531L7.36719 57.2109ZM85.3594 57.2109H92.6484L95.3145 65.2109H94.002H92.2168L89.3633 62.3301C89.2693 62.2351 89.1418 62.1816 89.0098 62.1816H89.0078C88.8748 62.1816 88.7473 62.2341 88.6543 62.3281L85.7871 65.2109H84.1484C84.1014 65.1969 84.053 65.1816 84.002 65.1816H82.6992L85.3594 57.2109ZM41.5 61.1816H45.5V65.1816H45C44.724 65.1816 44.5 65.4056 44.5 65.6816V67.6816C44.5 67.9576 44.724 68.1816 45 68.1816H55C55.276 68.1816 55.5 67.9576 55.5 67.6816V65.6816C55.5 65.4056 55.276 65.1816 55 65.1816H54.5V61.1816H58.5V67.6816V72.6816V80.1816H54.5V72.6816C54.5 71.3026 53.379 70.1816 52 70.1816C51.179 70.1816 50.456 70.5853 50 71.1973C49.544 70.5853 48.821 70.1816 48 70.1816C46.621 70.1816 45.5 71.3026 45.5 72.6816V80.1816H41.5V72.6816V67.6816V61.1816ZM49.5 61.1816H50.5V62.1816H49.5V61.1816ZM49.5 63.1816H50.5V65.1816H49.5V63.1816ZM11.0137 63.3926L13.6602 66.0625C13.7542 66.1575 13.8826 66.2109 14.0156 66.2109H16.2188H17.5V67.2734C17.343 67.2174 17.176 67.1816 17 67.1816C16.615 67.1816 16.266 67.3323 16 67.5723C15.734 67.3323 15.385 67.1816 15 67.1816C14.173 67.1816 13.5 67.8546 13.5 68.6816V69.6816C13.5 69.9576 13.724 70.1816 14 70.1816C14.276 70.1816 14.5 69.9576 14.5 69.6816V68.6816C14.5 68.4066 14.725 68.1816 15 68.1816C15.275 68.1816 15.5 68.4066 15.5 68.6816V69.6816C15.5 69.9576 15.724 70.1816 16 70.1816C16.276 70.1816 16.5 69.9576 16.5 69.6816V68.6816C16.5 68.4066 16.725 68.1816 17 68.1816C17.275 68.1816 17.5 68.4066 17.5 68.6816V69.6816V72.6816V95.1816H15.4492V91.6719C15.4492 89.1909 13.4302 87.1719 10.9492 87.1719C8.46822 87.1719 6.44922 89.1909 6.44922 91.6719V95.1816H4.5V69.6816V68.6816C4.5 68.4066 4.725 68.1816 5 68.1816C5.275 68.1816 5.5 68.4066 5.5 68.6816V69.6816C5.5 69.9576 5.724 70.1816 6 70.1816C6.276 70.1816 6.5 69.9576 6.5 69.6816V68.6816C6.5 68.4066 6.725 68.1816 7 68.1816C7.275 68.1816 7.5 68.4066 7.5 68.6816V69.6816C7.5 69.9576 7.724 70.1816 8 70.1816C8.276 70.1816 8.5 69.9576 8.5 69.6816V68.6816C8.5 67.8546 7.827 67.1816 7 67.1816C6.615 67.1816 6.266 67.3323 6 67.5723C5.734 67.3323 5.385 67.1816 5 67.1816C4.824 67.1816 4.657 67.2174 4.5 67.2734V66.2109H6.21875H8C8.133 66.2109 8.26247 66.1584 8.35547 66.0645L11.0137 63.3926ZM89.0059 63.3926L91.6523 66.0625C91.7463 66.1575 91.8748 66.2109 92.0078 66.2109H94H95.5V67.2734C95.343 67.2174 95.176 67.1816 95 67.1816C94.615 67.1816 94.266 67.3323 94 67.5723C93.734 67.3323 93.385 67.1816 93 67.1816C92.173 67.1816 91.5 67.8546 91.5 68.6816V69.6816C91.5 69.9576 91.724 70.1816 92 70.1816C92.276 70.1816 92.5 69.9576 92.5 69.6816V68.6816C92.5 68.4066 92.725 68.1816 93 68.1816C93.275 68.1816 93.5 68.4066 93.5 68.6816V69.6816C93.5 69.9576 93.724 70.1816 94 70.1816C94.276 70.1816 94.5 69.9576 94.5 69.6816V68.6816C94.5 68.4066 94.725 68.1816 95 68.1816C95.275 68.1816 95.5 68.4066 95.5 68.6816V69.6816V95.1816H93.4492V91.6719C93.4492 89.1909 91.4302 87.1719 88.9492 87.1719C86.4682 87.1719 84.4492 89.1909 84.4492 91.6719V95.1816H82.502V72.6816V69.6816V68.6816C82.502 68.4066 82.727 68.1816 83.002 68.1816C83.277 68.1816 83.502 68.4066 83.502 68.6816V69.6816C83.502 69.9576 83.726 70.1816 84.002 70.1816C84.278 70.1816 84.502 69.9576 84.502 69.6816V68.6816C84.502 68.4066 84.727 68.1816 85.002 68.1816C85.277 68.1816 85.502 68.4066 85.502 68.6816V69.6816C85.502 69.9576 85.726 70.1816 86.002 70.1816C86.278 70.1816 86.502 69.9576 86.502 69.6816V68.6816C86.502 67.8546 85.829 67.1816 85.002 67.1816C84.617 67.1816 84.268 67.3323 84.002 67.5723C83.736 67.3323 83.387 67.1816 83.002 67.1816C82.826 67.1816 82.659 67.2174 82.502 67.2734V66.2109H85.9941C86.1271 66.2109 86.2547 66.1584 86.3477 66.0645L89.0059 63.3926ZM11 65.1816C10.173 65.1816 9.5 65.8546 9.5 66.6816V69.6816C9.5 69.9576 9.724 70.1816 10 70.1816H12C12.276 70.1816 12.5 69.9576 12.5 69.6816V66.6816C12.5 65.8546 11.827 65.1816 11 65.1816ZM89 65.1816C88.173 65.1816 87.5 65.8546 87.5 66.6816V69.6816C87.5 69.9576 87.724 70.1816 88 70.1816H90C90.276 70.1816 90.5 69.9576 90.5 69.6816V66.6816C90.5 65.8546 89.827 65.1816 89 65.1816ZM11 66.1816C11.275 66.1816 11.5 66.4066 11.5 66.6816V69.1816H10.5V66.6816C10.5 66.4066 10.725 66.1816 11 66.1816ZM45.5 66.1816H46H46.5V67.1816H45.5V66.1816ZM47.5 66.1816H48.5V67.1816H47.5V66.1816ZM49.5 66.1816H50.5V67.1816H49.5V66.1816ZM51.5 66.1816H52.5V67.1816H51.5V66.1816ZM53.5 66.1816H54H54.5V67.1816H53.5V66.1816ZM89 66.1816C89.275 66.1816 89.5 66.4066 89.5 66.6816V69.1816H88.5V66.6816C88.5 66.4066 88.725 66.1816 89 66.1816ZM18.5 68.1816H40.5V72.1816H18.5V69.6816V68.6816V68.1816ZM59.5 68.1816H81.5V68.6816V69.6816V72.1816H59.5V68.1816ZM48 71.1816C48.827 71.1816 49.5 71.8546 49.5 72.6816V80.1816H46.5V72.6816C46.5 71.8546 47.173 71.1816 48 71.1816ZM52 71.1816C52.827 71.1816 53.5 71.8546 53.5 72.6816V80.1816H50.5V72.6816C50.5 71.8546 51.173 71.1816 52 71.1816ZM11 73.1719C8.947 73.1719 7.23136 74.5604 6.69336 76.4434C6.66136 76.5004 6.64177 76.5648 6.63477 76.6328C6.55477 76.9678 6.50195 77.3119 6.50195 77.6719V84.6719C6.50095 84.9469 6.724 85.1719 7 85.1719H15C15.276 85.1719 15.5 84.9479 15.5 84.6719V77.6719C15.5 77.3089 15.4462 76.9591 15.3652 76.6211C15.3572 76.5571 15.3405 76.4993 15.3105 76.4453C14.7735 74.5613 13.054 73.1719 11 73.1719ZM89.002 73.1719C86.949 73.1719 85.2314 74.5604 84.6934 76.4434C84.6614 76.5004 84.6437 76.5648 84.6367 76.6328C84.5567 76.9678 84.502 77.3119 84.502 77.6719V84.6719C84.502 84.9479 84.726 85.1719 85.002 85.1719H93.002C93.278 85.1719 93.502 84.9479 93.502 84.6719V77.6719C93.502 77.3089 93.4482 76.961 93.3672 76.623C93.3582 76.558 93.3395 76.4993 93.3105 76.4453C92.7735 74.5613 91.056 73.1719 89.002 73.1719ZM18.5 73.1816H40.5V81.1816H39.5V76.9316C39.5 75.9666 38.715 75.1816 37.75 75.1816C37.26 75.1816 36.818 75.3859 36.5 75.7109C36.182 75.3849 35.74 75.1816 35.25 75.1816C34.285 75.1816 33.5 75.9666 33.5 76.9316V81.1816H32.5V76.9316C32.5 75.9666 31.715 75.1816 30.75 75.1816C30.26 75.1816 29.818 75.3859 29.5 75.7109C29.182 75.3849 28.74 75.1816 28.25 75.1816C27.285 75.1816 26.5 75.9666 26.5 76.9316V81.1816H25.5V76.9316C25.5 75.9666 24.715 75.1816 23.75 75.1816C23.26 75.1816 22.818 75.3859 22.5 75.7109C22.182 75.3849 21.74 75.1816 21.25 75.1816C20.285 75.1816 19.5 75.9666 19.5 76.9316V81.1816H18.5V73.1816ZM59.5 73.1816H81.5V81.1816H80.5V76.9316C80.5 75.9666 79.715 75.1816 78.75 75.1816C78.26 75.1816 77.818 75.3859 77.5 75.7109C77.182 75.3849 76.74 75.1816 76.25 75.1816C75.285 75.1816 74.5 75.9666 74.5 76.9316V81.1816H73.5V76.9316C73.5 75.9666 72.715 75.1816 71.75 75.1816C71.26 75.1816 70.818 75.3859 70.5 75.7109C70.182 75.3849 69.74 75.1816 69.25 75.1816C68.285 75.1816 67.5 75.9666 67.5 76.9316V81.1816H66.5V76.9316C66.5 75.9666 65.715 75.1816 64.75 75.1816C64.26 75.1816 63.818 75.3859 63.5 75.7109C63.182 75.3849 62.74 75.1816 62.25 75.1816C61.285 75.1816 60.5 75.9666 60.5 76.9316V81.1816H59.5V73.1816ZM11 74.1719C12.395 74.1719 13.5942 74.9976 14.1562 76.1816H7.8457C8.4077 74.9966 9.605 74.1719 11 74.1719ZM89 74.1719C90.395 74.1719 91.5943 74.9976 92.1562 76.1816H85.8457C86.4077 74.9966 87.605 74.1719 89 74.1719ZM21.25 76.1816C21.663 76.1816 22 76.5186 22 76.9316V81.1816H20.5V76.9316C20.5 76.5186 20.837 76.1816 21.25 76.1816ZM23.75 76.1816C24.163 76.1816 24.5 76.5186 24.5 76.9316V81.1816H23V76.9316C23 76.5186 23.337 76.1816 23.75 76.1816ZM28.25 76.1816C28.663 76.1816 29 76.5186 29 76.9316V81.1816H27.5V76.9316C27.5 76.5186 27.837 76.1816 28.25 76.1816ZM30.75 76.1816C31.163 76.1816 31.5 76.5186 31.5 76.9316V81.1816H30V76.9316C30 76.5186 30.337 76.1816 30.75 76.1816ZM35.25 76.1816C35.663 76.1816 36 76.5186 36 76.9316V81.1816H34.5V76.9316C34.5 76.5186 34.837 76.1816 35.25 76.1816ZM37.75 76.1816C38.163 76.1816 38.5 76.5186 38.5 76.9316V81.1816H37V76.9316C37 76.5186 37.337 76.1816 37.75 76.1816ZM62.25 76.1816C62.663 76.1816 63 76.5186 63 76.9316V81.1816H61.5V76.9316C61.5 76.5186 61.837 76.1816 62.25 76.1816ZM64.75 76.1816C65.163 76.1816 65.5 76.5186 65.5 76.9316V81.1816H64V76.9316C64 76.5186 64.337 76.1816 64.75 76.1816ZM69.25 76.1816C69.663 76.1816 70 76.5186 70 76.9316V81.1816H68.5V76.9316C68.5 76.5186 68.837 76.1816 69.25 76.1816ZM71.75 76.1816C72.163 76.1816 72.5 76.5186 72.5 76.9316V81.1816H71V76.9316C71 76.5186 71.337 76.1816 71.75 76.1816ZM76.25 76.1816C76.663 76.1816 77 76.5186 77 76.9316V81.1816H75.5V76.9316C75.5 76.5186 75.837 76.1816 76.25 76.1816ZM78.75 76.1816C79.163 76.1816 79.5 76.5186 79.5 76.9316V81.1816H78V76.9316C78 76.5186 78.337 76.1816 78.75 76.1816ZM7.55078 77.1816H8.5V78.1816H7.5V77.6719C7.5 77.5039 7.52778 77.3426 7.55078 77.1816ZM9.5 77.1816H10.5V78.1816H9.5V77.1816ZM11.5 77.1816H12.5V78.1816H11.5V77.1816ZM13.5 77.1816H14.4512C14.4752 77.3426 14.5 77.5039 14.5 77.6719V78.1816H13.5V77.1816ZM85.5508 77.1816H86.5V78.1816H85.5V77.6719C85.5 77.5039 85.5278 77.3426 85.5508 77.1816ZM87.5 77.1816H88.5V78.1816H87.5V77.1816ZM89.5 77.1816H90.5V78.1816H89.5V77.1816ZM91.5 77.1816H92.4512C92.4742 77.3426 92.5 77.5049 92.5 77.6719V78.1816H91.5V77.1816ZM7.5 79.1816H8.5V84.1719H7.5V79.1816ZM9.5 79.1816H10.5V84.1719H9.5V79.1816ZM11.5 79.1816H12.5V84.1719H11.5V79.1816ZM13.5 79.1816H14.5V84.1719H13.5V79.1816ZM85.5 79.1816H86.5V84.1719H85.5V79.1816ZM87.5 79.1816H88.5V84.1719H87.5V79.1816ZM89.5 79.1816H90.5V84.1719H89.5V79.1816ZM91.5 79.1816H92.5V84.1719H91.5V79.1816ZM41.502 81.1816H46H50H54H58.5V95.1816H55.4492V88.6719C55.4492 85.6399 52.9812 83.1719 49.9492 83.1719C46.9172 83.1719 44.4492 85.6399 44.4492 88.6719V95.1816H41.502V81.1816ZM18.5 82.1816H20H22.5H25H27H29.5H32H34H36.5H39H40.5V95.1816H39.5V91.1758C39.5 89.5218 38.154 88.1758 36.5 88.1758C34.846 88.1758 33.5 89.5218 33.5 91.1758V95.1816H32.5V91.1758C32.5 89.5218 31.154 88.1758 29.5 88.1758C27.846 88.1758 26.5 89.5218 26.5 91.1758V95.1816H25.5V91.1758C25.5 89.5218 24.154 88.1758 22.5 88.1758C20.846 88.1758 19.5 89.5218 19.5 91.1758V95.1816H18.5V82.1816ZM59.5 82.1816H61H63.5H66H68H70.5H73H75H77.5H80H81.5V95.1816H80.5V91.1758C80.5 89.5218 79.154 88.1758 77.5 88.1758C75.846 88.1758 74.5 89.5218 74.5 91.1758V95.1816H73.5V91.1758C73.5 89.5218 72.154 88.1758 70.5 88.1758C68.846 88.1758 67.5 89.5218 67.5 91.1758V95.1816H66.5V91.1758C66.5 89.5218 65.154 88.1758 63.5 88.1758C61.846 88.1758 60.5 89.5218 60.5 91.1758V95.1816H59.5V82.1816ZM20 83.1719C19.724 83.1719 19.5 83.3959 19.5 83.6719V86.1719C19.5 86.4479 19.724 86.6719 20 86.6719H22.5H25C25.276 86.6719 25.5 86.4479 25.5 86.1719V83.6719C25.5 83.3959 25.276 83.1719 25 83.1719H22.5H20ZM27 83.1719C26.724 83.1719 26.5 83.3959 26.5 83.6719V86.1719C26.5 86.4479 26.724 86.6719 27 86.6719H29.5H32C32.276 86.6719 32.5 86.4479 32.5 86.1719V83.6719C32.5 83.3959 32.276 83.1719 32 83.1719H29.5H27ZM34 83.1719C33.724 83.1719 33.5 83.3959 33.5 83.6719V86.1719C33.5 86.4479 33.724 86.6719 34 86.6719H36.5H39C39.276 86.6719 39.5 86.4479 39.5 86.1719V83.6719C39.5 83.3959 39.276 83.1719 39 83.1719H36.5H34ZM61 83.1719C60.724 83.1719 60.5 83.3959 60.5 83.6719V86.1719C60.5 86.4479 60.724 86.6719 61 86.6719H63.5H66C66.276 86.6719 66.5 86.4479 66.5 86.1719V83.6719C66.5 83.3959 66.276 83.1719 66 83.1719H63.5H61ZM68 83.1719C67.724 83.1719 67.5 83.3959 67.5 83.6719V86.1719C67.5 86.4479 67.724 86.6719 68 86.6719H70.5H73C73.276 86.6719 73.5 86.4479 73.5 86.1719V83.6719C73.5 83.3959 73.276 83.1719 73 83.1719H70.5H68ZM75 83.1719C74.724 83.1719 74.5 83.3959 74.5 83.6719V86.1719C74.5 86.4479 74.724 86.6719 75 86.6719H77.5H80C80.276 86.6719 80.5 86.4479 80.5 86.1719V83.6719C80.5 83.3959 80.276 83.1719 80 83.1719H77.5H75ZM20.5 84.1719H22V85.6719H20.5V84.1719ZM23 84.1719H24.5V85.6719H23V84.1719ZM27.5 84.1719H29V85.6719H27.5V84.1719ZM30 84.1719H31.5V85.6719H30V84.1719ZM34.5 84.1719H36V85.6719H34.5V84.1719ZM37 84.1719H38.5V85.6719H37V84.1719ZM49.9492 84.1719C52.4302 84.1719 54.4492 86.1909 54.4492 88.6719V95.1719H45.4492V88.6719C45.4492 86.1909 47.4682 84.1719 49.9492 84.1719ZM61.5 84.1719H63V85.6719H61.5V84.1719ZM64 84.1719H65.5V85.6719H64V84.1719ZM68.5 84.1719H70V85.6719H68.5V84.1719ZM71 84.1719H72.5V85.6719H71V84.1719ZM75.5 84.1719H77V85.6719H75.5V84.1719ZM78 84.1719H79.5V85.6719H78V84.1719ZM10.9492 88.1719C12.8792 88.1719 14.4492 89.7419 14.4492 91.6719V95.1719H7.44922V91.6719C7.44922 89.7419 9.01922 88.1719 10.9492 88.1719ZM88.9492 88.1719C90.8792 88.1719 92.4492 89.7419 92.4492 91.6719V95.1719H85.4492V91.6719C85.4492 89.7419 87.0192 88.1719 88.9492 88.1719ZM22.5 89.1758C23.603 89.1758 24.5 90.0728 24.5 91.1758V95.1816H20.5V91.1758C20.5 90.0728 21.397 89.1758 22.5 89.1758ZM29.5 89.1758C30.603 89.1758 31.5 90.0728 31.5 91.1758V95.1816H27.5V91.1758C27.5 90.0728 28.397 89.1758 29.5 89.1758ZM36.5 89.1758C37.603 89.1758 38.5 90.0728 38.5 91.1758V95.1816H34.5V91.1758C34.5 90.0728 35.397 89.1758 36.5 89.1758ZM63.5 89.1758C64.603 89.1758 65.5 90.0728 65.5 91.1758V95.1816H61.5V91.1758C61.5 90.0728 62.397 89.1758 63.5 89.1758ZM70.5 89.1758C71.603 89.1758 72.5 90.0728 72.5 91.1758V95.1816H68.5V91.1758C68.5 90.0728 69.397 89.1758 70.5 89.1758ZM77.5 89.1758C78.603 89.1758 79.5 90.0728 79.5 91.1758V95.1816H75.5V91.1758C75.5 90.0728 76.397 89.1758 77.5 89.1758Z" fill="#FCAE55"/>
</svg>
