<svg width="1440" height="109" viewBox="0 0 1440 109" fill="none" xmlns="http://www.w3.org/2000/svg">
<g filter="url(#filter0_dd_75_14)">
<rect width="1440" height="98" fill="white"/>
<path d="M187.456 30.2019V44H184.756V35.051L180.872 41.4572H180.557L176.674 35.0707V44H173.954V30.2019H176.753L180.715 36.7264L184.657 30.2019H187.456ZM191.17 32.9615C190.75 32.9615 190.382 32.8104 190.066 32.5082C189.764 32.1928 189.613 31.8248 189.613 31.4043C189.613 30.9838 189.764 30.6159 190.066 30.3005C190.382 29.9851 190.75 29.8274 191.17 29.8274C191.604 29.8274 191.972 29.9851 192.274 30.3005C192.589 30.6159 192.747 30.9838 192.747 31.4043C192.747 31.8248 192.589 32.1928 192.274 32.5082C191.972 32.8104 191.604 32.9615 191.17 32.9615ZM189.909 44V34.1442H192.452V44H189.909ZM202.328 34.1442H204.812V43.5269C204.812 45.0513 204.306 46.2143 203.294 47.0159C202.296 47.8175 201.087 48.2183 199.667 48.2183C198.603 48.2183 197.663 48.0146 196.849 47.6072C196.047 47.1998 195.429 46.6019 194.996 45.8135L197.164 44.5716C197.663 45.4915 198.524 45.9514 199.746 45.9514C200.548 45.9514 201.179 45.7412 201.638 45.3207C202.098 44.9002 202.328 44.3022 202.328 43.5269V42.4625C201.579 43.4612 200.528 43.9606 199.175 43.9606C197.782 43.9606 196.612 43.4744 195.666 42.5019C194.733 41.5163 194.266 40.3205 194.266 38.9144C194.266 37.5215 194.739 36.3322 195.686 35.3466C196.632 34.3611 197.795 33.8683 199.175 33.8683C200.528 33.8683 201.579 34.3676 202.328 35.3663V34.1442ZM197.578 40.8659C198.104 41.3652 198.767 41.6149 199.569 41.6149C200.37 41.6149 201.027 41.3652 201.54 40.8659C202.066 40.3534 202.328 39.7029 202.328 38.9144C202.328 38.1391 202.066 37.5018 201.54 37.0024C201.027 36.4899 200.37 36.2337 199.569 36.2337C198.767 36.2337 198.104 36.4899 197.578 37.0024C197.065 37.5018 196.809 38.1391 196.809 38.9144C196.809 39.7029 197.065 40.3534 197.578 40.8659ZM212.598 33.8683C213.675 33.8683 214.562 34.2296 215.259 34.9524C215.968 35.6752 216.323 36.6739 216.323 37.9486V44H213.78V38.2639C213.78 37.6069 213.603 37.1075 213.248 36.7659C212.893 36.4111 212.42 36.2337 211.829 36.2337C211.172 36.2337 210.646 36.4373 210.252 36.8447C209.858 37.2521 209.661 37.8631 209.661 38.6779V44H207.118V30.2019H209.661V35.2481C210.278 34.3282 211.257 33.8683 212.598 33.8683ZM224.132 36.5885H221.904V40.6885C221.904 41.0301 221.99 41.2798 222.161 41.4375C222.331 41.5952 222.581 41.6872 222.91 41.7135C223.238 41.7266 223.646 41.72 224.132 41.6937V44C222.384 44.1971 221.149 44.0329 220.426 43.5072C219.716 42.9816 219.362 42.042 219.362 40.6885V36.5885H217.647V34.1442H219.362V32.1534L221.904 31.3846V34.1442H224.132V36.5885ZM232.562 34.1442H235.283L231.695 44C231.183 45.4192 230.499 46.4442 229.645 47.075C228.804 47.7189 227.753 48.008 226.491 47.9423V45.5769C227.175 45.5901 227.713 45.4455 228.108 45.1433C228.515 44.841 228.837 44.3548 229.073 43.6846L225.033 34.1442H227.812L230.374 40.7673L232.562 34.1442ZM187.456 50.2019V64H184.756V55.051L180.872 61.4572H180.557L176.674 55.0707V64H173.954V50.2019H176.753L180.715 56.7264L184.657 50.2019H187.456ZM198.306 62.7779C197.294 63.7766 196.059 64.276 194.6 64.276C193.141 64.276 191.906 63.7766 190.894 62.7779C189.896 61.766 189.396 60.5308 189.396 59.0721C189.396 57.6135 189.896 56.3848 190.894 55.3861C191.906 54.3742 193.141 53.8683 194.6 53.8683C196.059 53.8683 197.294 54.3742 198.306 55.3861C199.318 56.3848 199.824 57.6135 199.824 59.0721C199.824 60.5308 199.318 61.766 198.306 62.7779ZM192.688 61.0236C193.201 61.5361 193.838 61.7923 194.6 61.7923C195.362 61.7923 196 61.5361 196.512 61.0236C197.025 60.5111 197.281 59.8606 197.281 59.0721C197.281 58.2837 197.025 57.6332 196.512 57.1207C196 56.6082 195.362 56.3519 194.6 56.3519C193.838 56.3519 193.201 56.6082 192.688 57.1207C192.189 57.6332 191.939 58.2837 191.939 59.0721C191.939 59.8606 192.189 60.5111 192.688 61.0236ZM207.713 54.1442H210.512L206.766 64H203.869L200.124 54.1442H202.923L205.308 61.0433L207.713 54.1442ZM213.501 60.1168C213.843 61.3521 214.769 61.9697 216.281 61.9697C217.253 61.9697 217.989 61.6412 218.488 60.9841L220.538 62.1668C219.566 63.5729 218.133 64.276 216.241 64.276C214.612 64.276 213.304 63.7832 212.319 62.7976C211.333 61.812 210.84 60.5702 210.84 59.0721C210.84 57.5872 211.326 56.3519 212.299 55.3663C213.271 54.3676 214.52 53.8683 216.044 53.8683C217.49 53.8683 218.679 54.3676 219.612 55.3663C220.558 56.3651 221.031 57.6003 221.031 59.0721C221.031 59.4006 220.998 59.7489 220.933 60.1168H213.501ZM213.462 58.1457H218.488C218.344 57.4755 218.041 56.9761 217.582 56.6476C217.135 56.3191 216.622 56.1548 216.044 56.1548C215.361 56.1548 214.796 56.3322 214.349 56.687C213.902 57.0287 213.606 57.5149 213.462 58.1457ZM225.349 55.8394C225.586 55.2087 225.973 54.7356 226.512 54.4202C227.064 54.1048 227.675 53.9471 228.345 53.9471V56.7856C227.57 56.6936 226.873 56.8513 226.256 57.2587C225.651 57.666 225.349 58.3428 225.349 59.2889V64H222.806V54.1442H225.349V55.8394ZM231.87 56.9433C231.87 57.2061 232.041 57.4229 232.382 57.5937C232.737 57.7514 233.164 57.896 233.664 58.0274C234.163 58.1457 234.662 58.3034 235.162 58.5005C235.661 58.6845 236.082 58.9998 236.423 59.4466C236.778 59.8934 236.956 60.4519 236.956 61.1221C236.956 62.134 236.574 62.9159 235.812 63.4678C235.063 64.0066 234.124 64.276 232.994 64.276C230.97 64.276 229.59 63.4941 228.854 61.9303L231.062 60.6885C231.351 61.5426 231.995 61.9697 232.994 61.9697C233.9 61.9697 234.354 61.6872 234.354 61.1221C234.354 60.8593 234.176 60.649 233.821 60.4913C233.48 60.3205 233.059 60.1694 232.56 60.038C232.061 59.9066 231.561 59.7423 231.062 59.5452C230.562 59.3481 230.135 59.0393 229.781 58.6188C229.439 58.1851 229.268 57.6463 229.268 57.0024C229.268 56.03 229.623 55.2678 230.332 54.7159C231.055 54.1508 231.949 53.8683 233.013 53.8683C233.815 53.8683 234.544 54.0522 235.201 54.4202C235.858 54.775 236.377 55.2875 236.758 55.9577L234.59 57.1404C234.275 56.4702 233.749 56.1351 233.013 56.1351C232.685 56.1351 232.409 56.2074 232.185 56.3519C231.975 56.4965 231.87 56.6936 231.87 56.9433Z" fill="url(#paint0_linear_75_14)"/>
<path d="M166.482 62.6738V31.6282H160.152L151.237 46.3083L142.278 31.6282H135.948V32.924C135.77 32.8896 135.588 32.8719 135.403 32.8719H99.0009C98.3113 32.8719 97.6499 33.1191 97.1623 33.5592C96.6746 33.9993 96.4007 34.5961 96.4007 35.2185C96.4007 35.8409 96.6746 36.4377 97.1623 36.8778C97.6499 37.3179 98.3113 37.5651 99.0009 37.5651H135.403C135.588 37.5651 135.77 37.5474 135.948 37.513V44.657C135.77 44.6227 135.588 44.6049 135.403 44.6049H109.402C108.712 44.6049 108.051 44.8522 107.563 45.2923C107.075 45.7323 106.801 46.3292 106.801 46.9516C106.801 47.5739 107.075 48.1708 107.563 48.6109C108.051 49.0509 108.712 49.2982 109.402 49.2982H135.403C135.588 49.2982 135.77 49.2805 135.948 49.2461V56.3901C135.77 56.3557 135.588 56.338 135.403 56.338H119.802C119.113 56.338 118.451 56.5852 117.964 57.0253C117.476 57.4654 117.202 58.0623 117.202 58.6846C117.202 59.307 117.476 59.9039 117.964 60.3439C118.451 60.784 119.113 61.0312 119.802 61.0312H135.403C135.588 61.0312 135.77 61.0135 135.948 60.9792V62.6738H142.099V42.5829L150.881 56.9526H151.594L160.375 42.5385V62.6738H166.482Z" fill="url(#paint1_linear_75_14)"/>
<path d="M87.1556 33.2674C87.5832 33.0095 88.0859 32.8719 88.6002 32.8719C89.2898 32.8719 89.9511 33.1191 90.4388 33.5592C90.9264 33.9993 91.2004 34.5961 91.2004 35.2185C91.2004 35.6826 91.0479 36.1363 90.7621 36.5222C90.4764 36.9081 90.0703 37.2089 89.5952 37.3865C89.1201 37.5641 88.5973 37.6106 88.0929 37.52C87.5885 37.4295 87.1252 37.206 86.7616 36.8778C86.3979 36.5496 86.1503 36.1315 86.05 35.6763C85.9496 35.2211 86.0011 34.7493 86.1979 34.3205C86.3947 33.8917 86.728 33.5252 87.1556 33.2674Z" fill="url(#paint2_linear_75_14)"/>
<path d="M97.5563 45.0004C97.9839 44.7426 98.4866 44.6049 99.0009 44.6049C99.6905 44.6049 100.352 44.8522 100.839 45.2923C101.327 45.7323 101.601 46.3292 101.601 46.9516C101.601 47.4157 101.449 47.8694 101.163 48.2553C100.877 48.6412 100.471 48.9419 99.9959 49.1195C99.5208 49.2972 98.998 49.3436 98.4936 49.2531C97.9892 49.1625 97.5259 48.939 97.1623 48.6109C96.7986 48.2827 96.551 47.8646 96.4507 47.4094C96.3503 46.9542 96.4018 46.4823 96.5986 46.0535C96.7954 45.6248 97.1287 45.2583 97.5563 45.0004Z" fill="url(#paint3_linear_75_14)"/>
<path d="M107.957 56.7335C108.385 56.4756 108.887 56.338 109.402 56.338C110.091 56.338 110.753 56.5852 111.24 57.0253C111.728 57.4654 112.002 58.0623 112.002 58.6846C112.002 59.1487 111.849 59.6024 111.564 59.9883C111.278 60.3742 110.872 60.675 110.397 60.8526C109.921 61.0302 109.399 61.0767 108.894 60.9861C108.39 60.8956 107.927 60.6721 107.563 60.3439C107.199 60.0158 106.952 59.5976 106.851 59.1424C106.751 58.6872 106.803 58.2154 106.999 57.7866C107.196 57.3578 107.529 56.9913 107.957 56.7335Z" fill="url(#paint4_linear_75_14)"/>
<path d="M559.938 56V42.9091H568.056V44.6094H561.913V48.598H567.474V50.2919H561.913V56H559.938ZM573.747 56.1982C572.826 56.1982 572.023 55.9872 571.337 55.5653C570.651 55.1435 570.118 54.5533 569.739 53.7947C569.36 53.0362 569.17 52.1499 569.17 51.1357C569.17 50.1172 569.36 49.2266 569.739 48.4638C570.118 47.701 570.651 47.1087 571.337 46.6868C572.023 46.2649 572.826 46.054 573.747 46.054C574.667 46.054 575.47 46.2649 576.156 46.6868C576.843 47.1087 577.375 47.701 577.754 48.4638C578.134 49.2266 578.323 50.1172 578.323 51.1357C578.323 52.1499 578.134 53.0362 577.754 53.7947C577.375 54.5533 576.843 55.1435 576.156 55.5653C575.47 55.9872 574.667 56.1982 573.747 56.1982ZM573.753 54.5938C574.35 54.5938 574.844 54.4361 575.236 54.1207C575.628 53.8054 575.918 53.3857 576.105 52.8615C576.297 52.3374 576.393 51.7599 576.393 51.1293C576.393 50.5028 576.297 49.9276 576.105 49.4034C575.918 48.875 575.628 48.451 575.236 48.1314C574.844 47.8118 574.35 47.652 573.753 47.652C573.152 47.652 572.654 47.8118 572.257 48.1314C571.865 48.451 571.573 48.875 571.382 49.4034C571.194 49.9276 571.1 50.5028 571.1 51.1293C571.1 51.7599 571.194 52.3374 571.382 52.8615C571.573 53.3857 571.865 53.8054 572.257 54.1207C572.654 54.4361 573.152 54.5938 573.753 54.5938ZM580.457 56V46.1818H582.304V47.7415H582.406C582.585 47.2131 582.901 46.7976 583.352 46.495C583.808 46.1882 584.324 46.0348 584.899 46.0348C585.018 46.0348 585.159 46.0391 585.321 46.0476C585.487 46.0561 585.617 46.0668 585.711 46.0795V47.9077C585.634 47.8864 585.498 47.8629 585.302 47.8374C585.106 47.8075 584.91 47.7926 584.714 47.7926C584.262 47.7926 583.859 47.8885 583.506 48.0803C583.156 48.2678 582.879 48.5298 582.675 48.8665C582.47 49.1989 582.368 49.5781 582.368 50.0043V56H580.457ZM592.282 56V42.9091H600.489V44.6094H594.257V48.598H600.061V50.2919H594.257V54.2997H600.566V56H592.282ZM604.885 50.1705V56H602.974V46.1818H604.809V47.7798H604.93C605.156 47.2599 605.51 46.8423 605.991 46.527C606.477 46.2116 607.089 46.054 607.826 46.054C608.495 46.054 609.081 46.1946 609.584 46.4759C610.086 46.7528 610.476 47.1662 610.753 47.7159C611.03 48.2656 611.169 48.9453 611.169 49.755V56H609.258V49.9851C609.258 49.2734 609.072 48.7173 608.702 48.3168C608.331 47.9119 607.822 47.7095 607.174 47.7095C606.731 47.7095 606.336 47.8054 605.991 47.9972C605.65 48.1889 605.38 48.4702 605.18 48.8409C604.983 49.2074 604.885 49.6506 604.885 50.1705ZM618.315 46.1818V47.7159H612.952V46.1818H618.315ZM614.39 43.8295H616.302V53.1172C616.302 53.4879 616.357 53.767 616.468 53.9545C616.579 54.1378 616.721 54.2635 616.896 54.3317C617.075 54.3956 617.269 54.4276 617.478 54.4276C617.631 54.4276 617.765 54.4169 617.881 54.3956C617.996 54.3743 618.085 54.3572 618.149 54.3445L618.494 55.9233C618.383 55.9659 618.226 56.0085 618.021 56.0511C617.817 56.098 617.561 56.1236 617.254 56.1278C616.751 56.1364 616.282 56.0469 615.848 55.8594C615.413 55.6719 615.062 55.3821 614.793 54.9901C614.525 54.598 614.39 54.1058 614.39 53.5135V43.8295ZM624.555 56.1982C623.588 56.1982 622.755 55.9915 622.056 55.5781C621.362 55.1605 620.825 54.5746 620.445 53.8203C620.07 53.0618 619.883 52.1733 619.883 51.1548C619.883 50.1491 620.07 49.2628 620.445 48.4957C620.825 47.7287 621.353 47.13 622.031 46.6996C622.712 46.2692 623.509 46.054 624.421 46.054C624.975 46.054 625.512 46.1456 626.032 46.3288C626.552 46.5121 627.018 46.7997 627.432 47.1918C627.845 47.5838 628.171 48.093 628.41 48.7195C628.648 49.3416 628.768 50.098 628.768 50.9886V51.6662H620.963V50.2344H626.895C626.895 49.7315 626.793 49.2862 626.588 48.8984C626.384 48.5064 626.096 48.1974 625.725 47.9716C625.359 47.7457 624.928 47.6328 624.434 47.6328C623.897 47.6328 623.428 47.7649 623.028 48.0291C622.631 48.2891 622.325 48.63 622.107 49.0518C621.894 49.4695 621.788 49.9233 621.788 50.4134V51.532C621.788 52.1882 621.903 52.7464 622.133 53.2067C622.367 53.6669 622.693 54.0185 623.111 54.2614C623.528 54.5 624.016 54.6193 624.575 54.6193C624.937 54.6193 625.267 54.5682 625.565 54.4659C625.864 54.3594 626.121 54.2017 626.339 53.9929C626.556 53.7841 626.722 53.5263 626.837 53.2195L628.646 53.5455C628.501 54.0781 628.241 54.5447 627.866 54.9453C627.496 55.3416 627.029 55.6506 626.467 55.8722C625.908 56.0895 625.271 56.1982 624.555 56.1982ZM630.888 56V46.1818H632.736V47.7415H632.838C633.017 47.2131 633.332 46.7976 633.784 46.495C634.24 46.1882 634.756 46.0348 635.331 46.0348C635.45 46.0348 635.591 46.0391 635.753 46.0476C635.919 46.0561 636.049 46.0668 636.143 46.0795V47.9077C636.066 47.8864 635.93 47.8629 635.733 47.8374C635.537 47.8075 635.341 47.7926 635.145 47.7926C634.694 47.7926 634.291 47.8885 633.937 48.0803C633.588 48.2678 633.311 48.5298 633.106 48.8665C632.902 49.1989 632.8 49.5781 632.8 50.0043V56H630.888ZM637.797 59.6818V46.1818H639.663V47.7734H639.823C639.934 47.5689 640.093 47.3324 640.302 47.0639C640.511 46.7955 640.801 46.5611 641.172 46.3608C641.542 46.1562 642.032 46.054 642.642 46.054C643.434 46.054 644.142 46.2543 644.764 46.6548C645.386 47.0554 645.874 47.6328 646.228 48.3871C646.586 49.1413 646.765 50.049 646.765 51.1101C646.765 52.1712 646.588 53.081 646.234 53.8395C645.88 54.5937 645.395 55.1754 644.777 55.5845C644.159 55.9893 643.453 56.1918 642.661 56.1918C642.064 56.1918 641.576 56.0916 641.197 55.8913C640.822 55.6911 640.528 55.4567 640.315 55.1882C640.102 54.9197 639.938 54.6811 639.823 54.4723H639.708V59.6818H637.797ZM639.669 51.0909C639.669 51.7812 639.77 52.3864 639.97 52.9062C640.17 53.4261 640.46 53.8331 640.839 54.1271C641.218 54.4169 641.683 54.5618 642.233 54.5618C642.804 54.5618 643.281 54.4105 643.664 54.108C644.048 53.8011 644.338 53.3857 644.534 52.8615C644.734 52.3374 644.834 51.7472 644.834 51.0909C644.834 50.4432 644.736 49.8615 644.54 49.3459C644.348 48.8303 644.059 48.4233 643.671 48.125C643.287 47.8267 642.808 47.6776 642.233 47.6776C641.679 47.6776 641.21 47.8203 640.826 48.1058C640.447 48.3913 640.159 48.7898 639.963 49.3011C639.767 49.8125 639.669 50.4091 639.669 51.0909ZM648.906 56V46.1818H650.753V47.7415H650.855C651.034 47.2131 651.35 46.7976 651.801 46.495C652.257 46.1882 652.773 46.0348 653.348 46.0348C653.468 46.0348 653.608 46.0391 653.77 46.0476C653.936 46.0561 654.066 46.0668 654.16 46.0795V47.9077C654.083 47.8864 653.947 47.8629 653.751 47.8374C653.555 47.8075 653.359 47.7926 653.163 47.7926C652.711 47.7926 652.309 47.8885 651.955 48.0803C651.605 48.2678 651.328 48.5298 651.124 48.8665C650.919 49.1989 650.817 49.5781 650.817 50.0043V56H648.906ZM655.814 56V46.1818H657.725V56H655.814ZM656.779 44.6669C656.447 44.6669 656.161 44.5561 655.923 44.3345C655.688 44.1087 655.571 43.8402 655.571 43.5291C655.571 43.2138 655.688 42.9453 655.923 42.7237C656.161 42.4979 656.447 42.3849 656.779 42.3849C657.112 42.3849 657.395 42.4979 657.629 42.7237C657.868 42.9453 657.987 43.2138 657.987 43.5291C657.987 43.8402 657.868 44.1087 657.629 44.3345C657.395 44.5561 657.112 44.6669 656.779 44.6669ZM667.654 48.5788L665.922 48.8857C665.849 48.6641 665.734 48.4531 665.576 48.2528C665.423 48.0526 665.214 47.8885 664.95 47.7607C664.686 47.6328 664.355 47.5689 663.959 47.5689C663.418 47.5689 662.966 47.6903 662.604 47.9332C662.242 48.1719 662.061 48.4808 662.061 48.8601C662.061 49.1882 662.182 49.4524 662.425 49.6527C662.668 49.853 663.06 50.017 663.601 50.1449L665.161 50.5028C666.064 50.7116 666.738 51.0334 667.181 51.468C667.624 51.9027 667.846 52.4673 667.846 53.1619C667.846 53.75 667.675 54.2741 667.334 54.7344C666.998 55.1903 666.527 55.5483 665.922 55.8082C665.321 56.0682 664.624 56.1982 663.831 56.1982C662.732 56.1982 661.835 55.9638 661.14 55.495C660.446 55.022 660.02 54.3509 659.862 53.4815L661.709 53.2003C661.824 53.6818 662.061 54.0462 662.419 54.2933C662.777 54.5362 663.243 54.6577 663.819 54.6577C664.445 54.6577 664.946 54.5277 665.321 54.2678C665.696 54.0036 665.883 53.6818 665.883 53.3026C665.883 52.9957 665.768 52.7379 665.538 52.5291C665.312 52.3203 664.965 52.1626 664.496 52.0561L662.834 51.6918C661.918 51.483 661.24 51.1506 660.801 50.6946C660.367 50.2386 660.15 49.6612 660.15 48.9624C660.15 48.3828 660.311 47.8757 660.635 47.4411C660.959 47.0064 661.407 46.6676 661.978 46.4247C662.549 46.1776 663.203 46.054 663.94 46.054C665.001 46.054 665.836 46.2841 666.446 46.7443C667.055 47.2003 667.458 47.8118 667.654 48.5788ZM674.178 56.1982C673.211 56.1982 672.378 55.9915 671.679 55.5781C670.985 55.1605 670.448 54.5746 670.068 53.8203C669.693 53.0618 669.506 52.1733 669.506 51.1548C669.506 50.1491 669.693 49.2628 670.068 48.4957C670.448 47.7287 670.976 47.13 671.654 46.6996C672.335 46.2692 673.132 46.054 674.044 46.054C674.598 46.054 675.135 46.1456 675.655 46.3288C676.175 46.5121 676.642 46.7997 677.055 47.1918C677.468 47.5838 677.794 48.093 678.033 48.7195C678.271 49.3416 678.391 50.098 678.391 50.9886V51.6662H670.586V50.2344H676.518C676.518 49.7315 676.416 49.2862 676.211 48.8984C676.007 48.5064 675.719 48.1974 675.348 47.9716C674.982 47.7457 674.551 47.6328 674.057 47.6328C673.52 47.6328 673.051 47.7649 672.651 48.0291C672.254 48.2891 671.948 48.63 671.73 49.0518C671.517 49.4695 671.411 49.9233 671.411 50.4134V51.532C671.411 52.1882 671.526 52.7464 671.756 53.2067C671.99 53.6669 672.316 54.0185 672.734 54.2614C673.151 54.5 673.639 54.6193 674.198 54.6193C674.56 54.6193 674.89 54.5682 675.188 54.4659C675.487 54.3594 675.744 54.2017 675.962 53.9929C676.179 53.7841 676.345 53.5263 676.46 53.2195L678.269 53.5455C678.124 54.0781 677.865 54.5447 677.49 54.9453C677.119 55.3416 676.652 55.6506 676.09 55.8722C675.531 56.0895 674.894 56.1982 674.178 56.1982Z" fill="#000033"/>
<path d="M733.176 56H728.938V42.9091H733.31C734.593 42.9091 735.695 43.1712 736.615 43.6953C737.536 44.2152 738.241 44.9631 738.731 45.9389C739.225 46.9105 739.472 48.076 739.472 49.4354C739.472 50.799 739.223 51.9709 738.724 52.951C738.23 53.9311 737.514 54.6854 736.577 55.2138C735.639 55.7379 734.506 56 733.176 56ZM730.913 54.2741H733.067C734.065 54.2741 734.893 54.0866 735.554 53.7116C736.214 53.3324 736.709 52.7848 737.037 52.0689C737.365 51.3487 737.529 50.4709 737.529 49.4354C737.529 48.4084 737.365 47.5369 737.037 46.821C736.713 46.1051 736.229 45.5618 735.586 45.1911C734.942 44.8203 734.143 44.6349 733.189 44.6349H730.913V54.2741ZM746.007 56.1982C745.039 56.1982 744.206 55.9915 743.507 55.5781C742.813 55.1605 742.276 54.5746 741.896 53.8203C741.521 53.0618 741.334 52.1733 741.334 51.1548C741.334 50.1491 741.521 49.2628 741.896 48.4957C742.276 47.7287 742.804 47.13 743.482 46.6996C744.164 46.2692 744.96 46.054 745.872 46.054C746.426 46.054 746.963 46.1456 747.483 46.3288C748.003 46.5121 748.47 46.7997 748.883 47.1918C749.296 47.5838 749.622 48.093 749.861 48.7195C750.1 49.3416 750.219 50.098 750.219 50.9886V51.6662H742.414V50.2344H748.346C748.346 49.7315 748.244 49.2862 748.039 48.8984C747.835 48.5064 747.547 48.1974 747.176 47.9716C746.81 47.7457 746.379 47.6328 745.885 47.6328C745.348 47.6328 744.879 47.7649 744.479 48.0291C744.083 48.2891 743.776 48.63 743.558 49.0518C743.345 49.4695 743.239 49.9233 743.239 50.4134V51.532C743.239 52.1882 743.354 52.7464 743.584 53.2067C743.818 53.6669 744.144 54.0185 744.562 54.2614C744.98 54.5 745.468 54.6193 746.026 54.6193C746.388 54.6193 746.718 54.5682 747.017 54.4659C747.315 54.3594 747.573 54.2017 747.79 53.9929C748.007 53.7841 748.173 53.5263 748.289 53.2195L750.097 53.5455C749.953 54.0781 749.693 54.5447 749.318 54.9453C748.947 55.3416 748.48 55.6506 747.918 55.8722C747.36 56.0895 746.722 56.1982 746.007 56.1982ZM754.251 42.9091V56H752.339V42.9091H754.251ZM756.822 56V46.1818H758.733V56H756.822ZM757.787 44.6669C757.455 44.6669 757.169 44.5561 756.931 44.3345C756.696 44.1087 756.579 43.8402 756.579 43.5291C756.579 43.2138 756.696 42.9453 756.931 42.7237C757.169 42.4979 757.455 42.3849 757.787 42.3849C758.119 42.3849 758.403 42.4979 758.637 42.7237C758.876 42.9453 758.995 43.2138 758.995 43.5291C758.995 43.8402 758.876 44.1087 758.637 44.3345C758.403 44.5561 758.119 44.6669 757.787 44.6669ZM769.703 46.1818L766.143 56H764.098L760.531 46.1818H762.583L765.069 53.7372H765.172L767.652 46.1818H769.703ZM775.397 56.1982C774.43 56.1982 773.597 55.9915 772.898 55.5781C772.203 55.1605 771.666 54.5746 771.287 53.8203C770.912 53.0618 770.725 52.1733 770.725 51.1548C770.725 50.1491 770.912 49.2628 771.287 48.4957C771.666 47.7287 772.195 47.13 772.872 46.6996C773.554 46.2692 774.351 46.054 775.263 46.054C775.817 46.054 776.354 46.1456 776.874 46.3288C777.394 46.5121 777.86 46.7997 778.274 47.1918C778.687 47.5838 779.013 48.093 779.252 48.7195C779.49 49.3416 779.61 50.098 779.61 50.9886V51.6662H771.805V50.2344H777.737C777.737 49.7315 777.634 49.2862 777.43 48.8984C777.225 48.5064 776.938 48.1974 776.567 47.9716C776.2 47.7457 775.77 47.6328 775.276 47.6328C774.739 47.6328 774.27 47.7649 773.869 48.0291C773.473 48.2891 773.166 48.63 772.949 49.0518C772.736 49.4695 772.629 49.9233 772.629 50.4134V51.532C772.629 52.1882 772.744 52.7464 772.975 53.2067C773.209 53.6669 773.535 54.0185 773.953 54.2614C774.37 54.5 774.858 54.6193 775.416 54.6193C775.779 54.6193 776.109 54.5682 776.407 54.4659C776.705 54.3594 776.963 54.2017 777.181 53.9929C777.398 53.7841 777.564 53.5263 777.679 53.2195L779.488 53.5455C779.343 54.0781 779.083 54.5447 778.708 54.9453C778.338 55.3416 777.871 55.6506 777.308 55.8722C776.75 56.0895 776.113 56.1982 775.397 56.1982ZM781.73 56V46.1818H783.577V47.7415H783.68C783.859 47.2131 784.174 46.7976 784.626 46.495C785.082 46.1882 785.597 46.0348 786.173 46.0348C786.292 46.0348 786.433 46.0391 786.594 46.0476C786.761 46.0561 786.891 46.0668 786.984 46.0795V47.9077C786.908 47.8864 786.771 47.8629 786.575 47.8374C786.379 47.8075 786.183 47.7926 785.987 47.7926C785.536 47.7926 785.133 47.8885 784.779 48.0803C784.43 48.2678 784.153 48.5298 783.948 48.8665C783.744 49.1989 783.641 49.5781 783.641 50.0043V56H781.73ZM790.145 59.6818C789.86 59.6818 789.6 59.6584 789.365 59.6115C789.131 59.5689 788.956 59.522 788.841 59.4709L789.301 57.9048C789.651 57.9986 789.962 58.0391 790.235 58.0263C790.507 58.0135 790.748 57.9112 790.957 57.7195C791.17 57.5277 791.358 57.2145 791.52 56.7798L791.756 56.1278L788.164 46.1818H790.209L792.696 53.8011H792.798L795.284 46.1818H797.336L793.29 57.3104C793.103 57.8217 792.864 58.2543 792.574 58.608C792.284 58.9659 791.939 59.2344 791.539 59.4134C791.138 59.5923 790.674 59.6818 790.145 59.6818ZM804.05 56V42.9091H808.716C809.734 42.9091 810.578 43.0945 811.247 43.4652C811.916 43.8359 812.417 44.343 812.749 44.9865C813.081 45.6257 813.248 46.3459 813.248 47.147C813.248 47.9524 813.079 48.6768 812.743 49.3203C812.41 49.9595 811.907 50.4666 811.234 50.8416C810.565 51.2124 809.724 51.3977 808.709 51.3977H805.501V49.723H808.53C809.174 49.723 809.696 49.6122 810.096 49.3906C810.497 49.1648 810.791 48.858 810.979 48.4702C811.166 48.0824 811.26 47.6413 811.26 47.147C811.26 46.6527 811.166 46.2138 810.979 45.8303C810.791 45.4467 810.495 45.1463 810.09 44.929C809.689 44.7116 809.161 44.603 808.505 44.603H806.025V56H804.05ZM818.179 56.2173C817.557 56.2173 816.994 56.1023 816.492 55.8722C815.989 55.6378 815.59 55.299 815.296 54.8558C815.007 54.4126 814.862 53.8693 814.862 53.2259C814.862 52.6719 814.968 52.2159 815.181 51.858C815.394 51.5 815.682 51.2166 816.044 51.0078C816.406 50.799 816.811 50.6413 817.259 50.5348C817.706 50.4283 818.162 50.3473 818.627 50.2919C819.215 50.2237 819.692 50.1683 820.058 50.1257C820.425 50.0788 820.691 50.0043 820.857 49.902C821.024 49.7997 821.107 49.6335 821.107 49.4034V49.3587C821.107 48.8004 820.949 48.3679 820.634 48.0611C820.323 47.7543 819.858 47.6009 819.24 47.6009C818.597 47.6009 818.09 47.7436 817.719 48.0291C817.352 48.3104 817.099 48.6236 816.958 48.9688L815.162 48.5597C815.375 47.9631 815.686 47.4815 816.095 47.1151C816.509 46.7443 816.984 46.4759 817.521 46.3097C818.058 46.1392 818.622 46.054 819.215 46.054C819.607 46.054 820.022 46.1009 820.461 46.1946C820.904 46.2841 821.318 46.4503 821.701 46.6932C822.089 46.9361 822.406 47.2834 822.654 47.7351C822.901 48.1825 823.024 48.7642 823.024 49.4801V56H821.158V54.6577H821.081C820.958 54.9048 820.772 55.1477 820.525 55.3864C820.278 55.625 819.96 55.8232 819.573 55.9808C819.185 56.1385 818.72 56.2173 818.179 56.2173ZM818.595 54.6832C819.123 54.6832 819.575 54.5788 819.95 54.37C820.329 54.1612 820.617 53.8885 820.813 53.5518C821.013 53.2109 821.113 52.8466 821.113 52.4588V51.1932C821.045 51.2614 820.913 51.3253 820.717 51.3849C820.525 51.4403 820.306 51.4893 820.058 51.532C819.811 51.5703 819.57 51.6065 819.336 51.6406C819.102 51.6705 818.906 51.696 818.748 51.7173C818.377 51.7642 818.039 51.843 817.732 51.9538C817.429 52.0646 817.186 52.2244 817.003 52.4332C816.824 52.6378 816.735 52.9105 816.735 53.2514C816.735 53.7244 816.909 54.0824 817.259 54.3253C817.608 54.5639 818.053 54.6832 818.595 54.6832ZM825.57 56V46.1818H827.417V47.7415H827.52C827.699 47.2131 828.014 46.7976 828.466 46.495C828.922 46.1882 829.437 46.0348 830.012 46.0348C830.132 46.0348 830.272 46.0391 830.434 46.0476C830.6 46.0561 830.73 46.0668 830.824 46.0795V47.9077C830.748 47.8864 830.611 47.8629 830.415 47.8374C830.219 47.8075 830.023 47.7926 829.827 47.7926C829.375 47.7926 828.973 47.8885 828.619 48.0803C828.27 48.2678 827.993 48.5298 827.788 48.8665C827.583 49.1989 827.481 49.5781 827.481 50.0043V56H825.57ZM837.641 46.1818V47.7159H832.278V46.1818H837.641ZM833.717 43.8295H835.628V53.1172C835.628 53.4879 835.683 53.767 835.794 53.9545C835.905 54.1378 836.048 54.2635 836.222 54.3317C836.401 54.3956 836.595 54.4276 836.804 54.4276C836.957 54.4276 837.092 54.4169 837.207 54.3956C837.322 54.3743 837.411 54.3572 837.475 54.3445L837.82 55.9233C837.71 55.9659 837.552 56.0085 837.347 56.0511C837.143 56.098 836.887 56.1236 836.58 56.1278C836.077 56.1364 835.609 56.0469 835.174 55.8594C834.739 55.6719 834.388 55.3821 834.119 54.9901C833.851 54.598 833.717 54.1058 833.717 53.5135V43.8295ZM841.667 50.1705V56H839.756V46.1818H841.59V47.7798H841.711C841.937 47.2599 842.291 46.8423 842.773 46.527C843.258 46.2116 843.87 46.054 844.607 46.054C845.276 46.054 845.862 46.1946 846.365 46.4759C846.868 46.7528 847.258 47.1662 847.535 47.7159C847.812 48.2656 847.95 48.9453 847.95 49.755V56H846.039V49.9851C846.039 49.2734 845.854 48.7173 845.483 48.3168C845.112 47.9119 844.603 47.7095 843.955 47.7095C843.512 47.7095 843.118 47.8054 842.773 47.9972C842.432 48.1889 842.161 48.4702 841.961 48.8409C841.765 49.2074 841.667 49.6506 841.667 50.1705ZM854.745 56.1982C853.778 56.1982 852.944 55.9915 852.246 55.5781C851.551 55.1605 851.014 54.5746 850.635 53.8203C850.26 53.0618 850.072 52.1733 850.072 51.1548C850.072 50.1491 850.26 49.2628 850.635 48.4957C851.014 47.7287 851.542 47.13 852.22 46.6996C852.902 46.2692 853.699 46.054 854.611 46.054C855.165 46.054 855.702 46.1456 856.221 46.3288C856.741 46.5121 857.208 46.7997 857.621 47.1918C858.035 47.5838 858.361 48.093 858.599 48.7195C858.838 49.3416 858.957 50.098 858.957 50.9886V51.6662H851.153V50.2344H857.084C857.084 49.7315 856.982 49.2862 856.778 48.8984C856.573 48.5064 856.285 48.1974 855.915 47.9716C855.548 47.7457 855.118 47.6328 854.623 47.6328C854.086 47.6328 853.618 47.7649 853.217 48.0291C852.821 48.2891 852.514 48.63 852.297 49.0518C852.084 49.4695 851.977 49.9233 851.977 50.4134V51.532C851.977 52.1882 852.092 52.7464 852.322 53.2067C852.557 53.6669 852.883 54.0185 853.3 54.2614C853.718 54.5 854.206 54.6193 854.764 54.6193C855.126 54.6193 855.456 54.5682 855.755 54.4659C856.053 54.3594 856.311 54.2017 856.528 53.9929C856.746 53.7841 856.912 53.5263 857.027 53.2195L858.836 53.5455C858.691 54.0781 858.431 54.5447 858.056 54.9453C857.685 55.3416 857.219 55.6506 856.656 55.8722C856.098 56.0895 855.461 56.1982 854.745 56.1982ZM861.078 56V46.1818H862.925V47.7415H863.027C863.206 47.2131 863.522 46.7976 863.973 46.495C864.429 46.1882 864.945 46.0348 865.52 46.0348C865.64 46.0348 865.78 46.0391 865.942 46.0476C866.108 46.0561 866.238 46.0668 866.332 46.0795V47.9077C866.255 47.8864 866.119 47.8629 865.923 47.8374C865.727 47.8075 865.531 47.7926 865.335 47.7926C864.883 47.7926 864.48 47.8885 864.127 48.0803C863.777 48.2678 863.5 48.5298 863.296 48.8665C863.091 49.1989 862.989 49.5781 862.989 50.0043V56H861.078Z" fill="#000033"/>
<path d="M924.078 46.348C924.01 45.7429 923.729 45.2741 923.234 44.9418C922.74 44.6051 922.118 44.4368 921.368 44.4368C920.831 44.4368 920.366 44.522 919.974 44.6925C919.582 44.8587 919.278 45.0888 919.06 45.3828C918.847 45.6726 918.741 46.0028 918.741 46.3736C918.741 46.6847 918.813 46.9531 918.958 47.179C919.107 47.4048 919.301 47.5945 919.54 47.7479C919.783 47.897 920.043 48.0227 920.32 48.125C920.597 48.223 920.863 48.304 921.119 48.3679L922.397 48.7003C922.815 48.8026 923.243 48.9411 923.682 49.1158C924.121 49.2905 924.528 49.5206 924.903 49.8061C925.278 50.0916 925.58 50.4453 925.81 50.8672C926.045 51.2891 926.162 51.794 926.162 52.3821C926.162 53.1236 925.97 53.782 925.587 54.3572C925.207 54.9325 924.656 55.3864 923.931 55.7188C923.211 56.0511 922.339 56.2173 921.317 56.2173C920.337 56.2173 919.489 56.0618 918.773 55.7507C918.057 55.4396 917.496 54.9986 917.092 54.4276C916.687 53.8523 916.463 53.1705 916.42 52.3821H918.402C918.44 52.8551 918.594 53.2493 918.862 53.5646C919.135 53.8757 919.482 54.108 919.904 54.2614C920.33 54.4105 920.797 54.4851 921.304 54.4851C921.862 54.4851 922.359 54.3977 922.793 54.223C923.232 54.044 923.577 53.7969 923.829 53.4815C924.08 53.1619 924.206 52.7891 924.206 52.3629C924.206 51.9751 924.095 51.6577 923.874 51.4105C923.656 51.1634 923.36 50.9588 922.985 50.7969C922.614 50.6349 922.195 50.4922 921.726 50.3686L920.179 49.9467C919.131 49.6612 918.3 49.2415 917.686 48.6875C917.077 48.1335 916.772 47.4006 916.772 46.4886C916.772 45.7344 916.977 45.076 917.386 44.5135C917.795 43.951 918.349 43.5142 919.048 43.2031C919.746 42.8878 920.535 42.7301 921.413 42.7301C922.299 42.7301 923.081 42.8857 923.759 43.1967C924.44 43.5078 924.977 43.9361 925.369 44.4815C925.761 45.0227 925.966 45.6449 925.983 46.348H924.078ZM934.588 51.9283V46.1818H936.506V56H934.627V54.2997H934.524C934.298 54.8239 933.936 55.2607 933.438 55.6101C932.943 55.9553 932.328 56.1278 931.59 56.1278C930.96 56.1278 930.401 55.9893 929.916 55.7124C929.434 55.4311 929.055 55.0156 928.778 54.4659C928.505 53.9162 928.369 53.2365 928.369 52.4268V46.1818H930.28V52.1967C930.28 52.8658 930.465 53.3984 930.836 53.7947C931.207 54.1911 931.688 54.3892 932.281 54.3892C932.639 54.3892 932.994 54.2997 933.348 54.1207C933.706 53.9418 934.002 53.6712 934.237 53.3089C934.475 52.9467 934.593 52.4865 934.588 51.9283ZM939.074 59.6818V46.1818H940.94V47.7734H941.1C941.211 47.5689 941.371 47.3324 941.58 47.0639C941.788 46.7955 942.078 46.5611 942.449 46.3608C942.82 46.1562 943.31 46.054 943.919 46.054C944.712 46.054 945.419 46.2543 946.041 46.6548C946.663 47.0554 947.151 47.6328 947.505 48.3871C947.863 49.1413 948.042 50.049 948.042 51.1101C948.042 52.1712 947.865 53.081 947.511 53.8395C947.158 54.5937 946.672 55.1754 946.054 55.5845C945.436 55.9893 944.731 56.1918 943.938 56.1918C943.342 56.1918 942.854 56.0916 942.474 55.8913C942.099 55.6911 941.805 55.4567 941.592 55.1882C941.379 54.9197 941.215 54.6811 941.1 54.4723H940.985V59.6818H939.074ZM940.947 51.0909C940.947 51.7812 941.047 52.3864 941.247 52.9062C941.447 53.4261 941.737 53.8331 942.116 54.1271C942.496 54.4169 942.96 54.5618 943.51 54.5618C944.081 54.5618 944.558 54.4105 944.942 54.108C945.325 53.8011 945.615 53.3857 945.811 52.8615C946.011 52.3374 946.112 51.7472 946.112 51.0909C946.112 50.4432 946.013 49.8615 945.817 49.3459C945.626 48.8303 945.336 48.4233 944.948 48.125C944.565 47.8267 944.085 47.6776 943.51 47.6776C942.956 47.6776 942.487 47.8203 942.104 48.1058C941.724 48.3913 941.437 48.7898 941.241 49.3011C941.045 49.8125 940.947 50.4091 940.947 51.0909ZM950.183 59.6818V46.1818H952.05V47.7734H952.21C952.32 47.5689 952.48 47.3324 952.689 47.0639C952.898 46.7955 953.188 46.5611 953.558 46.3608C953.929 46.1562 954.419 46.054 955.028 46.054C955.821 46.054 956.528 46.2543 957.151 46.6548C957.773 47.0554 958.261 47.6328 958.614 48.3871C958.972 49.1413 959.151 50.049 959.151 51.1101C959.151 52.1712 958.974 53.081 958.621 53.8395C958.267 54.5937 957.781 55.1754 957.163 55.5845C956.545 55.9893 955.84 56.1918 955.048 56.1918C954.451 56.1918 953.963 56.0916 953.584 55.8913C953.209 55.6911 952.915 55.4567 952.702 55.1882C952.489 54.9197 952.325 54.6811 952.21 54.4723H952.094V59.6818H950.183ZM952.056 51.0909C952.056 51.7812 952.156 52.3864 952.357 52.9062C952.557 53.4261 952.847 53.8331 953.226 54.1271C953.605 54.4169 954.07 54.5618 954.619 54.5618C955.19 54.5618 955.668 54.4105 956.051 54.108C956.435 53.8011 956.724 53.3857 956.92 52.8615C957.121 52.3374 957.221 51.7472 957.221 51.0909C957.221 50.4432 957.123 49.8615 956.927 49.3459C956.735 48.8303 956.445 48.4233 956.058 48.125C955.674 47.8267 955.195 47.6776 954.619 47.6776C954.065 47.6776 953.597 47.8203 953.213 48.1058C952.834 48.3913 952.546 48.7898 952.35 49.3011C952.154 49.8125 952.056 50.4091 952.056 51.0909ZM965.428 56.1982C964.508 56.1982 963.705 55.9872 963.018 55.5653C962.332 55.1435 961.8 54.5533 961.42 53.7947C961.041 53.0362 960.852 52.1499 960.852 51.1357C960.852 50.1172 961.041 49.2266 961.42 48.4638C961.8 47.701 962.332 47.1087 963.018 46.6868C963.705 46.2649 964.508 46.054 965.428 46.054C966.349 46.054 967.152 46.2649 967.838 46.6868C968.524 47.1087 969.057 47.701 969.436 48.4638C969.815 49.2266 970.005 50.1172 970.005 51.1357C970.005 52.1499 969.815 53.0362 969.436 53.7947C969.057 54.5533 968.524 55.1435 967.838 55.5653C967.152 55.9872 966.349 56.1982 965.428 56.1982ZM965.435 54.5938C966.031 54.5938 966.526 54.4361 966.918 54.1207C967.31 53.8054 967.599 53.3857 967.787 52.8615C967.979 52.3374 968.075 51.7599 968.075 51.1293C968.075 50.5028 967.979 49.9276 967.787 49.4034C967.599 48.875 967.31 48.451 966.918 48.1314C966.526 47.8118 966.031 47.652 965.435 47.652C964.834 47.652 964.335 47.8118 963.939 48.1314C963.547 48.451 963.255 48.875 963.063 49.4034C962.876 49.9276 962.782 50.5028 962.782 51.1293C962.782 51.7599 962.876 52.3374 963.063 52.8615C963.255 53.3857 963.547 53.8054 963.939 54.1207C964.335 54.4361 964.834 54.5938 965.435 54.5938ZM972.138 56V46.1818H973.986V47.7415H974.088C974.267 47.2131 974.582 46.7976 975.034 46.495C975.49 46.1882 976.006 46.0348 976.581 46.0348C976.7 46.0348 976.841 46.0391 977.003 46.0476C977.169 46.0561 977.299 46.0668 977.393 46.0795V47.9077C977.316 47.8864 977.18 47.8629 976.983 47.8374C976.787 47.8075 976.591 47.7926 976.395 47.7926C975.944 47.7926 975.541 47.8885 975.187 48.0803C974.838 48.2678 974.561 48.5298 974.356 48.8665C974.152 49.1989 974.05 49.5781 974.05 50.0043V56H972.138ZM984.21 46.1818V47.7159H978.847V46.1818H984.21ZM980.285 43.8295H982.196V53.1172C982.196 53.4879 982.252 53.767 982.362 53.9545C982.473 54.1378 982.616 54.2635 982.791 54.3317C982.97 54.3956 983.164 54.4276 983.372 54.4276C983.526 54.4276 983.66 54.4169 983.775 54.3956C983.89 54.3743 983.98 54.3572 984.044 54.3445L984.389 55.9233C984.278 55.9659 984.12 56.0085 983.916 56.0511C983.711 56.098 983.455 56.1236 983.149 56.1278C982.646 56.1364 982.177 56.0469 981.742 55.8594C981.308 55.6719 980.956 55.3821 980.688 54.9901C980.419 54.598 980.285 54.1058 980.285 53.5135V43.8295Z" fill="#000033"/>
<rect x="1306" y="25" width="48" height="48" rx="24" fill="#FC992A"/>
<path d="M1333.71 49.7101C1334.69 48.9388 1335.41 47.881 1335.76 46.6841C1336.11 45.4871 1336.08 44.2104 1335.67 43.0316C1335.26 41.8528 1334.5 40.8305 1333.48 40.107C1332.46 39.3834 1331.25 38.9946 1330 38.9946C1328.75 38.9946 1327.54 39.3834 1326.52 40.107C1325.5 40.8305 1324.74 41.8528 1324.33 43.0316C1323.92 44.2104 1323.89 45.4871 1324.24 46.6841C1324.59 47.881 1325.31 48.9388 1326.29 49.7101C1324.61 50.3832 1323.14 51.4995 1322.05 52.94C1320.95 54.3806 1320.27 56.0914 1320.07 57.8901C1320.06 58.0214 1320.07 58.1543 1320.1 58.2812C1320.14 58.408 1320.2 58.5264 1320.29 58.6294C1320.45 58.8376 1320.7 58.971 1320.96 59.0001C1321.23 59.0293 1321.49 58.9519 1321.7 58.785C1321.91 58.6181 1322.04 58.3753 1322.07 58.1101C1322.29 56.1553 1323.22 54.3499 1324.69 53.0389C1326.16 51.7279 1328.05 51.0032 1330.02 51.0032C1331.99 51.0032 1333.89 51.7279 1335.35 53.0389C1336.82 54.3499 1337.75 56.1553 1337.97 58.1101C1338 58.3558 1338.11 58.5828 1338.3 58.7471C1338.48 58.9115 1338.72 59.0016 1338.97 59.0001H1339.08C1339.34 58.97 1339.58 58.8374 1339.75 58.6314C1339.91 58.4253 1339.99 58.1625 1339.96 57.9001C1339.76 56.0963 1339.07 54.3811 1337.97 52.9383C1336.87 51.4955 1335.4 50.3796 1333.71 49.7101ZM1330 49.0001C1329.21 49.0001 1328.44 48.7655 1327.78 48.326C1327.12 47.8865 1326.61 47.2618 1326.3 46.5309C1326 45.8 1325.92 44.9957 1326.08 44.2198C1326.23 43.4438 1326.61 42.7311 1327.17 42.1717C1327.73 41.6123 1328.44 41.2313 1329.22 41.077C1330 40.9226 1330.8 41.0019 1331.53 41.3046C1332.26 41.6074 1332.89 42.12 1333.33 42.7778C1333.77 43.4356 1334 44.209 1334 45.0001C1334 46.061 1333.58 47.0784 1332.83 47.8286C1332.08 48.5787 1331.06 49.0001 1330 49.0001Z" fill="#000033"/>
</g>
<defs>
<filter id="filter0_dd_75_14" x="-10" y="-9" width="1460" height="118" filterUnits="userSpaceOnUse" color-interpolation-filters="sRGB">
<feFlood flood-opacity="0" result="BackgroundImageFix"/>
<feColorMatrix in="SourceAlpha" type="matrix" values="0 0 0 0 0 0 0 0 0 0 0 0 0 0 0 0 0 0 127 0" result="hardAlpha"/>
<feOffset dy="1"/>
<feGaussianBlur stdDeviation="5"/>
<feComposite in2="hardAlpha" operator="out"/>
<feColorMatrix type="matrix" values="0 0 0 0 0 0 0 0 0 0 0 0 0 0 0 0 0 0 0.25 0"/>
<feBlend mode="normal" in2="BackgroundImageFix" result="effect1_dropShadow_75_14"/>
<feColorMatrix in="SourceAlpha" type="matrix" values="0 0 0 0 0 0 0 0 0 0 0 0 0 0 0 0 0 0 127 0" result="hardAlpha"/>
<feOffset dy="4"/>
<feGaussianBlur stdDeviation="2"/>
<feComposite in2="hardAlpha" operator="out"/>
<feColorMatrix type="matrix" values="0 0 0 0 0 0 0 0 0 0 0 0 0 0 0 0 0 0 0.25 0"/>
<feBlend mode="normal" in2="effect1_dropShadow_75_14" result="effect2_dropShadow_75_14"/>
<feBlend mode="normal" in="SourceGraphic" in2="effect2_dropShadow_75_14" result="shape"/>
</filter>
<linearGradient id="paint0_linear_75_14" x1="172.672" y1="29" x2="185.257" y2="81.6151" gradientUnits="userSpaceOnUse">
<stop stop-color="#FB8500"/>
<stop offset="1" stop-color="#000080"/>
</linearGradient>
<linearGradient id="paint1_linear_75_14" x1="86" y1="31.6282" x2="92.361" y2="73.8426" gradientUnits="userSpaceOnUse">
<stop stop-color="#FB8500"/>
<stop offset="1" stop-color="#000080"/>
</linearGradient>
<linearGradient id="paint2_linear_75_14" x1="86" y1="31.6282" x2="92.361" y2="73.8426" gradientUnits="userSpaceOnUse">
<stop stop-color="#FB8500"/>
<stop offset="1" stop-color="#000080"/>
</linearGradient>
<linearGradient id="paint3_linear_75_14" x1="86" y1="31.6282" x2="92.361" y2="73.8426" gradientUnits="userSpaceOnUse">
<stop stop-color="#FB8500"/>
<stop offset="1" stop-color="#000080"/>
</linearGradient>
<linearGradient id="paint4_linear_75_14" x1="86" y1="31.6282" x2="92.361" y2="73.8426" gradientUnits="userSpaceOnUse">
<stop stop-color="#FB8500"/>
<stop offset="1" stop-color="#000080"/>
</linearGradient>
</defs>
</svg>
