<svg width="100" height="100" viewBox="0 0 100 100" fill="none" xmlns="http://www.w3.org/2000/svg">
<path d="M38.5 33.5C38.2 33.5 38 33.7 38 34V35.5996C37.1 35.7996 36.5 36.6 36.5 37.5V39V39.5V44.5H36C35.7 44.5 35.5 44.7 35.5 45V48.5H21C20.7 48.5 20.5 48.7 20.5 49V52C20.5 52.3 20.7 52.5 21 52.5H21.5V56.5H19C18.8 56.5 18.6996 56.5992 18.5996 56.6992C18.4996 56.7992 18.5 56.9992 18.5 57.1992L19.5 60.1992C19.6 60.3992 19.8 60.5 20 60.5H21.5V81.5H19C18.7 81.5 18.5 81.7 18.5 82C18.5 82.3 18.7 82.5 19 82.5H22H27.5H31.5H36H41H59H64H68.5H72.5H78H81C81.3 82.5 81.5 82.3 81.5 82C81.5 81.7 81.3 81.5 81 81.5H78.5V60.5H80C80.2 60.5 80.4 60.3992 80.5 60.1992L81.5 57.1992C81.6 56.9992 81.5004 56.8992 81.4004 56.6992C81.3004 56.5992 81.2 56.5 81 56.5H78.5V52.5H79C79.3 52.5 79.5 52.3 79.5 52V49C79.5 48.7 79.3 48.5 79 48.5H64.5V45C64.5 44.7 64.3 44.5 64 44.5H63.5V39.5V39V37.5C63.5 36.6 62.9 35.7996 62 35.5996V34C62 33.7 61.8 33.5 61.5 33.5C61.2 33.5 61 33.7 61 34V35.5996C60.1 35.7996 59.5 36.6 59.5 37.5V39V39.5V41.5H40.5V39.5V39V37.5C40.5 36.6 39.9 35.7996 39 35.5996V34C39 33.7 38.8 33.5 38.5 33.5ZM38.5 36.5C39.1 36.5 39.5 36.9 39.5 37.5V38.5H37.5V37.5C37.5 36.9 37.9 36.5 38.5 36.5ZM61.5 36.5C62.1 36.5 62.5 36.9 62.5 37.5V38.5H60.5V37.5C60.5 36.9 60.9 36.5 61.5 36.5ZM37.5 39.5H39.5V44.5H37.5V39.5ZM60.5 39.5H62.5V44.5H60.5V39.5ZM40.5 42.5H59.5V44.5H59.3008H59H41H40.5V42.5ZM36.5 45.5H37H40H40.5V51.5H36.5V49V45.5ZM41.5 45.5H58.5V51.5H41.5V45.5ZM59.5 45.5H60H63H63.5V51.5H59.5V45.5ZM21.5 49.5H35.5V51.5H22H21.5V49.5ZM64.5 49.5H78.5V51.5H78H64.5V49.5ZM22.5 52.5H35.5V56.5H22.5V52.5ZM36.5 52.5H40.5V56.5H36.5V52.5ZM41.5 52.5H43.5V56.5H41.5V52.5ZM44.5 52.5H46.5V56.5H44.5V52.5ZM47.5 52.5H49.5V56.5H47.5V52.5ZM50.5 52.5H52.5V56.5H50.5V52.5ZM53.5 52.5H55.5V56.5H53.5V52.5ZM56.5 52.5H58.5V56.5H56.5V52.5ZM59.5 52.5H63.5V56.5H59.5V52.5ZM64.5 52.5H77.5V56.5H64.5V52.5ZM19.6992 57.5H35.5V59.5H20.4004L19.6992 57.5ZM36.5 57.5H40.5V59.5H36.5V57.5ZM41.5 57.5H58.5V81.5H57.5V70.5C57.5 67.2 55.8004 64.1008 52.9004 62.3008L50.1992 60.5996C49.9992 60.4996 49.7992 60.4996 49.6992 60.5996L47 62.3008C44.2 64.1008 42.5 67.1996 42.5 70.5996V81.5H41.5V57.5ZM59.5 57.5H63.5V59.5H59.5V57.5ZM64.5 57.5H80.3008L79.5996 59.5H64.5V57.5ZM22.4004 60.5H22.5H35.5V81.5H34V70.0996C34 67.3996 32.5 65.0008 30 63.8008C29.7 63.6008 29.3004 63.6008 28.9004 63.8008C26.5004 65.0008 25.0004 67.3996 24.9004 70.0996V81.5H22.4004V60.5ZM36.5 60.5H40.5V81.5H36.5V60.5ZM59.5 60.5H63.5V81.5H59.5V60.5ZM64.4004 60.5H77.4004V81.5H75V70.0996C75 67.3996 73.5 64.9992 71 63.6992C70.7 63.4992 70.3004 63.4992 69.9004 63.6992C67.5004 64.8992 65.9004 67.3996 65.9004 70.0996V81.5H64.4004V60.5ZM50 61.5996L52.4004 63.0996C55.0004 64.6996 56.5 67.4996 56.5 70.5996V81.5996H43.5V81.5V70.5996C43.5 67.5996 44.9996 64.7992 47.5996 63.1992L50 61.5996ZM29.4004 64.5H29.5996C31.4996 65.5 32.8 67.3 33 69.5H26C26.2 67.4 27.4004 65.5 29.4004 64.5ZM70.4004 64.5H70.5996C72.4996 65.5 73.8 67.3 74 69.5H67C67.2 67.4 68.4004 65.5 70.4004 64.5ZM26 70.5H33V81.5H32V75C32 72.4 29.7992 71.6 29.6992 71.5H29.4004C29.3004 71.5 27 72.4 27 75V81.5H26V70.5ZM67 70.5H74V81.5H73V75C73 72.4 70.7992 71.6 70.6992 71.5H70.4004C70.3004 71.5 68 72.4 68 75V81.5H67V70.5ZM29.5 72.5C30 72.8 31 73.5 31 75V81.5H28V75C28 73.5 29.1 72.8 29.5 72.5ZM70.5 72.5C71 72.8 72 73.5 72 75V81.5H69V75C69 73.5 70.1 72.8 70.5 72.5Z" fill="#FCAE55"/>
</svg>
