<svg width="100" height="100" viewBox="0 0 100 100" fill="none" xmlns="http://www.w3.org/2000/svg">
<path d="M49.5996 23.9004C49.2996 23.9004 49.0996 24.1004 49.0996 24.4004V26.0996L47.5996 26.9004C46.9996 27.2004 46.6004 27.7008 46.4004 28.3008C46.2004 28.0008 45.9992 27.7996 45.6992 27.5996L44.9004 27C44.7004 26.9 44.5008 26.9 44.3008 27L43.5 27.5996C42.6 28.1996 42.0996 29.3004 42.0996 30.4004C41.8996 30.2004 41.8 30.1 41.5 30L40 29.1992V27.5C40 27.2 39.8 27 39.5 27C39.2 27 39 27.2 39 27.5V29.1992L37.5 30C36.7 30.5 36.2 31.1996 36 32.0996C35.9 31.8996 35.7 31.7996 35.5 31.5996L34.6992 31C34.4992 30.9 34.2996 30.9 34.0996 31L33.3008 31.5996C32.4008 32.2996 31.9004 33.3004 31.9004 34.4004V35L31.5 34.5996L30.6992 34C30.4992 33.9 30.2996 33.9 30.0996 34L29.3008 34.5996C28.4008 35.2996 27.9004 36.3004 27.9004 37.4004V40.4004C27.7004 40.2004 27.6004 40.1 27.4004 40L25.9004 39.1992V37.5C25.9004 37.2 25.7004 37 25.4004 37C25.1004 37 24.9004 37.2 24.9004 37.5V39.1992L23.4004 40C22.4004 40.5 21.9004 41.5992 21.9004 42.6992V45.0996L21.5 44.6992L20.6992 44.0996C20.4992 43.9996 20.2996 43.9996 20.0996 44.0996L19.3008 44.6992C18.4008 45.3992 17.9004 46.4 17.9004 47.5V54.5V61.5V66.5V68.5V82H16.4004C16.1004 82 15.9004 82.2 15.9004 82.5C15.9004 82.8 16.1004 83 16.4004 83H18.3008H18.4004H22.4004H28.4004H32.4004H36.4004H42.4004H46.4004H52.4004H56.4004H62.4004H66.4004H70.4004H76.4004H80.4004H80.5H82.4004C82.7004 83 82.9004 82.8 82.9004 82.5C82.9004 82.2 83.1008 82 82.8008 82H81.3008V68.5V66.5V61.5V54.5V47.5C81.3008 46.4 80.8004 45.3992 79.9004 44.6992L79.0996 44.0996C78.8996 43.9996 78.7 43.9996 78.5 44.0996L77.6992 44.6992C77.5992 44.7992 77.4008 44.8996 77.3008 45.0996V42.6992C77.3008 41.5992 76.7008 40.6 75.8008 40L74.3008 39.1992V37.5C74.3008 37.2 74.1008 37 73.8008 37C73.5008 37 73.3008 37.2 73.3008 37.5V39.1992L71.8008 40C71.6008 40.1 71.4008 40.3004 71.3008 40.4004V37.4004C71.3008 36.3004 70.8004 35.2996 69.9004 34.5996L69.0996 34C68.8996 33.9 68.7 33.9 68.5 34L67.6992 34.5996C67.5992 34.6996 67.4008 34.8 67.3008 35V34.4004C67.3008 33.3004 66.8004 32.2996 65.9004 31.5996L65.0996 31C64.8996 30.9 64.7 30.9 64.5 31L63.6992 31.5996C63.4992 31.6996 63.3992 31.8996 63.1992 32.0996C62.9992 31.1996 62.4992 30.4 61.6992 30L60.1992 29.1992V27.5C60.1992 27.2 59.9992 27 59.6992 27C59.3992 27 59.1992 27.2 59.1992 27.5V29.1992L57.6992 30C57.4992 30.1 57.2996 30.3004 57.0996 30.4004C57.0996 29.3004 56.5992 28.2996 55.6992 27.5996L54.9004 27C54.7004 26.9 54.5008 26.9 54.3008 27L53.5 27.5996C53.2 27.7996 53.0008 28.1008 52.8008 28.3008C52.5008 27.7008 52.0996 27.2004 51.5996 26.9004L50.0996 26.0996V24.4004C50.0996 24.1004 49.8996 23.9004 49.5996 23.9004ZM49.8008 27.0996L51.3008 27.9004C51.9008 28.3004 52.3008 28.9992 52.3008 29.6992V30.5V35.0996V37.5C52.1008 37.3 52.0008 37.1996 51.8008 37.0996L50.0996 36.0996C49.8996 35.9996 49.7996 35.9996 49.5996 36.0996L47.9004 37.0996C47.7004 37.1996 47.5004 37.4 47.4004 37.5V35.0996V30.5V29.6992H47.3008C47.3008 28.9992 47.7008 28.3004 48.3008 27.9004L49.8008 27.0996ZM49.75 28.0254C49.675 28.0254 49.6 28.0496 49.5 28.0996L49 28.4004C48.6 28.6004 48.3008 29.0996 48.3008 29.5996V31.5C48.3008 31.8 48.5008 32 48.8008 32H50.8008C51.1008 32 51.3008 31.8 51.3008 31.5V29.5996C51.3008 29.0996 50.9996 28.7004 50.5996 28.4004L50 28.0996C49.9 28.0496 49.825 28.0254 49.75 28.0254ZM44.8008 28.0996L45.3008 28.5C45.9008 29 46.3008 29.7 46.3008 30.5V35.0996V38.0996L45.9004 37.6992L45.0996 37.0996C44.8996 36.9996 44.7 36.9996 44.5 37.0996L43.6992 37.6992C43.5992 37.7992 43.4008 37.8996 43.3008 38.0996V37.5V32.6992V30.5C43.3008 29.7 43.7008 29 44.3008 28.5L44.8008 28.0996ZM54.8008 28.0996L55.3008 28.5C55.9008 29 56.3008 29.7 56.3008 30.5V32.6992V38.0996L55.9004 37.6992L55.0996 37.0996C54.8996 36.9996 54.7 36.9996 54.5 37.0996L53.6992 37.6992C53.5992 37.7992 53.4008 37.8996 53.3008 38.0996V35.0996V30.5C53.3008 29.7 53.7008 29 54.3008 28.5L54.8008 28.0996ZM49.8008 29.0996L50.0996 29.3008C50.1996 29.4008 50.3008 29.4996 50.3008 29.5996V31H49.3008V29.5996C49.3008 29.4996 49.4 29.4008 49.5 29.3008L49.8008 29.0996ZM44.8008 30C44.5008 30 44.3008 30.2 44.3008 30.5V35.5C44.3008 35.8 44.5008 36 44.8008 36C45.1008 36 45.3008 35.8 45.3008 35.5V30.5C45.3008 30.2 45.1008 30 44.8008 30ZM54.8008 30C54.5008 30 54.3008 30.2 54.3008 30.5V35.5C54.3008 35.8 54.5008 36 54.8008 36C55.1008 36 55.3008 35.8 55.3008 35.5V30.5C55.3008 30.2 55.1008 30 54.8008 30ZM39.8008 30.0996L41.3008 30.9004C41.9008 31.3004 42.3008 31.9992 42.3008 32.6992V37.5V39.5C42.1008 39.3 42.0008 39.1996 41.8008 39.0996L40.0996 38.0996C39.8996 37.9996 39.7996 37.9996 39.5996 38.0996L37.9004 39.0996C37.7004 39.1996 37.5004 39.4 37.4004 39.5V38.0996V34.5V32.6992H37.3008C37.3008 31.9992 37.7008 31.3004 38.3008 30.9004L39.8008 30.0996ZM59.8008 30.0996L61.3008 30.9004C61.9008 31.3004 62.3008 31.9992 62.3008 32.6992V34.5V38.0996V39.5C62.1008 39.3 62.0008 39.1996 61.8008 39.0996L60.0996 38.0996C59.8996 37.9996 59.7996 37.9996 59.5996 38.0996L57.9004 39.0996C57.7004 39.1996 57.5004 39.4 57.4004 39.5V38.0996V32.6992C57.3004 31.9992 57.7008 31.3004 58.3008 30.9004L59.8008 30.0996ZM39.75 31.0254C39.675 31.0254 39.6 31.0496 39.5 31.0996L39 31.4004C38.6 31.6004 38.3008 32.0996 38.3008 32.5996V34.5C38.3008 34.8 38.5008 35 38.8008 35H40.8008C41.1008 35 41.3008 34.8 41.3008 34.5V32.5996C41.3008 32.0996 40.9996 31.7004 40.5996 31.4004L40 31.0996C39.9 31.0496 39.825 31.0254 39.75 31.0254ZM59.75 31.0254C59.675 31.0254 59.6 31.0496 59.5 31.0996L59 31.4004C58.6 31.6004 58.3008 32.0996 58.3008 32.5996V34.5C58.3008 34.8 58.5008 35 58.8008 35H60.8008C61.1008 35 61.3008 34.8 61.3008 34.5V32.5996C61.3008 32.0996 60.9996 31.7004 60.5996 31.4004L60 31.0996C59.9 31.0496 59.825 31.0254 59.75 31.0254ZM34.8008 32.0996L35.3008 32.5C35.9008 33 36.3008 33.7 36.3008 34.5V38.0996V41.0996L35.9004 40.6992L35.0996 40.0996C34.8996 39.9996 34.7 39.9996 34.5 40.0996L33.6992 40.6992C33.5992 40.7992 33.4008 40.8996 33.3008 41.0996V37.5V34.5C33.3008 33.7 33.7008 33 34.3008 32.5L34.8008 32.0996ZM39.8008 32.0996L40.0996 32.3008C40.1996 32.4008 40.3008 32.4996 40.3008 32.5996V34H39.3008V32.5996C39.3008 32.4996 39.4 32.4008 39.5 32.3008L39.8008 32.0996ZM59.8008 32.0996L60.0996 32.3008C60.1996 32.4008 60.3008 32.4996 60.3008 32.5996V34H59.3008V32.5996C59.3008 32.4996 59.4 32.4008 59.5 32.3008L59.8008 32.0996ZM64.8008 32.0996L65.3008 32.5C65.9008 33 66.3008 33.7 66.3008 34.5V37.5V41.0996L65.9004 40.6992L65.0996 40.0996C64.8996 39.9996 64.7 39.9996 64.5 40.0996L63.6992 40.6992C63.5992 40.7992 63.4008 40.8996 63.3008 41.0996V38.0996V34.5C63.3008 33.7 63.7008 33 64.3008 32.5L64.8008 32.0996ZM34.8008 34C34.5008 34 34.3008 34.2 34.3008 34.5V38.5C34.3008 38.8 34.5008 39 34.8008 39C35.1008 39 35.3008 38.8 35.3008 38.5V34.5C35.3008 34.2 35.1008 34 34.8008 34ZM64.8008 34C64.5008 34 64.3008 34.2 64.3008 34.5V38.5C64.3008 38.8 64.5008 39 64.8008 39C65.1008 39 65.3008 38.8 65.3008 38.5V34.5C65.3008 34.2 65.1008 34 64.8008 34ZM30.8008 35.0996L31.3008 35.5C31.9008 36 32.3008 36.7 32.3008 37.5V41.5V42.0996L31.9004 41.6992L31.0996 41.0996C30.8996 40.9996 30.7 40.9996 30.5 41.0996L29.6992 41.6992C29.5992 41.7992 29.4008 41.8996 29.3008 42.0996V37.5C29.3008 36.7 29.7008 36 30.3008 35.5L30.8008 35.0996ZM68.8008 35.0996L69.3008 35.5C69.9008 36 70.3008 36.7 70.3008 37.5V42.0996L69.9004 41.6992L69.0996 41.0996C68.8996 40.9996 68.7 40.9996 68.5 41.0996L67.6992 41.6992C67.5992 41.7992 67.4008 41.8996 67.3008 42.0996V41.5V37.5C67.3008 36.7 67.7008 36 68.3008 35.5L68.8008 35.0996ZM30.8008 37C30.5008 37 30.3008 37.2 30.3008 37.5V39.5C30.3008 39.8 30.5008 40 30.8008 40C31.1008 40 31.3008 39.8 31.3008 39.5V37.5C31.3008 37.2 31.1008 37 30.8008 37ZM68.8008 37C68.5008 37 68.3008 37.2 68.3008 37.5V39.5C68.3008 39.8 68.5008 40 68.8008 40C69.1008 40 69.3008 39.8 69.3008 39.5V37.5C69.3008 37.2 69.1008 37 68.8008 37ZM49.9004 37.0996L51.4004 37.9004C52.0004 38.3004 52.4004 38.9992 52.4004 39.6992V40.5H52.3008V41.5V45.0996V47.5C52.1008 47.3 52.0008 47.1996 51.8008 47.0996L50.0996 46.0996C49.8996 45.9996 49.7996 45.9996 49.5996 46.0996L47.9004 47.0996C47.7004 47.1996 47.5004 47.4 47.4004 47.5V45.0996V40.5V39.6992C47.4004 38.9992 47.8004 38.3004 48.4004 37.9004L49.9004 37.0996ZM49.75 38.0254C49.675 38.0254 49.6 38.0496 49.5 38.0996L49 38.4004C48.6 38.6004 48.3008 39.0996 48.3008 39.5996V41.5C48.3008 41.8 48.5008 42 48.8008 42H50.8008C51.1008 42 51.3008 41.8 51.3008 41.5V39.5996C51.3008 39.0996 50.9996 38.6004 50.5996 38.4004L50 38.0996C49.9 38.0496 49.825 38.0254 49.75 38.0254ZM44.8008 38.0996L45.3008 38.5C45.9008 39 46.3008 39.7 46.3008 40.5V45.0996V47.0996L45.9004 46.6992L45.0996 46.0996C44.8996 45.9996 44.7 45.9996 44.5 46.0996L43.6992 46.6992C43.5992 46.7992 43.4008 46.8996 43.3008 47.0996V41.6992V41.0996V40.5C43.3008 39.7 43.7008 39 44.3008 38.5L44.8008 38.0996ZM54.8008 38.0996L55.3008 38.5C55.9008 39 56.3008 39.7 56.3008 40.5V41.5V41.6992V47.0996L55.9004 46.6992L55.0996 46.0996C54.8996 45.9996 54.7 45.9996 54.5 46.0996L53.6992 46.6992C53.5992 46.7992 53.4008 46.8996 53.3008 47.0996V45.0996V41.5V40.5C53.3008 39.7 53.7008 39 54.3008 38.5L54.8008 38.0996ZM39.9004 39.0996L41.4004 39.9004C42.0004 40.3004 42.4004 40.9992 42.4004 41.6992V47.0996H42.3008V48.5C42.1008 48.3 42.0008 48.1996 41.8008 48.0996L40.0996 47.0996C39.8996 46.9996 39.7996 46.9996 39.5996 47.0996L37.9004 48.0996C37.7004 48.1996 37.5004 48.4 37.4004 48.5V47.0996V43.5V41.6992C37.4004 40.9992 37.8004 40.3004 38.4004 39.9004L39.9004 39.0996ZM49.8008 39.0996L50.0996 39.3008C50.1996 39.4008 50.3008 39.4996 50.3008 39.5996V41H49.3008V39.5996C49.3008 39.4996 49.4 39.4008 49.5 39.3008L49.8008 39.0996ZM59.9004 39.0996L61.4004 39.9004C62.0004 40.3004 62.4004 40.9992 62.4004 41.6992V43.5H62.3008V47.0996V48.5C62.1008 48.3 62.0008 48.1996 61.8008 48.0996L60.0996 47.0996C59.8996 46.9996 59.7996 46.9996 59.5996 47.0996L57.9004 48.0996C57.7004 48.1996 57.5004 48.4 57.4004 48.5V47.0996V41.6992C57.4004 40.9992 57.8004 40.3004 58.4004 39.9004L59.9004 39.0996ZM44.8008 40C44.5008 40 44.3008 40.2 44.3008 40.5V44.5C44.3008 44.8 44.5008 45 44.8008 45C45.1008 45 45.3008 44.8 45.3008 44.5V40.5C45.3008 40.2 45.1008 40 44.8008 40ZM54.8008 40C54.5008 40 54.3008 40.2 54.3008 40.5V44.5C54.3008 44.8 54.5008 45 54.8008 45C55.1008 45 55.3008 44.8 55.3008 44.5V40.5C55.3008 40.2 55.1008 40 54.8008 40ZM39.75 40.0254C39.675 40.0254 39.6 40.0496 39.5 40.0996L39 40.4004C38.6 40.6004 38.3008 41.0996 38.3008 41.5996V43.5C38.3008 43.8 38.5008 44 38.8008 44H40.8008C41.1008 44 41.3008 43.8 41.3008 43.5V41.5996C41.3008 41.0996 40.9996 40.6004 40.5996 40.4004L40 40.0996C39.9 40.0496 39.825 40.0254 39.75 40.0254ZM59.75 40.0254C59.675 40.0254 59.6 40.0496 59.5 40.0996L59 40.4004C58.6 40.6004 58.3008 41.0996 58.3008 41.5996V43.5C58.3008 43.8 58.5008 44 58.8008 44H60.8008C61.1008 44 61.3008 43.8 61.3008 43.5V41.5996C61.3008 41.0996 60.9996 40.6004 60.5996 40.4004L60 40.0996C59.9 40.0496 59.825 40.0254 59.75 40.0254ZM25.8008 40.0996L27.3008 40.9004C27.9008 41.3004 28.3008 41.9992 28.3008 42.6992V44.5C28.1008 44.3 28.0008 44.1996 27.8008 44.0996L26.0996 43.0996C25.8996 42.9996 25.7996 42.9996 25.5996 43.0996L23.9004 44.0996C23.7004 44.1996 23.5004 44.4 23.4004 44.5V42.6992C23.3004 41.9992 23.7008 41.3004 24.3008 40.9004L25.8008 40.0996ZM73.8008 40.0996L75.3008 40.9004C75.9008 41.3004 76.3008 41.9992 76.3008 42.6992V44.5C76.1008 44.3 76.0008 44.1996 75.8008 44.0996L74.0996 43.0996C73.8996 42.9996 73.7996 42.9996 73.5996 43.0996L71.9004 44.0996C71.7004 44.1996 71.5004 44.4 71.4004 44.5V42.6992C71.3004 41.9992 71.7008 41.3004 72.3008 40.9004L73.8008 40.0996ZM34.8008 41.0996L35.3008 41.5C35.9008 42 36.3008 42.7 36.3008 43.5V47.0996V49.0996L35.9004 48.6992L35.0996 48.0996C34.8996 47.9996 34.7 47.9996 34.5 48.0996L33.6992 48.6992C33.5992 48.7992 33.4008 48.8996 33.3008 49.0996V44.5V43.5C33.3008 42.7 33.7008 42 34.3008 41.5L34.8008 41.0996ZM39.8008 41.0996L40.0996 41.3008C40.1996 41.4008 40.3008 41.4996 40.3008 41.5996V43H39.3008V41.5996C39.3008 41.4996 39.4 41.4008 39.5 41.3008L39.8008 41.0996ZM59.8008 41.0996L60.0996 41.3008C60.1996 41.4008 60.3008 41.4996 60.3008 41.5996V43H59.3008V41.5996C59.3008 41.4996 59.4 41.4008 59.5 41.3008L59.8008 41.0996ZM64.8008 41.0996L65.3008 41.5C65.9008 42 66.3008 42.7 66.3008 43.5V44.5V49.0996L65.9004 48.6992L65.0996 48.0996C64.8996 47.9996 64.7 47.9996 64.5 48.0996L63.6992 48.6992C63.5992 48.7992 63.4008 48.8996 63.3008 49.0996V47.0996V43.5C63.3008 42.7 63.7008 42 64.3008 41.5L64.8008 41.0996ZM30.8008 42.0996L31.3008 42.5C31.9008 43 32.3008 43.7 32.3008 44.5V50.0996L31.9004 49.6992L31.0996 49.0996C30.8996 48.9996 30.7 48.9996 30.5 49.0996L29.6992 49.6992C29.5992 49.7992 29.4008 49.8996 29.3008 50.0996V48.0996V46.6992V44.5C29.3008 43.7 29.7008 43 30.3008 42.5L30.8008 42.0996ZM68.8008 42.0996L69.3008 42.5C69.9008 43 70.3008 43.7 70.3008 44.5V46.6992V48.0996V50.0996L69.9004 49.6992L69.0996 49.0996C68.8996 48.9996 68.7 48.9996 68.5 49.0996L67.6992 49.6992C67.5992 49.7992 67.4008 49.8996 67.3008 50.0996V44.5C67.3008 43.7 67.7008 43 68.3008 42.5L68.8008 42.0996ZM34.8008 43C34.5008 43 34.3008 43.2 34.3008 43.5V46.5C34.3008 46.8 34.5008 47 34.8008 47C35.1008 47 35.3008 46.8 35.3008 46.5V43.5C35.3008 43.2 35.1008 43 34.8008 43ZM64.8008 43C64.5008 43 64.3008 43.2 64.3008 43.5V46.5C64.3008 46.8 64.5008 47 64.8008 47C65.1008 47 65.3008 46.8 65.3008 46.5V43.5C65.3008 43.2 65.1008 43 64.8008 43ZM30.8008 44C30.5008 44 30.3008 44.2 30.3008 44.5V47.5C30.3008 47.8 30.5008 48 30.8008 48C31.1008 48 31.3008 47.8 31.3008 47.5V44.5C31.3008 44.2 31.1008 44 30.8008 44ZM68.8008 44C68.5008 44 68.3008 44.2 68.3008 44.5V47.5C68.3008 47.8 68.5008 48 68.8008 48C69.1008 48 69.3008 47.8 69.3008 47.5V44.5C69.3008 44.2 69.1008 44 68.8008 44ZM25.8008 44.0996L27.3008 44.9004C27.9008 45.3004 28.3008 45.9992 28.3008 46.6992V48.0996V51.5C28.1008 51.3 28.0008 51.1996 27.8008 51.0996L26.0996 50.0996C25.8996 49.9996 25.7996 49.9996 25.5996 50.0996L23.9004 51.0996C23.7004 51.1996 23.5004 51.4 23.4004 51.5V48.0996V47.5V46.6992H23.3008C23.3008 45.9992 23.7008 45.3004 24.3008 44.9004L25.8008 44.0996ZM73.9004 44.0996L75.4004 44.9004C76.0004 45.3004 76.4004 45.9992 76.4004 46.6992V47.5H76.3008V48.0996V51.5C76.1008 51.3 76.0008 51.1996 75.8008 51.0996L74.0996 50.0996C73.8996 49.9996 73.7996 49.9996 73.5996 50.0996L71.9004 51.0996C71.7004 51.1996 71.5004 51.4 71.4004 51.5V48.0996V46.6992C71.4004 45.9992 71.8004 45.3004 72.4004 44.9004L73.9004 44.0996ZM25.75 45.0254C25.675 45.0254 25.6 45.0496 25.5 45.0996L25 45.4004C24.6 45.6004 24.3008 46.0996 24.3008 46.5996V48.5C24.3008 48.8 24.5008 49 24.8008 49H26.8008C27.1008 49 27.3008 48.8 27.3008 48.5V46.5996C27.3008 46.0996 26.9996 45.7004 26.5996 45.4004L26 45.0996C25.9 45.0496 25.825 45.0254 25.75 45.0254ZM73.75 45.0254C73.675 45.0254 73.6 45.0496 73.5 45.0996L73 45.4004C72.6 45.6004 72.3008 46.0996 72.3008 46.5996V48.5C72.3008 48.8 72.5008 49 72.8008 49H74.8008C75.1008 49 75.3008 48.8 75.3008 48.5V46.5996C75.3008 46.0996 74.9996 45.6004 74.5996 45.4004L74 45.0996C73.9 45.0496 73.825 45.0254 73.75 45.0254ZM20.8008 45.0996L21.3008 45.5C21.9008 46 22.3008 46.7 22.3008 47.5V48.0996V52.0996L21.9004 51.6992L21.0996 51.0996C20.8996 50.9996 20.7 50.9996 20.5 51.0996L19.6992 51.6992C19.5992 51.7992 19.4008 51.8996 19.3008 52.0996V47.5C19.3008 46.7 19.7008 46 20.3008 45.5L20.8008 45.0996ZM78.8008 45.0996L79.3008 45.5C79.9008 46 80.3008 46.7 80.3008 47.5V52.0996L79.9004 51.6992L79.0996 51.0996C78.8996 50.9996 78.7 50.9996 78.5 51.0996L77.6992 51.6992C77.5992 51.7992 77.4008 51.8996 77.3008 52.0996V48.0996V47.5C77.3008 46.7 77.7008 46 78.3008 45.5L78.8008 45.0996ZM25.8008 46.0996L26.0996 46.3008C26.1996 46.4008 26.3008 46.4996 26.3008 46.5996V48H25.3008V46.5996C25.3008 46.4996 25.4 46.4008 25.5 46.3008L25.8008 46.0996ZM73.8008 46.0996L74.0996 46.3008C74.1996 46.4008 74.3008 46.4996 74.3008 46.5996V48H73.3008V46.5996C73.3008 46.4996 73.4 46.4008 73.5 46.3008L73.8008 46.0996ZM20.8008 47C20.5008 47 20.3008 47.2 20.3008 47.5V49.5C20.3008 49.8 20.5008 50 20.8008 50C21.1008 50 21.3008 49.8 21.3008 49.5V47.5C21.3008 47.2 21.1008 47 20.8008 47ZM78.8008 47C78.5008 47 78.3008 47.2 78.3008 47.5V49.5C78.3008 49.8 78.5008 50 78.8008 50C79.1008 50 79.3008 49.8 79.3008 49.5V47.5C79.3008 47.2 79.1008 47 78.8008 47ZM44.8008 47.0996L45.3008 47.5C45.9008 48 46.3008 48.7 46.3008 49.5V49.6992V50.5V55.0996V57.0996L45.9004 56.6992L45.0996 56.0996C44.8996 55.9996 44.7 55.9996 44.5 56.0996L43.6992 56.6992C43.5992 56.7992 43.4008 56.8996 43.3008 57.0996V56.0996V50.6992V50.5V49.5C43.3008 48.7 43.7008 48 44.3008 47.5L44.8008 47.0996ZM49.9004 47.0996L51.4004 47.9004C52.0004 48.3004 52.4004 48.9992 52.4004 49.6992V55.0996H52.3008V57.5C52.1008 57.3 52.0008 57.1996 51.8008 57.0996L50.0996 56.0996C49.8996 55.9996 49.7996 55.9996 49.5996 56.0996L47.9004 57.0996C47.7004 57.1996 47.5004 57.4 47.4004 57.5V55.0996V50.5V49.6992C47.4004 48.9992 47.8004 48.3004 48.4004 47.9004L49.9004 47.0996ZM54.8008 47.0996L55.3008 47.5C55.9008 48 56.3008 48.7 56.3008 49.5V50.6992V56.0996V57.0996L55.9004 56.6992L55.0996 56.0996C54.8996 55.9996 54.7 55.9996 54.5 56.0996L53.6992 56.6992C53.5992 56.7992 53.4008 56.8996 53.3008 57.0996V55.0996V49.6992V49.5C53.3008 48.7 53.7008 48 54.3008 47.5L54.8008 47.0996ZM49.75 48.0254C49.675 48.0254 49.6 48.0496 49.5 48.0996L49 48.4004C48.6 48.6004 48.3008 49.0996 48.3008 49.5996V51.5C48.3008 51.8 48.5008 52 48.8008 52H50.8008C51.1008 52 51.3008 51.8 51.3008 51.5V49.5996C51.3008 49.0996 50.9996 48.6004 50.5996 48.4004L50 48.0996C49.9 48.0496 49.825 48.0254 49.75 48.0254ZM39.9004 48.0996L41.4004 48.9004C42.0004 49.3004 42.4004 49.9992 42.4004 50.6992V56.0996H42.3008V57.5C42.1008 57.3 42.0008 57.1996 41.8008 57.0996L40.0996 56.0996C39.8996 55.9996 39.7996 55.9996 39.5996 56.0996L37.9004 57.0996C37.7004 57.1996 37.5004 57.4 37.4004 57.5V56.0996V51.5V50.6992C37.4004 49.9992 37.8004 49.3004 38.4004 48.9004L39.9004 48.0996ZM59.9004 48.0996L61.4004 48.9004C62.0004 49.3004 62.4004 49.9992 62.4004 50.6992V51.5H62.3008V56.0996V57.5C62.1008 57.3 62.0008 57.1996 61.8008 57.0996L60.0996 56.0996C59.8996 55.9996 59.7996 55.9996 59.5996 56.0996L57.9004 57.0996C57.7004 57.1996 57.5004 57.4 57.4004 57.5V56.0996V50.6992C57.4004 49.9992 57.8004 49.3004 58.4004 48.9004L59.9004 48.0996ZM44.8008 49C44.5008 49 44.3008 49.2 44.3008 49.5V54.5C44.3008 54.8 44.5008 55 44.8008 55C45.1008 55 45.3008 54.8 45.3008 54.5V49.5C45.3008 49.2 45.1008 49 44.8008 49ZM54.8008 49C54.5008 49 54.3008 49.2 54.3008 49.5V54.5C54.3008 54.8 54.5008 55 54.8008 55C55.1008 55 55.3008 54.8 55.3008 54.5V49.5C55.3008 49.2 55.1008 49 54.8008 49ZM39.75 49.0254C39.675 49.0254 39.6 49.0496 39.5 49.0996L39 49.4004C38.6 49.6004 38.3008 50.0996 38.3008 50.5996V52.5C38.3008 52.8 38.5008 53 38.8008 53H40.8008C41.1008 53 41.3008 52.8 41.3008 52.5V50.5996C41.3008 50.0996 40.9996 49.6004 40.5996 49.4004L40 49.0996C39.9 49.0496 39.825 49.0254 39.75 49.0254ZM59.75 49.0254C59.675 49.0254 59.6 49.0496 59.5 49.0996L59 49.4004C58.6 49.6004 58.3008 50.0996 58.3008 50.5996V52.5C58.3008 52.8 58.5008 53 58.8008 53H60.8008C61.1008 53 61.3008 52.8 61.3008 52.5V50.5996C61.3008 50.0996 60.9996 49.6004 60.5996 49.4004L60 49.0996C59.9 49.0496 59.825 49.0254 59.75 49.0254ZM34.8008 49.0996L35.3008 49.5C35.9008 50 36.3008 50.7 36.3008 51.5V56.0996V57.0996L35.9004 56.6992L35.0996 56.0996C34.8996 55.9996 34.7 55.9996 34.5 56.0996L33.6992 56.6992C33.5992 56.7992 33.4008 56.8996 33.3008 57.0996V52.5V51.5C33.3008 50.7 33.7008 50 34.3008 49.5L34.8008 49.0996ZM49.8008 49.0996L50.0996 49.3008C50.1996 49.4008 50.3008 49.4996 50.3008 49.5996V51H49.3008V49.5996C49.3008 49.4996 49.4 49.4008 49.5 49.3008L49.8008 49.0996ZM64.8008 49.0996L65.3008 49.5C65.9008 50 66.3008 50.7 66.3008 51.5V52.5V57.0996L65.9004 56.6992L65.0996 56.0996C64.8996 55.9996 64.7 55.9996 64.5 56.0996L63.6992 56.6992C63.5992 56.7992 63.4008 56.8996 63.3008 57.0996V56.0996V51.5C63.3008 50.7 63.7008 50 64.3008 49.5L64.8008 49.0996ZM30.8008 50.0996L31.3008 50.5C31.9008 51 32.3008 51.7 32.3008 52.5V57.0996L31.9004 56.6992L31.0996 56.0996C30.8996 55.9996 30.7 55.9996 30.5 56.0996L29.6992 56.6992C29.5992 56.7992 29.4008 56.8996 29.3008 57.0996V53.6992V52.5C29.3008 51.7 29.7008 51 30.3008 50.5L30.8008 50.0996ZM39.8008 50.0996L40.0996 50.3008C40.1996 50.4008 40.3008 50.4996 40.3008 50.5996V52H39.3008V50.5996C39.3008 50.4996 39.4 50.4008 39.5 50.3008L39.8008 50.0996ZM59.8008 50.0996L60.0996 50.3008C60.1996 50.4008 60.3008 50.4996 60.3008 50.5996V52H59.3008V50.5996C59.3008 50.4996 59.4 50.4008 59.5 50.3008L59.8008 50.0996ZM68.8008 50.0996L69.3008 50.5C69.9008 51 70.3008 51.7 70.3008 52.5V53.6992V57.0996L69.9004 56.6992L69.0996 56.0996C68.8996 55.9996 68.7 55.9996 68.5 56.0996L67.6992 56.6992C67.5992 56.7992 67.4008 56.8996 67.3008 57.0996V52.5C67.3008 51.7 67.7008 51 68.3008 50.5L68.8008 50.0996ZM34.8008 51C34.5008 51 34.3008 51.2 34.3008 51.5V54.5C34.3008 54.8 34.5008 55 34.8008 55C35.1008 55 35.3008 54.8 35.3008 54.5V51.5C35.3008 51.2 35.1008 51 34.8008 51ZM64.8008 51C64.5008 51 64.3008 51.2 64.3008 51.5V54.5C64.3008 54.8 64.5008 55 64.8008 55C65.1008 55 65.3008 54.8 65.3008 54.5V51.5C65.3008 51.2 65.1008 51 64.8008 51ZM25.8008 51.0996L27.3008 51.9004C27.9008 52.3004 28.3008 52.9992 28.3008 53.6992V58.5C28.1008 58.3 28.0008 58.1996 27.8008 58.0996L26.0996 57.0996C25.8996 56.9996 25.7996 56.9996 25.5996 57.0996L23.9004 58.0996C23.7004 58.1996 23.5004 58.4 23.4004 58.5V54.5V53.6992H23.3008C23.3008 52.9992 23.7008 52.3004 24.3008 51.9004L25.8008 51.0996ZM73.9004 51.0996L75.4004 51.9004C76.0004 52.3004 76.4004 52.9992 76.4004 53.6992V54.5H76.3008V58.5C76.1008 58.3 76.0008 58.1996 75.8008 58.0996L74.0996 57.0996C73.8996 56.9996 73.7996 56.9996 73.5996 57.0996L71.9004 58.0996C71.7004 58.1996 71.5004 58.4 71.4004 58.5V53.6992C71.4004 52.9992 71.8004 52.3004 72.4004 51.9004L73.9004 51.0996ZM30.8008 52C30.5008 52 30.3008 52.2 30.3008 52.5V54.5C30.3008 54.8 30.5008 55 30.8008 55C31.1008 55 31.3008 54.8 31.3008 54.5V52.5C31.3008 52.2 31.1008 52 30.8008 52ZM68.8008 52C68.5008 52 68.3008 52.2 68.3008 52.5V54.5C68.3008 54.8 68.5008 55 68.8008 55C69.1008 55 69.3008 54.8 69.3008 54.5V52.5C69.3008 52.2 69.1008 52 68.8008 52ZM25.75 52.0254C25.675 52.0254 25.6 52.0496 25.5 52.0996L25 52.4004C24.6 52.6004 24.3008 53.0996 24.3008 53.5996V55.5C24.3008 55.8 24.5008 56 24.8008 56H26.8008C27.1008 56 27.3008 55.8 27.3008 55.5V53.5996C27.3008 53.0996 26.9996 52.7004 26.5996 52.4004L26 52.0996C25.9 52.0496 25.825 52.0254 25.75 52.0254ZM73.75 52.0254C73.675 52.0254 73.6 52.0496 73.5 52.0996L73 52.4004C72.6 52.6004 72.3008 53.0996 72.3008 53.5996V55.5C72.3008 55.8 72.5008 56 72.8008 56H74.8008C75.1008 56 75.3008 55.8 75.3008 55.5V53.5996C75.3008 53.0996 74.9996 52.6004 74.5996 52.4004L74 52.0996C73.9 52.0496 73.825 52.0254 73.75 52.0254ZM20.8008 52.0996L21.3008 52.5C21.9008 53 22.3008 53.7 22.3008 54.5V59.0996L21.9004 58.6992L21.0996 58.0996C20.8996 57.9996 20.7 57.9996 20.5 58.0996L19.6992 58.6992C19.5992 58.7992 19.4008 58.8996 19.3008 59.0996V54.5C19.3008 53.7 19.7008 53 20.3008 52.5L20.8008 52.0996ZM78.8008 52.0996L79.3008 52.5C79.9008 53 80.3008 53.7 80.3008 54.5V59.0996L79.9004 58.6992L79.0996 58.0996C78.8996 57.9996 78.7 57.9996 78.5 58.0996L77.6992 58.6992C77.5992 58.7992 77.4008 58.8996 77.3008 59.0996V54.5C77.3008 53.7 77.7008 53 78.3008 52.5L78.8008 52.0996ZM25.8008 53.0996L26.0996 53.3008C26.1996 53.4008 26.3008 53.4996 26.3008 53.5996V55H25.3008V53.5996C25.3008 53.4996 25.4 53.4008 25.5 53.3008L25.8008 53.0996ZM73.8008 53.0996L74.0996 53.3008C74.1996 53.4008 74.3008 53.4996 74.3008 53.5996V55H73.3008V53.5996C73.3008 53.4996 73.4 53.4008 73.5 53.3008L73.8008 53.0996ZM20.8008 54C20.5008 54 20.3008 54.2 20.3008 54.5V56.5C20.3008 56.8 20.5008 57 20.8008 57C21.1008 57 21.3008 56.8 21.3008 56.5V54.5C21.3008 54.2 21.1008 54 20.8008 54ZM78.8008 54C78.5008 54 78.3008 54.2 78.3008 54.5V56.5C78.3008 56.8 78.5008 57 78.8008 57C79.1008 57 79.3008 56.8 79.3008 56.5V54.5C79.3008 54.2 79.1008 54 78.8008 54ZM30.8008 57.0996L31.3008 57.5C31.9008 58 32.3008 58.7 32.3008 59.5V66H29.3008V60.6992V59.5C29.3008 58.7 29.7008 58 30.3008 57.5L30.8008 57.0996ZM34.8008 57.0996L35.3008 57.5C35.9008 58 36.3008 58.7 36.3008 59.5V59.6992V65.0996V66H33.3008V59.5C33.3008 58.7 33.7008 58 34.3008 57.5L34.8008 57.0996ZM39.8008 57.0996L41.3008 57.9004C41.9008 58.3004 42.3008 58.9992 42.3008 59.6992V60.5V65.0996V66H37.3008V65.0996V59.6992C37.3008 58.9992 37.7008 58.3004 38.3008 57.9004L39.8008 57.0996ZM44.8008 57.0996L45.3008 57.5C45.9008 58 46.3008 58.7 46.3008 59.5V59.6992V60.5V65.0996V66H43.3008V65.0996V60.5V59.6992V59.5C43.3008 58.7 43.7008 58 44.3008 57.5L44.8008 57.0996ZM49.8008 57.0996L51.3008 57.9004C51.9008 58.3004 52.3008 58.9992 52.3008 59.6992V65.0996V66H47.3008V65.0996V60.5V59.6992C47.3008 58.9992 47.7008 58.3004 48.3008 57.9004L49.8008 57.0996ZM54.8008 57.0996L55.3008 57.5C55.9008 58 56.3008 58.7 56.3008 59.5V59.6992V65.0996V66H53.3008V65.0996V59.6992V59.5C53.3008 58.7 53.7008 58 54.3008 57.5L54.8008 57.0996ZM59.8008 57.0996L61.3008 57.9004C61.9008 58.3004 62.3008 58.9992 62.3008 59.6992V65.0996V66H57.3008V65.0996V59.6992C57.3008 58.9992 57.7008 58.3004 58.3008 57.9004L59.8008 57.0996ZM64.8008 57.0996L65.3008 57.5C65.9008 58 66.3008 58.7 66.3008 59.5V66H63.3008V65.0996V59.6992V59.5C63.3008 58.7 63.7008 58 64.3008 57.5L64.8008 57.0996ZM68.8008 57.0996L69.3008 57.5C69.9008 58 70.3008 58.7 70.3008 59.5V60.6992V66H67.3008V59.5C67.3008 58.7 67.7008 58 68.3008 57.5L68.8008 57.0996ZM39.75 58.0254C39.675 58.0254 39.6 58.0496 39.5 58.0996L39 58.4004C38.6 58.6004 38.3008 59.0996 38.3008 59.5996V61.5C38.3008 61.8 38.5008 62 38.8008 62H40.8008C41.1008 62 41.3008 61.8 41.3008 61.5V59.5996C41.3008 59.0996 40.9996 58.6004 40.5996 58.4004L40 58.0996C39.9 58.0496 39.825 58.0254 39.75 58.0254ZM49.75 58.0254C49.675 58.0254 49.6 58.0496 49.5 58.0996L49 58.4004C48.6 58.6004 48.3008 59.0996 48.3008 59.5996V61.5C48.3008 61.8 48.5008 62 48.8008 62H50.8008C51.1008 62 51.3008 61.8 51.3008 61.5V59.5996C51.3008 59.0996 50.9996 58.6004 50.5996 58.4004L50 58.0996C49.9 58.0496 49.825 58.0254 49.75 58.0254ZM59.75 58.0254C59.675 58.0254 59.6 58.0496 59.5 58.0996L59 58.4004C58.6 58.6004 58.3008 59.0996 58.3008 59.5996V61.5C58.3008 61.8 58.5008 62 58.8008 62H60.8008C61.1008 62 61.3008 61.8 61.3008 61.5V59.5996C61.3008 59.0996 60.9996 58.6004 60.5996 58.4004L60 58.0996C59.9 58.0496 59.825 58.0254 59.75 58.0254ZM25.8008 58.0996L27.3008 58.9004C27.9008 59.3004 28.3008 59.9992 28.3008 60.6992V66H23.3008V61.5V60.6992C23.3008 59.9992 23.7008 59.3004 24.3008 58.9004L25.8008 58.0996ZM73.8008 58.0996L75.3008 58.9004C75.9008 59.3004 76.3008 59.9992 76.3008 60.6992V61.5V66H71.3008V60.6992C71.3008 59.9992 71.7008 59.3004 72.3008 58.9004L73.8008 58.0996ZM30.8008 59C30.5008 59 30.3008 59.2 30.3008 59.5V64.5C30.3008 64.8 30.5008 65 30.8008 65C31.1008 65 31.3008 64.8 31.3008 64.5V59.5C31.3008 59.2 31.1008 59 30.8008 59ZM34.8008 59C34.5008 59 34.3008 59.2 34.3008 59.5V64.5C34.3008 64.8 34.5008 65 34.8008 65C35.1008 65 35.3008 64.8 35.3008 64.5V59.5C35.3008 59.2 35.1008 59 34.8008 59ZM44.8008 59C44.5008 59 44.3008 59.2 44.3008 59.5V64.5C44.3008 64.8 44.5008 65 44.8008 65C45.1008 65 45.3008 64.8 45.3008 64.5V59.5C45.3008 59.2 45.1008 59 44.8008 59ZM54.8008 59C54.5008 59 54.3008 59.2 54.3008 59.5V64.5C54.3008 64.8 54.5008 65 54.8008 65C55.1008 65 55.3008 64.8 55.3008 64.5V59.5C55.3008 59.2 55.1008 59 54.8008 59ZM64.8008 59C64.5008 59 64.3008 59.2 64.3008 59.5V64.5C64.3008 64.8 64.5008 65 64.8008 65C65.1008 65 65.3008 64.8 65.3008 64.5V59.5C65.3008 59.2 65.1008 59 64.8008 59ZM68.8008 59C68.5008 59 68.3008 59.2 68.3008 59.5V64.5C68.3008 64.8 68.5008 65 68.8008 65C69.1008 65 69.3008 64.8 69.3008 64.5V59.5C69.3008 59.2 69.1008 59 68.8008 59ZM25.75 59.0254C25.675 59.0254 25.6 59.0496 25.5 59.0996L25 59.4004C24.6 59.6004 24.3008 60.0996 24.3008 60.5996V62.5C24.3008 62.8 24.5008 63 24.8008 63H26.8008C27.1008 63 27.3008 62.8 27.3008 62.5V60.5996C27.3008 60.0996 26.9996 59.6004 26.5996 59.4004L26 59.0996C25.9 59.0496 25.825 59.0254 25.75 59.0254ZM73.75 59.0254C73.675 59.0254 73.6 59.0496 73.5 59.0996L73 59.4004C72.6 59.6004 72.3008 60.0996 72.3008 60.5996V62.5C72.3008 62.8 72.5008 63 72.8008 63H74.8008C75.1008 63 75.3008 62.8 75.3008 62.5V60.5996C75.3008 60.0996 74.9996 59.6004 74.5996 59.4004L74 59.0996C73.9 59.0496 73.825 59.0254 73.75 59.0254ZM20.8008 59.0996L21.3008 59.5C21.9008 60 22.3008 60.7 22.3008 61.5V66H19.3008V61.5C19.3008 60.7 19.7008 60 20.3008 59.5L20.8008 59.0996ZM39.8008 59.0996L40.0996 59.3008C40.1996 59.4008 40.3008 59.4996 40.3008 59.5996V61H39.3008V59.5996C39.3008 59.4996 39.4 59.4008 39.5 59.3008L39.8008 59.0996ZM49.8008 59.0996L50.0996 59.3008C50.1996 59.4008 50.3008 59.4996 50.3008 59.5996V61H49.3008V59.5996C49.3008 59.4996 49.4 59.4008 49.5 59.3008L49.8008 59.0996ZM59.8008 59.0996L60.0996 59.3008C60.1996 59.4008 60.3008 59.4996 60.3008 59.5996V61H59.3008V59.5996C59.3008 59.4996 59.4 59.4008 59.5 59.3008L59.8008 59.0996ZM78.8008 59.0996L79.3008 59.5C79.9008 60 80.3008 60.7 80.3008 61.5V66H77.3008V61.5C77.3008 60.7 77.7008 60 78.3008 59.5L78.8008 59.0996ZM25.8008 60.0996L26.0996 60.3008C26.1996 60.4008 26.3008 60.4996 26.3008 60.5996V62H25.3008V60.5996C25.3008 60.4996 25.4 60.4008 25.5 60.3008L25.8008 60.0996ZM73.8008 60.0996L74.0996 60.3008C74.1996 60.4008 74.3008 60.4996 74.3008 60.5996V62H73.3008V60.5996C73.3008 60.4996 73.4 60.4008 73.5 60.3008L73.8008 60.0996ZM20.8008 61C20.5008 61 20.3008 61.2 20.3008 61.5V64.5C20.3008 64.8 20.5008 65 20.8008 65C21.1008 65 21.3008 64.8 21.3008 64.5V61.5C21.3008 61.2 21.1008 61 20.8008 61ZM78.8008 61C78.5008 61 78.3008 61.2 78.3008 61.5V64.5C78.3008 64.8 78.5008 65 78.8008 65C79.1008 65 79.3008 64.8 79.3008 64.5V61.5C79.3008 61.2 79.1008 61 78.8008 61ZM19.3008 67H22.3008V68.5V82H19.3008V68.5V67ZM23.3008 67H28.3008V70.0996C28.0008 69.9996 27.8 70 27.5 70C27.2 69.4 26.5008 69 25.8008 69C25.1008 69 24.3996 69.4 24.0996 70C23.7996 69.9 23.6008 69.9996 23.3008 70.0996V68.5V67ZM29.3008 67H32.3008V82H29.3008V67ZM33.3008 67H36.3008V82H33.3008V67ZM37.3008 67H42.3008V70.0996C42.0008 69.9996 41.8 70 41.5 70C41.2 69.4 40.5008 69 39.8008 69C39.1008 69 38.3996 69.4 38.0996 70C37.7996 69.9 37.6008 69.9996 37.3008 70.0996V67ZM43.3008 67H46.3008V82H43.3008V67ZM47.3008 67H52.3008V70.0996C52.0008 69.9996 51.8 70 51.5 70C51.2 69.4 50.5008 69 49.8008 69C49.1008 69 48.3996 69.4 48.0996 70C47.7996 69.9 47.6008 69.9996 47.3008 70.0996V67ZM53.3008 67H56.3008V82H53.3008V67ZM57.3008 67H62.3008V70.0996C62.0008 69.9996 61.8 70 61.5 70C61.2 69.4 60.5008 69 59.8008 69C59.1008 69 58.3996 69.4 58.0996 70C57.7996 69.9 57.6008 69.9996 57.3008 70.0996V67ZM63.3008 67H66.3008V82H63.3008V67ZM67.3008 67H70.3008V82H67.3008V67ZM71.3008 67H76.3008V68.5V70.0996C76.0008 69.9996 75.8 70 75.5 70C75.2 69.4 74.5008 69 73.8008 69C73.1008 69 72.3996 69.4 72.0996 70C71.7996 69.9 71.6008 69.9996 71.3008 70.0996V67ZM77.3008 67H80.3008V68.5V82H77.3008V68.5V67ZM25.9004 69.9004C26.4004 69.9004 26.8004 70.1992 26.9004 70.6992C26.9004 70.8992 26.9992 70.9996 27.1992 71.0996C27.3992 71.1996 27.4992 71.0996 27.6992 71.0996C27.7992 70.9996 27.9 71 28 71C28.3 71 28.5 71.2 28.5 71.5V82H23.3008V71.5C23.3008 71.2 23.5008 71 23.8008 71C23.9008 71 23.9996 70.9996 24.0996 71.0996C24.1996 71.1996 24.3996 71.1996 24.5996 71.0996C24.7996 70.9996 24.9004 70.8992 24.9004 70.6992C25.0004 70.1992 25.4004 69.9004 25.9004 69.9004ZM39.9004 69.9004C40.4004 69.9004 40.8004 70.1992 40.9004 70.6992C40.9004 70.8992 40.9992 70.9996 41.1992 71.0996C41.2992 71.1996 41.4992 71.0996 41.6992 71.0996C41.7992 70.9996 41.9 71 42 71C42.3 71 42.5 71.2 42.5 71.5V82H37.3008V71.5C37.3008 71.2 37.5008 71 37.8008 71C37.9008 71 37.9996 70.9996 38.0996 71.0996C38.1996 71.1996 38.3996 71.1996 38.5996 71.0996C38.7996 70.9996 38.9004 70.8992 38.9004 70.6992C39.0004 70.1992 39.4004 69.9004 39.9004 69.9004ZM49.9004 69.9004C50.4004 69.9004 50.8004 70.1992 50.9004 70.6992C50.9004 70.8992 50.9992 70.9996 51.1992 71.0996C51.2992 71.1996 51.4992 71.0996 51.6992 71.0996C51.7992 70.9996 51.9 71 52 71C52.3 71 52.5 71.2 52.5 71.5V82H47.3008V71.5C47.3008 71.2 47.5008 71 47.8008 71C47.9008 71 47.9996 70.9996 48.0996 71.0996C48.1996 71.1996 48.3996 71.1996 48.5996 71.0996C48.7996 70.9996 48.9004 70.8992 48.9004 70.6992C49.0004 70.1992 49.4004 69.9004 49.9004 69.9004ZM59.9004 69.9004C60.4004 69.9004 60.8004 70.1992 60.9004 70.6992C60.9004 70.8992 60.9992 70.9996 61.1992 71.0996C61.2992 71.1996 61.4992 71.0996 61.6992 71.0996C61.7992 70.9996 61.9 71 62 71C62.3 71 62.5 71.2 62.5 71.5V82H57.3008V71.5C57.3008 71.2 57.5008 71 57.8008 71C57.9008 71 57.9996 70.9996 58.0996 71.0996C58.1996 71.1996 58.3996 71.1996 58.5996 71.0996C58.7996 70.9996 58.9004 70.8992 58.9004 70.6992C59.0004 70.1992 59.4004 69.9004 59.9004 69.9004ZM73.9004 69.9004C74.4004 69.9004 74.8004 70.1992 74.9004 70.6992C74.9004 70.8992 74.9992 70.9996 75.1992 71.0996C75.2992 71.1996 75.4992 71.0996 75.6992 71.0996C75.7992 70.9996 75.9 71 76 71C76.3 71 76.5 71.2 76.5 71.5V82H71.3008V71.5C71.3008 71.2 71.5008 71 71.8008 71C71.9008 71 71.9996 70.9996 72.0996 71.0996C72.1996 71.1996 72.3996 71.1996 72.5996 71.0996C72.7996 70.9996 72.9004 70.8992 72.9004 70.6992C73.0004 70.1992 73.4004 69.9004 73.9004 69.9004ZM20.8008 70C20.5008 70 20.3008 70.2 20.3008 70.5V78.5C20.3008 78.8 20.5008 79 20.8008 79C21.1008 79 21.3008 78.8 21.3008 78.5V70.5C21.3008 70.2 21.1008 70 20.8008 70ZM30.8008 70C30.5008 70 30.3008 70.2 30.3008 70.5V78.5C30.3008 78.8 30.5008 79 30.8008 79C31.1008 79 31.3008 78.8 31.3008 78.5V70.5C31.3008 70.2 31.1008 70 30.8008 70ZM34.8008 70C34.5008 70 34.3008 70.2 34.3008 70.5V78.5C34.3008 78.8 34.5008 79 34.8008 79C35.1008 79 35.3008 78.8 35.3008 78.5V70.5C35.3008 70.2 35.1008 70 34.8008 70ZM44.8008 70C44.5008 70 44.3008 70.2 44.3008 70.5V78.5C44.3008 78.8 44.5008 79 44.8008 79C45.1008 79 45.3008 78.8 45.3008 78.5V70.5C45.3008 70.2 45.1008 70 44.8008 70ZM54.8008 70C54.5008 70 54.3008 70.2 54.3008 70.5V78.5C54.3008 78.8 54.5008 79 54.8008 79C55.1008 79 55.3008 78.8 55.3008 78.5V70.5C55.3008 70.2 55.1008 70 54.8008 70ZM64.8008 70C64.5008 70 64.3008 70.2 64.3008 70.5V78.5C64.3008 78.8 64.5008 79 64.8008 79C65.1008 79 65.3008 78.8 65.3008 78.5V70.5C65.3008 70.2 65.1008 70 64.8008 70ZM68.8008 70C68.5008 70 68.3008 70.2 68.3008 70.5V78.5C68.3008 78.8 68.5008 79 68.8008 79C69.1008 79 69.3008 78.8 69.3008 78.5V70.5C69.3008 70.2 69.1008 70 68.8008 70ZM78.8008 70C78.5008 70 78.3008 70.2 78.3008 70.5V78.5C78.3008 78.8 78.5008 79 78.8008 79C79.1008 79 79.3008 78.8 79.3008 78.5V70.5C79.3008 70.2 79.1008 70 78.8008 70ZM24.8008 73C24.5008 73 24.3008 73.2 24.3008 73.5V77.5C24.3008 77.8 24.5008 78 24.8008 78H26.8008C27.1008 78 27.3008 77.8 27.3008 77.5V73.5C27.3008 73.2 27.1008 73 26.8008 73H24.8008ZM38.8008 73C38.5008 73 38.3008 73.2 38.3008 73.5V77.5C38.3008 77.8 38.5008 78 38.8008 78H40.8008C41.1008 78 41.3008 77.8 41.3008 77.5V73.5C41.3008 73.2 41.1008 73 40.8008 73H38.8008ZM48.8008 73C48.5008 73 48.3008 73.2 48.3008 73.5V77.5C48.3008 77.8 48.5008 78 48.8008 78H50.8008C51.1008 78 51.3008 77.8 51.3008 77.5V73.5C51.3008 73.2 51.1008 73 50.8008 73H48.8008ZM58.8008 73C58.5008 73 58.3008 73.2 58.3008 73.5V77.5C58.3008 77.8 58.5008 78 58.8008 78H60.8008C61.1008 78 61.3008 77.8 61.3008 77.5V73.5C61.3008 73.2 61.1008 73 60.8008 73H58.8008ZM72.8008 73C72.5008 73 72.3008 73.2 72.3008 73.5V77.5C72.3008 77.8 72.5008 78 72.8008 78H74.8008C75.1008 78 75.3008 77.8 75.3008 77.5V73.5C75.3008 73.2 75.1008 73 74.8008 73H72.8008ZM25.3008 74H26.3008V77H25.3008V74ZM39.3008 74H40.3008V77H39.3008V74ZM49.3008 74H50.3008V77H49.3008V74ZM59.3008 74H60.3008V77H59.3008V74ZM73.3008 74H74.3008V77H73.3008V74Z"  fill="#2967FF"/>
</svg>
