<svg width="100" height="100" viewBox="0 0 100 100" fill="none" xmlns="http://www.w3.org/2000/svg">
<path d="M95.8008 81.7H94.3008L94.0008 70.7C94.3008 70.7 94.5008 70.5 94.5008 70.2C94.5008 69.9 94.3008 69.7 94.0008 69.7H93.9008L93.5008 57.7H93.7008C94.0008 57.7 94.2008 57.5 94.2008 57.2C94.2008 56.9 94.0008 56.7 93.7008 56.7H93.5008L93.3008 48.7C93.6008 48.7 93.8008 48.5 93.8008 48.2C93.8008 47.9 93.6008 47.7 93.3008 47.7V46.6C93.3008 46 93.0008 45.4 92.5008 45.1L92.3008 45V44.3C92.3008 44 92.1008 43.8 91.8008 43.8C91.5008 43.8 91.3008 44 91.3008 44.3V45L91.2008 45.1C90.7008 45.4 90.4008 46 90.4008 46.6V47.7C90.1008 47.7 89.9008 47.9 89.9008 48.2C89.9008 48.5 90.1008 48.7 90.4008 48.7L90.2008 56.7H90.0008C89.7008 56.7 89.5008 56.9 89.5008 57.2C89.5008 57.5 89.7008 57.7 90.0008 57.7L89.6008 69.7H89.5008C89.2008 69.7 89.0008 69.9 89.0008 70.2C89.0008 70.5 89.2008 70.7 89.5008 70.7H89.6008L89.3008 81.7H89.0008H85.3008L85.0008 74.7C85.3008 74.7 85.5008 74.5 85.5008 74.2C85.5008 73.9 85.3008 73.7 85.0008 73.7H84.9008L84.6008 66.7H84.7008C85.0008 66.7 85.2008 66.5 85.2008 66.2C85.2008 65.9 85.0008 65.7 84.7008 65.7H84.5008L84.2008 58.7C84.5008 58.7 84.7008 58.5 84.7008 58.2C84.7008 57.9 84.5008 57.7 84.2008 57.7V56.6C84.2008 56 83.9008 55.4 83.4008 55.1L83.3008 55V54.3C83.3008 54 83.1008 53.8 82.8008 53.8C82.5008 53.8 82.3008 54 82.3008 54.3V55L82.2008 55.1C81.7008 55.4 81.4008 56 81.4008 56.6V57.7C81.1008 57.7 80.9008 57.9 80.9008 58.2C80.9008 58.5 81.1008 58.7 81.4008 58.7L81.1008 65.7H80.9008C80.6008 65.7 80.4008 65.9 80.4008 66.2C80.4008 66.5 80.6008 66.7 80.9008 66.7H81.1008L80.8008 73.7H80.7008C80.4008 73.7 80.2008 73.9 80.2008 74.2C80.2008 74.5 80.4008 74.7 80.7008 74.7H80.8008L80.5008 81.8H76.5008V59.8V59.3V56.3C76.5008 56 76.3008 55.8 76.0008 55.8C75.7008 55.8 75.5008 56 75.5008 56.3V58.8H74.5008V57.8C74.5008 57.5 74.3008 57.3 74.0008 57.3C73.7008 57.3 73.5008 57.5 73.5008 57.8V58.8H69.0008H67.5008V56.6L67.6008 56.3C68.4008 54.8 68.0008 53 66.6008 52.1L64.9008 51V49.4C64.9008 49.1 64.7008 48.9 64.4008 48.9C64.1008 48.9 63.9008 49.1 63.9008 49.4V51.1L62.2008 52C60.8008 52.9 60.4008 54.8 61.2008 56.2L61.3008 56.3V58.7H60.3008V57.2V54.2V54.1C62.4008 49.6 61.1008 44.1 57.0008 41.2L50.8008 37V34.3C50.8008 34 50.6008 33.8 50.3008 33.8C50.0008 33.8 49.8008 34 49.8008 34.3V37L43.6008 41.3C39.5008 44.2 38.1008 49.6 40.3008 54.2V54.3V57.3V58.8H39.3008V56.4L39.4008 56.3C40.2008 54.8 39.8008 53 38.4008 52.1L36.8008 51V49.3C36.8008 49 36.6008 48.8 36.3008 48.8C36.0008 48.8 35.8008 49 35.8008 49.3V50.9L34.1008 52C32.7008 52.9 32.3008 54.8 33.1008 56.2L33.2008 56.5V58.7H31.7008H27.2008V57.7C27.2008 57.4 27.0008 57.2 26.7008 57.2C26.4008 57.2 26.2008 57.4 26.2008 57.7V58.7H25.2008V56.2C25.2008 55.9 25.0008 55.7 24.7008 55.7C24.4008 55.7 24.2008 55.9 24.2008 56.2V59.2V59.7V81.7H20.2008L20.0008 74.7C20.3008 74.7 20.5008 74.5 20.5008 74.2C20.5008 73.9 20.3008 73.7 20.0008 73.7H19.9008L19.6008 66.7H19.8008C20.1008 66.7 20.3008 66.5 20.3008 66.2C20.3008 65.9 20.1008 65.7 19.8008 65.7H19.6008L19.3008 58.7C19.6008 58.7 19.8008 58.5 19.8008 58.2C19.8008 57.9 19.6008 57.7 19.3008 57.7V56.6C19.3008 56 19.0008 55.4 18.5008 55.1L18.3008 55V54.3C18.3008 54 18.1008 53.8 17.8008 53.8C17.5008 53.8 17.3008 54 17.3008 54.3V55L17.1008 55.1C16.6008 55.4 16.3008 56 16.3008 56.6V57.7C16.0008 57.7 15.8008 57.9 15.8008 58.2C15.8008 58.5 16.0008 58.7 16.3008 58.7L16.0008 65.7H15.8008C15.5008 65.7 15.3008 65.9 15.3008 66.2C15.3008 66.5 15.5008 66.7 15.8008 66.7H15.9008L15.6008 73.7H15.5008C15.2008 73.7 15.0008 73.9 15.0008 74.2C15.0008 74.5 15.2008 74.7 15.5008 74.7L15.2008 81.8H14.0008H11.3008L11.0008 70.8C11.3008 70.8 11.5008 70.6 11.5008 70.3C11.5008 70 11.3008 69.8 11.0008 69.8H10.9008L10.5008 57.8H10.7008C11.0008 57.8 11.2008 57.6 11.2008 57.3C11.2008 57 11.0008 56.8 10.7008 56.8H10.5008L10.3008 48.8C10.6008 48.8 10.8008 48.6 10.8008 48.3C10.8008 48 10.6008 47.8 10.3008 47.8V46.7C10.3008 46.1 10.0008 45.5 9.50078 45.2L9.30078 45V44.3C9.30078 44 9.10078 43.8 8.80078 43.8C8.50078 43.8 8.30078 44 8.30078 44.2V45L8.10078 45.1C7.60078 45.4 7.30078 46 7.30078 46.6V47.7C7.00078 47.7 6.80078 47.9 6.80078 48.2C6.80078 48.5 7.00078 48.7 7.30078 48.7L7.10078 56.7H6.80078C6.50078 56.7 6.30078 56.9 6.30078 57.2C6.30078 57.5 6.50078 57.7 6.80078 57.7H7.00078L6.60078 69.7H6.50078C6.30078 69.7 6.00078 70 6.00078 70.2C6.00078 70.4 6.20078 70.7 6.50078 70.7H6.60078L6.30078 81.7H4.80078C4.50078 81.7 4.30078 81.9 4.30078 82.2C4.30078 82.5 4.50078 82.7 4.80078 82.7H6.80078H10.8008H14.0008H15.8008H19.8008H24.8008H26.8008H29.8008H31.8008H33.8008H38.8008H40.8008H47.8008H52.8008H59.8008H68.8008H70.8008H73.8008H75.8008H80.8008H84.8008H89.0008H89.8008H93.8008H95.8008C96.1008 82.7 96.3008 82.5 96.3008 82.2C96.3008 81.9 96.1008 81.7 95.8008 81.7ZM8.70078 45.9L8.80078 45.8L8.90078 45.9C9.10078 46.1 9.30078 46.3 9.30078 46.6V47.7H8.30078V46.6C8.30078 46.3 8.40078 46.1 8.70078 45.9ZM8.30078 48.7H9.30078L9.50078 56.7H8.00078L8.30078 48.7ZM8.00078 57.7H9.60078L10.0008 69.7H7.60078L8.00078 57.7ZM7.30078 81.7L7.60078 70.7H9.90078L10.2008 81.7H7.30078ZM82.3008 56.6C82.3008 56.3 82.4008 56.1 82.7008 55.9L82.8008 55.8L82.9008 55.9C83.1008 56.1 83.3008 56.3 83.3008 56.6V57.7H82.3008V56.6ZM82.3008 58.7H83.3008L83.6008 65.6H82.0008L82.3008 58.7ZM81.9008 66.7H83.6008L83.9008 73.7H81.6008L81.9008 66.7ZM73.3008 70.7H71.3008V65.3C71.3008 64.8 71.6008 64.3 72.0008 64L72.3008 63.8L72.6008 64C73.0008 64.3 73.3008 64.7 73.3008 65.3V70.7ZM73.1008 63.2L72.5008 62.8C72.3008 62.7 72.1008 62.7 72.0008 62.8L71.4008 63.2C70.7008 63.7 70.2008 64.4 70.2008 65.3V70.7H69.2008V61.8H75.2008V70.7H74.2008V65.3C74.3008 64.4 73.9008 63.7 73.1008 63.2ZM62.3008 70.7V66.7C62.3008 65.7 62.8008 64.8 63.6008 64.3L64.3008 63.9L65.0008 64.4C65.8008 64.9 66.3008 65.8 66.3008 66.8V70.8H62.3008V70.7ZM65.5008 63.4L64.5008 62.8C64.3008 62.7 64.1008 62.7 64.0008 62.8L63.0008 63.4C61.9008 64.1 61.2008 65.3 61.2008 66.6V70.7H60.2008V61.8H68.2008V70.7H67.2008V66.6C67.3008 65.4 66.6008 64.2 65.5008 63.4ZM58.3008 55.7C58.0008 55.7 57.8008 55.9 57.8008 56.2V56.7H56.8008V56.2C56.8008 55.9 56.6008 55.7 56.3008 55.7C56.0008 55.7 55.8008 55.9 55.8008 56.2V56.7H54.8008V56.2C54.8008 55.9 54.6008 55.7 54.3008 55.7C54.0008 55.7 53.8008 55.9 53.8008 56.2V56.7H52.8008V56.2C52.8008 55.9 52.6008 55.7 52.3008 55.7C52.0008 55.7 51.8008 55.9 51.8008 56.2V56.7H50.8008V56.2C50.8008 55.9 50.6008 55.7 50.3008 55.7C50.0008 55.7 49.8008 55.9 49.8008 56.2V56.7H48.8008V56.2C48.8008 55.9 48.6008 55.7 48.3008 55.7C48.0008 55.7 47.8008 55.9 47.8008 56.2V56.7H46.8008V56.2C46.8008 55.9 46.6008 55.7 46.3008 55.7C46.0008 55.7 45.8008 55.9 45.8008 56.2V56.7H44.8008V56.2C44.8008 55.9 44.6008 55.7 44.3008 55.7C44.0008 55.7 43.8008 55.9 43.8008 56.2V56.7H42.8008V56.2C42.8008 55.9 42.6008 55.7 42.3008 55.7C42.0008 55.7 41.8008 55.9 41.8008 56.2V56.7H41.3008V54.7H59.3008V56.7H58.8008V56.2C58.8008 56 58.6008 55.7 58.3008 55.7ZM38.3008 70.7H34.3008V66.6C34.3008 65.6 34.8008 64.7 35.6008 64.2L36.3008 63.7L37.0008 64.1C37.8008 64.6 38.3008 65.5 38.3008 66.5V70.7ZM37.5008 63.4L36.5008 62.8C36.3008 62.7 36.1008 62.7 36.0008 62.8L35.0008 63.4C33.9008 64.1 33.2008 65.3 33.2008 66.6V70.7H33.0008H32.2008V61.8H40.2008V70.7H39.2008V66.6C39.3008 65.4 38.6008 64.1 37.5008 63.4ZM29.3008 70.7H27.3008V65.3C27.3008 64.8 27.6008 64.3 28.0008 64L28.3008 63.8L28.6008 64C29.0008 64.3 29.3008 64.8 29.3008 65.3V70.7ZM29.1008 63.2L28.5008 62.8C28.3008 62.7 28.1008 62.7 28.0008 62.8L27.4008 63.2C26.7008 63.7 26.3008 64.4 26.3008 65.3V70.7H25.3008V61.8H31.3008V70.7H30.3008V65.3C30.3008 64.4 29.9008 63.6 29.1008 63.2ZM75.3008 60.8H69.3008V59.7H75.3008V60.8ZM62.8008 52.8L64.4008 51.7L66.0008 52.8C67.0008 53.4 67.2008 54.7 66.7008 55.7H64.5008H62.3008C61.6008 54.7 61.9008 53.5 62.8008 52.8ZM62.3008 56.7H64.4008H66.3008V58.7H64.8008V58.2C64.8008 57.9 64.6008 57.7 64.3008 57.7C64.0008 57.7 63.8008 57.9 63.8008 58.2V58.7H62.3008V56.7ZM61.8008 59.7H66.8008H68.3008V60.8H60.3008V59.7H61.8008ZM47.6008 39.7L50.3008 37.8L53.0008 39.7H47.6008ZM44.2008 42.1L45.9008 40.9V41.2C45.9008 41.5 46.1008 41.7 46.4008 41.7C46.7008 41.7 46.9008 41.5 46.9008 41.2V40.7H47.9008V41.2C47.9008 41.5 48.1008 41.7 48.4008 41.7C48.7008 41.7 48.9008 41.5 48.9008 41.2V40.7H49.9008V41.2C49.9008 41.5 50.1008 41.7 50.4008 41.7C50.7008 41.7 50.9008 41.5 50.9008 41.2V40.7H51.9008V41.2C51.9008 41.5 52.1008 41.7 52.4008 41.7C52.7008 41.7 52.9008 41.5 52.9008 41.2V40.7H53.9008V41.2C53.9008 41.5 54.1008 41.7 54.4008 41.7C54.7008 41.7 54.9008 41.5 54.9008 41.2V41L56.5008 42.1C60.2008 44.7 61.4008 49.6 59.5008 53.7H41.2008C39.3008 49.6 40.5008 44.7 44.2008 42.1ZM40.3008 60.8H32.3008V59.7H33.8008H38.8008H40.3008V60.8ZM34.7008 52.8L36.3008 51.7L37.9008 52.8C38.9008 53.4 39.1008 54.7 38.6008 55.7H36.4008H34.0008C33.4008 54.7 33.7008 53.5 34.7008 52.8ZM34.3008 56.7H36.2008H38.3008V58.7H36.8008V58.2C36.8008 57.9 36.6008 57.7 36.3008 57.7C36.0008 57.7 35.8008 57.9 35.8008 58.2V58.7H34.3008V56.7ZM31.3008 60.8H25.3008V59.7H31.3008V60.8ZM17.7008 55.9L17.8008 55.8L17.9008 55.9C18.1008 56.1 18.3008 56.3 18.3008 56.6V57.7H17.3008V56.6C17.3008 56.3 17.4008 56.1 17.7008 55.9ZM17.3008 58.7H18.3008L18.6008 65.6H17.0008L17.3008 58.7ZM16.9008 66.7H18.6008L18.9008 73.7H16.6008L16.9008 66.7ZM16.3008 81.7L16.6008 74.6H19.0008L19.3008 81.7H16.3008ZM25.3008 71.7H26.8008H29.8008H31.3008V81.7H30.3008V76.3C30.3008 75.4 29.9008 74.7 29.1008 74.2L28.5008 73.8C28.3008 73.7 28.1008 73.7 28.0008 73.8L27.4008 74.2C26.7008 74.7 26.3008 75.4 26.3008 76.3V81.7H25.3008V71.7ZM27.3008 81.7V76.3C27.3008 75.8 27.6008 75.3 28.0008 75L28.3008 74.8L28.6008 75C29.0008 75.3 29.3008 75.8 29.3008 76.3V81.7H27.3008ZM32.3008 71.7H33.0008H33.8008H38.8008H40.3008V81.7H39.3008V77.6C39.3008 76.3 38.6008 75.1 37.5008 74.4L36.5008 73.8C36.3008 73.7 36.1008 73.7 36.0008 73.8L35.0008 74.4C33.9008 75.1 33.2008 76.3 33.2008 77.6V81.7H32.2008V71.7H32.3008ZM34.3008 81.7V77.6C34.3008 76.6 34.8008 75.7 35.6008 75.2L36.3008 74.7L37.0008 75.1C37.8008 75.6 38.3008 76.5 38.3008 77.5V81.6H34.3008V81.7ZM41.3008 59.2V57.7H59.3008V59.2V81.7H57.3008V70.1C57.3008 66.9 55.7008 64.1 53.1008 62.4L50.6008 60.8C50.4008 60.7 50.2008 60.7 50.1008 60.8L47.6008 62.4C45.0008 64.1 43.4008 67 43.4008 70.1V81.7H41.4008V59.2H41.3008ZM47.3008 81.7H44.3008V71.7H47.8008H52.8008H56.3008V81.7H53.3008V77.6C53.3008 76.3 52.6008 75.1 51.5008 74.4L50.5008 73.8C50.3008 73.7 50.1008 73.7 50.0008 73.8L49.0008 74.4C47.9008 75.1 47.2008 76.3 47.2008 77.6V81.7H47.3008ZM56.3008 70.7H53.3008V68.6C53.3008 67.3 52.6008 66.1 51.5008 65.4L50.5008 64.8C50.3008 64.7 50.1008 64.7 50.0008 64.8L49.0008 65.4C47.9008 66.1 47.2008 67.3 47.2008 68.6V70.7H44.2008V70.1C44.2008 67.3 45.6008 64.7 48.0008 63.2L50.3008 61.8L52.5008 63.2C54.9008 64.7 56.3008 67.3 56.3008 70.1V70.7ZM52.3008 70.7H48.3008V68.6C48.3008 67.6 48.8008 66.7 49.6008 66.2L50.3008 65.7L51.0008 66.1C51.8008 66.6 52.3008 67.5 52.3008 68.5V70.7ZM48.3008 81.7V77.6C48.3008 76.6 48.8008 75.7 49.6008 75.2L50.3008 74.7L51.0008 75.1C51.8008 75.6 52.3008 76.5 52.3008 77.5V81.6H48.3008V81.7ZM60.3008 71.7H68.3008V81.7H67.3008V77.6C67.3008 76.3 66.6008 75.1 65.5008 74.4L64.5008 73.8C64.3008 73.7 64.1008 73.7 64.0008 73.8L63.0008 74.4C61.9008 75.1 61.2008 76.3 61.2008 77.6V81.7H60.2008V71.7H60.3008ZM66.3008 81.7H62.3008V77.6C62.3008 76.6 62.8008 75.7 63.6008 75.2L64.3008 74.8L65.0008 75.3C65.8008 75.8 66.3008 76.7 66.3008 77.7V81.7ZM71.3008 81.7V76.3C71.3008 75.8 71.6008 75.3 72.0008 75L72.3008 74.8L72.6008 75C73.0008 75.3 73.3008 75.7 73.3008 76.3V81.7H71.3008ZM74.3008 81.7V76.3C74.3008 75.4 73.9008 74.7 73.2008 74.2L72.6008 73.8C72.4008 73.7 72.2008 73.7 72.1008 73.8L71.5008 74.2C70.8008 74.7 70.3008 75.4 70.3008 76.3V81.7H69.3008V71.7H70.8008H73.8008H75.3008V81.7H74.3008ZM81.3008 81.7L81.6008 74.6H84.0008L84.3008 81.7H81.3008ZM92.3008 47.7H91.3008V46.6C91.3008 46.3 91.4008 46.1 91.7008 45.9L91.8008 45.8L91.9008 45.9C92.1008 46.1 92.3008 46.3 92.3008 46.6V47.7ZM91.3008 48.7H92.3008L92.5008 56.7H91.0008L91.3008 48.7ZM91.0008 57.7H92.6008L93.0008 69.7H90.7008L91.0008 57.7ZM90.3008 81.7L90.6008 70.7H93.0008L93.3008 81.7H90.3008Z" fill="#2967FF"/>
</svg>
