<svg width="100" height="100" viewBox="0 0 100 100" fill="none" xmlns="http://www.w3.org/2000/svg">
<g clip-path="url(#clip0_111_2500)">
<path d="M50.5 22.3008C49.4 22.3008 48.5 23.2008 48.5 24.3008V25.3008H48C47.7 25.3008 47.5 25.5008 47.5 25.8008V27.8008V27.9004L44 29.5996C42.6 30.3996 41.7004 31.7992 41.4004 33.1992C41.2004 34.4992 41.5008 35.7008 42.3008 36.8008V38.3008H40.9004C40.7004 38.3008 40.5 38.3996 40.5 38.5996C40.4 38.7996 40.4 38.9996 40.5 39.0996L42.3008 41.8008V45.5996L40.5996 48.1992H34.3008V47.6992C34.3008 47.3992 34.1008 47.1992 33.8008 47.1992H33.3008V45L33.4004 44.9004C34.0004 44.2004 34.1996 43.2008 34.0996 42.3008C33.9996 41.4008 33.5008 40.5 32.8008 40L28.4004 36.5V36.1992C28.7004 35.9992 29 35.7008 29 35.3008C29 34.7008 28.5004 34.1992 27.9004 34.1992C27.3004 34.1992 26.8008 34.7008 26.8008 35.3008C26.8008 35.7008 27.0004 36.0992 27.4004 36.1992V36.5L23 40.0996C22.3 40.6996 21.7992 41.5004 21.6992 42.4004C21.5992 43.3004 21.8004 44.2004 22.4004 44.9004V48.4004H21.9004C21.6004 48.4004 21.4004 48.6004 21.4004 48.9004V79.4004H19.9004C19.6004 79.4004 19.4004 79.6004 19.4004 79.9004C19.4004 80.2004 19.6004 80.4004 19.9004 80.4004H21.9004H29.9004H30.4004H31.4004H34.5H36.8008H40.9004H43.1992H47.3008H53.3008H57.4004H59.8008H63.9004H66.3008H68.3008H70.3008H70.4004H78.8008H80.6992C80.9992 80.4004 81.1992 80.2004 81.1992 79.9004C81.1992 79.6004 80.9992 79.3008 80.6992 79.3008H79.3008V48.8008C79.3008 48.5008 79.1008 48.3008 78.8008 48.3008H78.3008V45.0996L78.4004 45C79.0004 44.3 79.1996 43.3004 79.0996 42.4004C78.9996 41.5004 78.5008 40.5996 77.8008 40.0996L73.4004 36.5996V36.3008C73.7004 36.1008 74 35.8004 74 35.4004C74 34.8004 73.5004 34.3008 72.9004 34.3008C72.3004 34.3008 71.8008 34.8004 71.8008 35.4004C71.8008 35.8004 72.0004 36.2008 72.4004 36.3008V36.5996L68 40.0996C67.3 40.6996 66.7992 41.5004 66.6992 42.4004C66.5992 43.3004 66.8004 44.2004 67.4004 44.9004V47.4004H66.9004C66.6004 47.4004 66.4004 47.6004 66.4004 47.9004V48.4004H60.1992L58.4004 45.6992V42.0996L60.4004 39.0996C60.5004 38.8996 60.5004 38.6996 60.4004 38.5996C60.3004 38.3996 60.1 38.3008 60 38.3008H58.4004V37.0996L58.5 37C59.4 35.8 59.7004 34.3004 59.4004 32.9004C59.1004 31.5004 58.2004 30.2996 56.9004 29.5996L53.5 27.8008V25.8008C53.5 25.5008 53.3 25.3008 53 25.3008H52.5V24.3008C52.5 23.2008 51.6 22.3008 50.5 22.3008ZM50.3008 23.3008C50.8008 23.3008 51.3008 23.7008 51.3008 24.3008V25.3008H49.3008V24.3008C49.3008 23.8008 49.8008 23.3008 50.3008 23.3008ZM48.3008 26.3008H52.3008V27.3008H48.3008V26.3008ZM48.5996 28.3008H52.0996L56.1992 30.5C57.1992 31.1 57.9992 31.9996 58.1992 33.0996C58.3992 34.1996 58.2 35.3008 57.5 36.3008H52.1992V35.1992C52.1992 34.2992 51.8 33.5996 51 33.0996L50.4004 32.6992C50.2004 32.5992 50.0004 32.5992 49.9004 32.6992L49.3008 33.0996C48.6008 33.5996 48.1992 34.2992 48.1992 35.1992V36.3008H43C42.5 35.4008 42.2004 34.4004 42.4004 33.4004C42.6004 32.2004 43.4 31.1 44.5 30.5L48.5996 28.3008ZM50.3008 33.6992L50.5996 33.9004C50.9996 34.2004 51.3008 34.5992 51.3008 35.1992V36.3008H49.3008V35.1992C49.3008 34.6992 49.6 34.2004 50 33.9004L50.3008 33.6992ZM43.3008 37.3008H57.3008V38.3008H43.3008V37.3008ZM27.8008 37.4004L32.0996 40.8008C32.5996 41.2008 33 41.8 33 42.5C33.1 43.2 32.9 43.8008 32.5 44.3008H23C22.7 43.8008 22.5996 43.2 22.5996 42.5C22.6996 41.8 23 41.2008 23.5 40.8008L27.8008 37.4004ZM72.8008 37.4004L77.0996 40.8008C77.5996 41.2008 78 41.8 78 42.5C78.1 43.2 77.9 43.8008 77.5 44.3008H68C67.7 43.8008 67.5996 43.2 67.5996 42.5C67.6996 41.8 68 41.2008 68.5 40.8008L72.8008 37.4004ZM41.8008 39.3008H42.8008H43.5996L44.9004 41.3008H43.0996L41.8008 39.3008ZM44.9004 39.3008H56L54.6992 41.3008H46.1992L44.9004 39.3008ZM57.1992 39.3008H57.8008H59L57.5996 41.3008H55.9004L57.1992 39.3008ZM43.3008 42.3008H45.4004L45.3008 45.3008H43.3008V42.3008ZM55.5 42.3008H57.3008V45.3008H55.4004L55.5 42.3008ZM46.4004 42.4004H54.5L54.4004 45.4004H52.3008H52.1992L50.5 44.4004C50.3 44.3004 50.2 44.3004 50 44.4004L48.4004 45.4004H46.3008L46.4004 42.4004ZM23.3008 45.3008H32.3008V47.3008H30.8008C30.5008 47.3008 30.3008 47.5008 30.3008 47.8008V48.3008H27.3008H23.3008V45.3008ZM68.3008 45.3008H77.3008V48.3008H73.3008H70.3008V47.8008C70.3008 47.5008 70.1008 47.3008 69.8008 47.3008H68.3008V45.3008ZM50.3008 45.4004L53.3008 47.0996V51.3008H47.3008V47.0996L50.3008 45.4004ZM43.0996 46.3008H44.9004L43.5996 48.3008H41.8008L43.0996 46.3008ZM46.0996 46.3008H46.6992L46.5996 46.4004C46.3996 46.5004 46.3008 46.7008 46.3008 46.8008V48.3008H46.0996H44.8008L46.0996 46.3008ZM53.9004 46.3008H54.5996L55.9004 48.3008H54.5H54.3008V46.8008C54.3008 46.6008 54.2 46.5004 54 46.4004L53.9004 46.3008ZM55.9004 46.3008H57.5996L59 48.3008H57.1992L55.9004 46.3008ZM31.3008 48.3008H33.3008V51.3008H31.3008V48.3008ZM67.3008 48.3008H69.3008V51.3008H67.3008V48.3008ZM22.3008 49.3008H22.8008H27.3008H30.3008V51.3008H29.9004C29.8004 51.3008 29.6 51.4004 29.5 51.4004L26.5 54.4004C26.4 54.5004 26.3004 54.8004 26.4004 54.9004C26.5004 55.0004 26.7004 55.1992 26.9004 55.1992H28.3008V57.6992C28.3008 57.9992 28.5008 58.1992 28.8008 58.1992H30.3008V79.1992H29.8008V79.3008H22.3008V49.3008ZM34.4004 49.3008H40.9004H46.0996H46.3008V51.3008H34.4004V49.3008ZM54.3008 49.3008H54.5996H59.9004H66.3008V51.3008H54.3008V49.3008ZM70.3008 49.4004H73.3008H77.8008H78.3008V79.4004H70.4004V79.3008V58.3008H71.8008C72.1008 58.3008 72.3008 58.1008 72.3008 57.8008V55.3008H73.9004C74.1004 55.3008 74.3004 55.2 74.4004 55C74.5004 54.8 74.4008 54.6 74.3008 54.5L71.3008 51.5C71.2008 51.4 71.1004 51.4004 70.9004 51.4004H70.3008V49.4004ZM30.0996 52.3008H30.8008H33.8008H33.9004H46.8008H53.8008H66.8008H69.8008H70.6992L72.6992 54.3008H71.8008H28.8008H28.0996L30.0996 52.3008ZM29.4004 55.3008H71.4004V57.3008H70.5H66.8008H66.3008H63.9004H63.4004H60.3008H59.8008H57.4004H56.8008H53.8008H53.3008H47.3008H46.8008H43.6992H43.1992H40.9004H40.4004H37.3008H36.8008H34.5H34H30.4004H29.4004V55.3008ZM31.3008 58.3008H33.4004V61.8008V66.8008V70.8008V79.3008H31.3008V58.3008ZM34.4004 58.3008H36.6992V61.3008H34.4004V58.3008ZM37.6992 58.3008H39.8008V79.3008H37.6992V70.8008V66.8008V61.8008V58.3008ZM40.9004 58.3008H43.1992V61.3008H40.9004V58.3008ZM44.1992 58.3008H46.3008V79.3008H44.1992V66.8008V58.3008ZM47.3008 58.3008H53.3008V61.3008H47.3008V58.3008ZM54.3008 58.3008H56.4004V79.3008H54.3008V58.3008ZM57.4004 58.3008H59.8008V61.3008H57.4004V58.3008ZM60.8008 58.3008H62.9004V79.3008H60.8008V58.3008ZM63.9004 58.3008H66.3008V61.3008H63.9004V58.3008ZM67.3008 58.3008H69.4004V79.3008H68.3008H67.3008V70.8008V66.8008V61.8008V58.3008ZM26.4004 59.3008C25.3004 59.3008 24.4004 60.2008 24.4004 61.3008C24.4004 62.4008 25.3004 63.3008 26.4004 63.3008C27.5004 63.3008 28.4004 62.4008 28.4004 61.3008C28.4004 60.2008 27.5004 59.3008 26.4004 59.3008ZM74.4004 59.3008C73.3004 59.3008 72.4004 60.2008 72.4004 61.3008C72.4004 62.4008 73.3004 63.3008 74.4004 63.3008C75.5004 63.3008 76.4004 62.4008 76.4004 61.3008C76.4004 60.2008 75.5004 59.3008 74.4004 59.3008ZM26.4004 60.3008C27.0004 60.3008 27.4004 60.7008 27.4004 61.3008C27.4004 61.9008 27.0004 62.3008 26.4004 62.3008C25.8004 62.3008 25.4004 61.9008 25.4004 61.3008C25.4004 60.7008 25.8004 60.3008 26.4004 60.3008ZM74.4004 60.3008C75.0004 60.3008 75.4004 60.7008 75.4004 61.3008C75.4004 61.9008 75.0004 62.3008 74.4004 62.3008C73.8004 62.3008 73.4004 61.9008 73.4004 61.3008C73.4004 60.7008 73.8004 60.3008 74.4004 60.3008ZM34.4004 62.3008H36.6992V66.3008H34.4004V62.3008ZM40.8008 62.3008H43.0996V66.3008H40.8008V62.3008ZM47.3008 62.3008H53.3008V66.3008H47.3008V62.3008ZM57.4004 62.3008H59.8008V66.3008H57.4004V62.3008ZM63.9004 62.3008H66.3008V66.3008H63.9004V62.3008ZM23.8008 65.3008C23.5008 65.3008 23.3008 65.5008 23.3008 65.8008C23.3008 66.1008 23.5008 66.3008 23.8008 66.3008H24.3008V71.8008C24.3008 72.1008 24.5008 72.3008 24.8008 72.3008H27.8008C28.1008 72.3008 28.3008 72.1008 28.3008 71.8008V66.3008H28.8008C29.1008 66.3008 29.3008 66.1008 29.3008 65.8008C29.3008 65.5008 29.1008 65.3008 28.8008 65.3008H27.8008H24.8008H23.8008ZM71.8008 65.3008C71.5008 65.3008 71.3008 65.5008 71.3008 65.8008C71.3008 66.1008 71.5008 66.3008 71.8008 66.3008H72.3008V71.8008C72.3008 72.1008 72.5008 72.3008 72.8008 72.3008H75.8008C76.1008 72.3008 76.3008 72.1008 76.3008 71.8008V66.3008H76.8008C77.1008 66.3008 77.3008 66.1008 77.3008 65.8008C77.3008 65.5008 77.1008 65.3008 76.8008 65.3008H75.8008H72.8008H71.8008ZM25.3008 66.3008H27.3008V71.3008H25.3008V66.3008ZM73.3008 66.3008H75.3008V71.3008H73.3008V66.3008ZM34.4004 67.3008H36.6992V70.3008H34.4004V67.3008ZM40.8008 67.3008H43.0996V70.3008H40.8008V67.3008ZM47.3008 67.3008H53.3008V70.3008H47.3008V67.3008ZM57.4004 67.3008H59.8008V70.3008H57.4004V67.3008ZM63.9004 67.3008H66.3008V70.3008H63.9004V67.3008ZM34.4004 71.3008H36.6992V79.3008H34.4004V71.3008ZM40.8008 71.3008H43.0996V79.3008H40.8008V71.3008ZM47.3008 71.3008H53.3008V79.3008H47.3008V71.3008ZM57.4004 71.3008H59.8008V79.3008H57.4004V71.3008ZM63.9004 71.3008H66.3008V79.3008H63.9004V71.3008ZM24.8008 74.3008C24.5008 74.3008 24.3008 74.5008 24.3008 74.8008V76.8008C24.3008 77.1008 24.5008 77.3008 24.8008 77.3008H27.8008C28.1008 77.3008 28.3008 77.1008 28.3008 76.8008V74.8008C28.3008 74.6008 28.1008 74.3008 27.8008 74.3008H24.8008ZM72.8008 74.3008C72.5008 74.3008 72.3008 74.5008 72.3008 74.8008V76.8008C72.3008 77.1008 72.5008 77.3008 72.8008 77.3008H75.8008C76.1008 77.3008 76.3008 77.1008 76.3008 76.8008V74.8008C76.3008 74.6008 76.1008 74.3008 75.8008 74.3008H72.8008ZM25.3008 75.3008H27.3008V76.3008H25.3008V75.3008ZM73.3008 75.3008H75.3008V76.3008H73.3008V75.3008Z" fill="#FCAE55"/>
</g>
<defs>
<clipPath id="clip0_111_2500">
<rect width="100" height="100" fill="white"/>
</clipPath>
</defs>
</svg>
