<svg width="100" height="100" viewBox="0 0 100 100" fill="none" xmlns="http://www.w3.org/2000/svg">
<path d="M61.4004 26.9004C61.1004 26.9004 60.9004 27.1004 60.9004 27.4004V28C60.0004 28.2 59.4004 29.0004 59.4004 29.9004V30.9004H58.9004C58.6004 30.9004 58.4004 31.1004 58.4004 31.4004V33.4004C58.4004 33.7004 58.6004 33.9004 58.9004 33.9004H59.4004V35.9004H58.9004C58.6004 35.9004 58.4004 36.1004 58.4004 36.4004V38.4004C58.4004 38.7004 58.6004 38.9004 58.9004 38.9004H59.4004V42.9004H57.9004C57.6004 42.9004 57.4004 43.1004 57.4004 43.4004V46.4004C57.4004 46.7004 57.6004 46.9004 57.9004 46.9004H58.4004V52.9004H57.9004H57.8008C57.3008 52.0004 56.5996 51.1 55.5996 50.5L51.8008 48.1992V47.3008C51.8008 47.0008 51.6008 46.8008 51.3008 46.8008C51.0008 46.8008 50.8008 47.0008 50.8008 47.3008V48.1992L47 50.6992C46.1 51.2992 45.3004 52.1 44.9004 53H44.8008H44.3008V47H44.8008C45.1008 47 45.3008 46.8 45.3008 46.5V43.5C45.3008 43.2 45.1008 43 44.8008 43H43.3008V39H43.8008C44.1008 39 44.3008 38.8 44.3008 38.5V36.5C44.3008 36.2 44.1008 36 43.8008 36H43.3008V34H43.8008C44.1008 34 44.3008 33.8 44.3008 33.5V31.5C44.3008 31.2 44.1008 31 43.8008 31H43.3008V30C43.3008 29.1 42.7008 28.2996 41.8008 28.0996V27.5C41.8008 27.2 41.6008 27 41.3008 27C41.0008 27 40.8008 27.2 40.8008 27.5V28.0996C39.9008 28.2996 39.3008 29.1 39.3008 30V31H38.8008C38.5008 31 38.3008 31.2 38.3008 31.5V33.5C38.3008 33.8 38.5008 34 38.8008 34H39.3008V36H38.8008C38.5008 36 38.3008 36.2 38.3008 36.5V38.5C38.3008 38.8 38.5008 39 38.8008 39H39.3008V43H37.8008C37.5008 43 37.3008 43.2 37.3008 43.5V46.5C37.3008 46.8 37.5008 47 37.8008 47H38.3008V53H37.8008C37.5008 53 37.3008 53.2 37.3008 53.5V56.5C37.3008 56.8 37.5008 57 37.8008 57H38.3008V60H36C35.8 58.3 34.5992 56.7008 32.6992 55.8008L28 53.5V52.8008C28 52.5008 27.8 52.3008 27.5 52.3008C27.2 52.3008 27 52.6008 27 52.8008V53.5L22.3008 55.8008C20.4008 56.7008 19.2 58.3 19 60H16.8008C16.5008 60 16.3008 60.2 16.3008 60.5V62H15.8008C15.5008 62 15.3008 62.2 15.3008 62.5V65.5C15.3008 65.8 15.5008 66 15.8008 66H16.3008V82H15.8008C15.5008 82 15.3008 82.2 15.3008 82.5C15.3008 82.8 15.5008 83 15.8008 83H16.8008H38.8008H43.5996H43.8008H58.5996H58.8008H63.8008H85.8008H86.8008C87.1008 83 87.3008 82.8 87.3008 82.5C87.3008 82.2 87.1008 82 86.8008 82H86.3008V66H86.8008C87.1008 66 87.3008 65.8 87.3008 65.5V62.5C87.3008 62.2 87.1008 62 86.8008 62H86.3008V60.5C86.3008 60.2 86.1008 60 85.8008 60H83C82.8 58.3 81.5992 56.7008 79.6992 55.8008L75 53.5V52.8008C75 52.5008 74.8 52.3008 74.5 52.3008C74.2 52.3008 74 52.6008 74 52.8008V53.5L69.4004 55.6992C67.5004 56.5992 66.2996 58.2004 66.0996 59.9004H64.4004V56.9004H64.9004C65.2004 56.9004 65.4004 56.7004 65.4004 56.4004V53.4004C65.4004 53.1004 65.2004 52.9004 64.9004 52.9004H64.4004V46.9004H64.9004C65.2004 46.9004 65.4004 46.7004 65.4004 46.4004V43.4004C65.4004 43.1004 65.2004 42.9004 64.9004 42.9004H63.4004V38.9004H63.9004C64.2004 38.9004 64.4004 38.7004 64.4004 38.4004V36.4004C64.4004 36.1004 64.2004 35.9004 63.9004 35.9004H63.4004V33.9004H63.9004C64.2004 33.9004 64.4004 33.7004 64.4004 33.4004V31.4004C64.4004 31.1004 64.2004 30.9004 63.9004 30.9004H63.4004V29.9004C63.4004 29.0004 62.8004 28.2 61.9004 28V27.4004C61.9004 27.1004 61.7004 26.9004 61.4004 26.9004ZM41.3008 29C41.8008 29 42.3008 29.5 42.3008 30V31H40.3008V30C40.3008 29.5 40.7008 29 41.3008 29ZM61.3008 29C61.8008 29 62.3008 29.5 62.3008 30V31H60.3008V30C60.3008 29.5 60.7008 29 61.3008 29ZM39.3008 32H39.8008H42.8008H43.3008V33H42.8008H39.8008H39.3008V32ZM59.3008 32H59.8008H62.8008H63.3008V33H62.8008H59.8008H59.3008V32ZM40.3008 34H42.3008V36H40.3008V34ZM60.3008 34H62.3008V36H60.3008V34ZM39.3008 37H39.8008H42.8008H43.3008V38H42.8008H39.8008H39.3008V37ZM59.3008 37H59.8008H62.8008H63.3008V38H62.8008H59.8008H59.3008V37ZM40.3008 39H42.3008V43H40.3008V39ZM60.3008 39H62.3008V43H60.3008V39ZM38.3008 44H39.8008H42.8008H44.3008V46H43.8008H38.8008H38.3008V44ZM58.3008 44H59.8008H62.8008H64.3008V46H63.8008H58.8008H58.3008V44ZM39.3008 47H43.3008V53H39.3008V47ZM59.3008 47H63.3008V53H59.3008V47ZM51.3008 49.1992L55 51.5C56.4 52.4 57.3008 53.8 57.3008 55.5V56H45.3008V55.5C45.3008 53.9 46.0996 52.4 47.5996 51.5L51.3008 49.1992ZM38.3008 54H38.8008H43.8008H44.3008V55.5V56H43.8008H38.8008H38.3008V54ZM58.3008 54H58.8008H63.8008H64.3008V56H63.8008H58.8008H58.3008V55.5V54ZM27.5 54.4004L32.1992 56.6992C33.7992 57.4992 34.8 58.7 35 60H20C20.2 58.7 21.2008 57.3992 22.8008 56.6992L27.5 54.4004ZM74.5 54.4004L79.1992 56.6992C80.7992 57.4992 81.7004 58.7 81.9004 60H67C67.2 58.6 68.2008 57.3992 69.8008 56.6992L74.5 54.4004ZM39.3008 57H43.3008V58.5V61.5V74.8008V82H39.3008V65.5V62.5V60.5V57ZM44.3008 57H44.5H44.8008H46.3008V58H44.3008V57ZM47.3008 57H49.3008V58H47.3008V57ZM50.3008 57H52.3008V58H50.3008V57ZM53.3008 57H55.3008V58H53.3008V57ZM56.3008 57H57.8008H58.3008V58H56.3008V57ZM59.3008 57H63.3008V60.5V62.5V65.5V82H59.3008V74.8008V61.5V58.5V57ZM44.3008 59H58.3008V61H44.3008V59ZM17.3008 61H18.3008V62H17.3008V61ZM19.3008 61H21.3008V62H19.3008V61ZM22.3008 61H24.3008V62H22.3008V61ZM25.3008 61H27.3008V62H25.3008V61ZM28.3008 61H30.3008V62H28.3008V61ZM31.3008 61H33.3008V62H31.3008V61ZM34.3008 61H36.3008V62H34.3008V61ZM37.3008 61H38.3008V62H37.3008V61ZM64.3008 61H65.3008V62H64.3008V61ZM66.3008 61H68.3008V62H66.3008V61ZM69.3008 61H71.3008V62H69.3008V61ZM72.3008 61H74.3008V62H72.3008V61ZM75.3008 61H77.3008V62H75.3008V61ZM78.3008 61H80.3008V62H78.3008V61ZM81.3008 61H83.3008V62H81.3008V61ZM84.3008 61H85.3008V62H84.3008V61ZM44.3008 62H58.3008V70.3008C57.5008 68.5008 56.2004 67.0004 54.4004 65.9004L51.5 64.0996C51.3 63.9996 51.1 63.9996 51 64.0996L48.0996 66C46.3996 67.1 45.1008 68.6004 44.3008 70.4004V62ZM16.3008 63H16.8008H38.3008V65H16.8008H16.3008V63ZM64.3008 63H85.8008H86.3008V65H85.8008H64.3008V63ZM51.3008 65.0996L53.9004 66.8008C56.7004 68.5008 58.3008 71.5008 58.3008 74.8008V82H44.3008V74.8008C44.3008 71.6008 45.8992 68.6008 48.6992 66.8008L51.3008 65.0996ZM17.4004 66H38.3008V82H33.3008V75.4004C33.3008 72.9004 32.1 70.7004 30 69.4004L28.0996 68.1992C27.8996 68.0992 27.6996 68.0992 27.5996 68.1992L25.6992 69.4004C23.5992 70.7004 22.4004 73.0004 22.4004 75.4004V82H17.4004V66ZM64.4004 66H85.4004V82H80.3008V75.4004C80.3008 72.9004 79.1 70.7004 77 69.4004L75.0996 68.1992C74.8996 68.0992 74.6996 68.0992 74.5996 68.1992L72.6992 69.4004C70.5992 70.7004 69.4004 73.0004 69.4004 75.4004V82H64.4004V66ZM22.5 67.3008C21.7 67.3008 21 68.0008 21 68.8008C21 69.6008 21.7 70.3008 22.5 70.3008C23.3 70.3008 24 69.6008 24 68.8008C24 68.0008 23.3 67.3008 22.5 67.3008ZM32.5 67.3008C31.7 67.3008 31 68.0008 31 68.8008C31 69.6008 31.7 70.3008 32.5 70.3008C33.3 70.3008 34 69.6008 34 68.8008C34 68.0008 33.3 67.3008 32.5 67.3008ZM69.5 67.3008C68.7 67.3008 68 68.0008 68 68.8008C68 69.6008 68.7 70.3008 69.5 70.3008C70.3 70.3008 71 69.6008 71 68.8008C71 68.0008 70.3 67.3008 69.5 67.3008ZM79.5 67.3008C78.7 67.3008 78 68.0008 78 68.8008C78 69.6008 78.7 70.3008 79.5 70.3008C80.3 70.3008 81 69.6008 81 68.8008C81 68.0008 80.3 67.3008 79.5 67.3008ZM22.5 68.3008C22.8 68.3008 23 68.5008 23 68.8008C23 69.1008 22.8 69.3008 22.5 69.3008C22.2 69.3008 22 69.1008 22 68.8008C22 68.5008 22.2 68.3008 22.5 68.3008ZM32.5 68.3008C32.8 68.3008 33 68.5008 33 68.8008C33 69.1008 32.8 69.3008 32.5 69.3008C32.2 69.3008 32 69.1008 32 68.8008C32 68.5008 32.2 68.3008 32.5 68.3008ZM69.5 68.3008C69.8 68.3008 70 68.5008 70 68.8008C70 69.1008 69.8 69.3008 69.5 69.3008C69.2 69.3008 69 69.1008 69 68.8008C69 68.5008 69.2 68.3008 69.5 68.3008ZM79.5 68.3008C79.8 68.3008 80 68.5008 80 68.8008C80 69.1008 79.8 69.3008 79.5 69.3008C79.2 69.3008 79 69.1008 79 68.8008C79 68.5008 79.2 68.3008 79.5 68.3008ZM27.8008 69.1992L29.4004 70.1992C31.2004 71.2992 32.3008 73.3004 32.3008 75.4004V82H23.3008V75.5C23.3008 73.4 24.3996 71.5008 26.0996 70.3008L27.8008 69.1992ZM74.8008 69.1992L76.4004 70.1992C78.2004 71.2992 79.3008 73.3004 79.3008 75.4004V82H70.3008V75.5C70.3008 73.4 71.3996 71.5008 73.0996 70.3008L74.8008 69.1992ZM19.8125 75.0254C19.725 75.0254 19.6496 75.0496 19.5996 75.0996L19.1992 75.4004C18.6992 75.7004 18.4004 76.3004 18.4004 76.9004V78.5C18.4004 78.8 18.6004 79 18.9004 79H20.9004C21.2004 79 21.4004 78.8 21.4004 78.5V76.9004C21.3004 76.2004 21 75.6008 20.5 75.3008L20.0996 75.0996C19.9996 75.0496 19.9 75.0254 19.8125 75.0254ZM66.8125 75.0254C66.725 75.0254 66.6496 75.0496 66.5996 75.0996L66.1992 75.4004C65.6992 75.7004 65.4004 76.3004 65.4004 76.9004V78.5C65.4004 78.8 65.6004 79 65.9004 79H67.9004C68.2004 79 68.4004 78.8 68.4004 78.5V76.9004C68.3004 76.2004 68 75.6008 67.5 75.3008L67.0996 75.0996C66.9996 75.0496 66.9 75.0254 66.8125 75.0254ZM82.8125 75.0254C82.725 75.0254 82.6496 75.0496 82.5996 75.0996L82.1992 75.4004C81.6992 75.7004 81.4004 76.3004 81.4004 76.9004V78.5C81.4004 78.8 81.6004 79 81.9004 79H83.9004C84.2004 79 84.4004 78.8 84.4004 78.5V76.9004C84.3004 76.2004 84 75.6008 83.5 75.3008L83.0996 75.0996C82.9996 75.0496 82.9 75.0254 82.8125 75.0254ZM35.8125 75.125C35.725 75.125 35.6496 75.1492 35.5996 75.1992L35.1992 75.5C34.6992 75.8 34.4004 76.4 34.4004 77V78.5996C34.3004 78.7996 34.5008 79 34.8008 79H36.8008C37.1008 79 37.3008 78.8 37.3008 78.5V76.9004C37.3008 76.3004 37 75.7004 36.5 75.4004L36.0996 75.1992C35.9996 75.1492 35.9 75.125 35.8125 75.125ZM19.8008 76.0996L19.9004 76.1992C20.1004 76.3992 20.3008 76.6004 20.3008 76.9004V78H19.3008V76.9004C19.3008 76.6004 19.3992 76.3992 19.6992 76.1992L19.8008 76.0996ZM35.8008 76.0996L35.9004 76.1992C36.1004 76.3992 36.3008 76.6004 36.3008 76.9004V78H35.3008V76.9004C35.3008 76.6004 35.3992 76.3992 35.6992 76.1992L35.8008 76.0996ZM66.8008 76.0996L66.9004 76.1992C67.1004 76.3992 67.3008 76.6004 67.3008 76.9004V78H66.3008V76.9004C66.3008 76.6004 66.3992 76.3992 66.6992 76.1992L66.8008 76.0996ZM82.8008 76.0996L82.9004 76.1992C83.1004 76.3992 83.3008 76.6004 83.3008 76.9004V78H82.3008V76.9004C82.3008 76.6004 82.3992 76.3992 82.6992 76.1992L82.8008 76.0996Z" fill="#FCAE55"/>
</svg>
