<svg width="100" height="100" viewBox="0 0 100 100" fill="none" xmlns="http://www.w3.org/2000/svg">
<path d="M49.8008 36.5742C46.2258 36.5742 42.6492 36.9492 39.1992 37.6992C38.9992 37.6992 38.8008 37.9992 38.8008 38.1992V39.9004C36.9008 40.4004 34.9992 40.8996 33.1992 41.5996C32.3992 41.5996 31.8008 40.8996 31.8008 40.0996C31.8008 39.7996 31.6008 39.5996 31.3008 39.5996C31.0008 39.5996 30.8008 39.7996 30.8008 40.0996C30.8008 41.2996 31.7008 42.3 32.8008 42.5V54.5H31.8008C31.8008 48.5 28.6004 43.2004 23.4004 40.4004C23.8004 40.3004 24.3008 40.1992 24.8008 40.1992C26.7008 40.1992 28.5008 41.3 29.3008 43C29.4008 43.2 29.6008 43.3008 29.8008 43.3008H30C30.2 43.2008 30.3992 42.8996 30.1992 42.5996C29.1992 40.4996 27.1008 39.1992 24.8008 39.1992C24.2008 39.1992 23.6 39.3 23 39.5C24.6 38.6 26.4008 38.2996 28.3008 38.5996C28.6008 38.5996 28.8004 38.4992 28.9004 38.1992C29.0004 37.8992 28.8 37.6996 28.5 37.5996C25.9 37.1996 23.1992 37.9 21.1992 39.5C21.0992 39.5 21.0996 39.5996 21.0996 39.5996C20.3996 39.7996 19.8008 40.1992 19.3008 40.6992C18.5008 41.4992 18 42.6008 18 43.8008C18 44.1008 18.2 44.3008 18.5 44.3008C18.8 44.3008 19 44.1008 19 43.8008C19 42.9008 19.4 42.0004 20 41.4004C20.3 41.1004 20.5004 41.0008 20.9004 40.8008H21C20.7 41.4008 20.4004 42.2004 20.4004 42.9004C20.4004 44.5004 21.2992 46.1004 22.6992 46.9004C22.7992 46.9004 22.9004 47 22.9004 47C23.1004 47 23.2008 46.8992 23.3008 46.6992C23.4008 46.4992 23.2996 46.2 23.0996 46C21.9996 45.4 21.3008 44.2004 21.3008 42.9004C21.3008 42.2004 21.5008 41.5996 21.8008 41.0996C24.8008 44.1996 26.6008 48.2996 26.8008 52.5996C26.0008 51.9996 25.4004 51.2004 24.9004 50.4004C24.9004 50.4004 24.9008 50.3008 24.8008 50.3008L24.6992 50.1992H24.5996H24.5H24.4004H24.3008H24.1992L24.0996 50.3008L24 50.4004C23.2 51.8004 22.8008 53.4 22.8008 55C22.8008 58.7 24.9996 61.9 28.0996 63.5H18.3008C18.0008 63.5 17.8008 63.7 17.8008 64C17.8008 64.3 18.0008 64.5 18.3008 64.5H32.3008H67.3008H81.3008C81.6008 64.5 81.8008 64.3 81.8008 64C81.7008 63.7 81.4992 63.5 81.1992 63.5H71.4004C74.5004 61.9 76.6992 58.7 76.6992 55C76.6992 53.5 76.2996 51.8996 75.5996 50.5996C75.5996 50.4996 75.5004 50.3008 75.4004 50.3008C75.2004 50.2008 75.1004 50.2008 74.9004 50.3008H74.8008L74.6992 50.4004C74.1992 51.3004 73.5008 51.9992 72.8008 52.6992C73.0008 48.3992 74.7008 44.2992 77.8008 41.1992C78.1008 41.6992 78.3008 42.4 78.3008 43C78.3008 44.3 77.6 45.4996 76.5 46.0996C76.3 46.1996 76.2008 46.5008 76.3008 46.8008C76.4008 47.0008 76.5992 47.0996 76.6992 47.0996C76.7992 47.0996 76.9004 47.1 76.9004 47C78.3004 46.2 79.1992 44.7 79.1992 43C79.1992 42.2 78.9996 41.5004 78.5996 40.9004H78.6992L79.5996 41.5C80.1996 42.1 80.5996 43.0004 80.5996 43.9004C80.5996 44.2004 80.7996 44.4004 81.0996 44.4004C81.3996 44.4004 81.5996 44.2004 81.5996 43.9004C81.5996 42.7004 81.1008 41.6008 80.3008 40.8008C79.8008 40.3008 79.2 39.8992 78.5 39.6992C78.5 39.5992 78.4004 39.5996 78.4004 39.5996C76.4004 37.9996 73.6996 37.1992 71.0996 37.6992C70.7996 37.6992 70.5992 38.0008 70.6992 38.3008C70.6992 38.6008 71.0008 38.7992 71.3008 38.6992C73.1008 38.3992 74.9996 38.6996 76.5996 39.5996C75.9996 39.3996 75.4008 39.3008 74.8008 39.3008C72.5008 39.3008 70.4004 40.5992 69.4004 42.6992C69.3004 42.8992 69.3996 43.2004 69.5996 43.4004H69.8008C70.0008 43.4004 70.2008 43.2996 70.3008 43.0996C71.1008 41.3996 72.9008 40.3008 74.8008 40.3008C75.3008 40.3008 75.6992 40.4 76.1992 40.5C71.0992 43.3 67.8008 48.5996 67.8008 54.5996H66.8008V42.5996C67.9008 42.3996 68.8008 41.3996 68.8008 40.0996C68.8008 39.7996 68.6008 39.5996 68.3008 39.5996C68.0008 39.5996 67.8008 39.7996 67.8008 40.0996C67.8008 40.8996 67.2004 41.4996 66.4004 41.5996C64.6004 40.8996 62.7008 40.3004 60.8008 39.9004V38.1992C60.8008 37.9992 60.6004 37.7992 60.4004 37.6992C56.9504 36.9492 53.3758 36.5742 49.8008 36.5742ZM49.6992 37.4492C53.0742 37.4492 56.4492 37.8 59.6992 38.5V39.5C56.3992 38.8 53.0992 38.4004 49.6992 38.4004C46.2992 38.4004 42.9992 38.8 39.6992 39.5V38.5C42.9492 37.8 46.3242 37.4492 49.6992 37.4492ZM49.6992 39.5C55.1992 39.5 60.5992 40.5004 65.6992 42.4004V54.5H62.6992V48.5C62.6992 46.8 61.3992 45.5 59.6992 45.5C57.9992 45.5 56.6992 46.8 56.6992 48.5V54.5H53.6992V46.5C53.6992 44.3 51.8992 42.5 49.6992 42.5C47.4992 42.5 45.6992 44.3 45.6992 46.5V54.5H42.6992V48.5C42.6992 46.8 41.3992 45.5 39.6992 45.5C37.9992 45.5 36.6992 46.8 36.6992 48.5V54.5H33.6992V42.4004C38.7992 40.5004 44.1992 39.5 49.6992 39.5ZM23.5996 41.6992C23.9996 41.8992 24.4008 42.2 24.8008 42.5H24.1992C23.9992 42.2 23.7996 41.8992 23.5996 41.6992ZM75.9004 41.6992C75.7004 41.8992 75.5008 42.2 75.3008 42.5H74.6992C75.0992 42.2 75.5004 41.8992 75.9004 41.6992ZM24.9004 43.5H26C26.6 44.1 27.2008 44.8 27.8008 45.5H26C25.7 44.8 25.3004 44.1 24.9004 43.5ZM49.6992 43.5C51.3992 43.5 52.6992 44.8 52.6992 46.5V54.5H46.6992V46.5C46.6992 44.8 47.9992 43.5 49.6992 43.5ZM73.5 43.5H74.5996C74.1996 44.1 73.8 44.8 73.5 45.5H71.6992C72.2992 44.8 72.9 44.1 73.5 43.5ZM26.4004 46.5H28.5C28.9 47.1 29.2 47.8 29.5 48.5H27.0996C26.8996 47.8 26.7004 47.2 26.4004 46.5ZM39.6992 46.5C40.7992 46.5 41.6992 47.4 41.6992 48.5V54.5H37.6992V48.5C37.6992 47.4 38.5992 46.5 39.6992 46.5ZM59.6992 46.5C60.7992 46.5 61.6992 47.4 61.6992 48.5V54.5H57.6992V48.5C57.6992 47.4 58.5992 46.5 59.6992 46.5ZM71 46.5H73.0996C72.7996 47.2 72.6004 47.8 72.4004 48.5H70C70.3 47.8 70.6 47.1 71 46.5ZM27.3008 49.5H29.9004C30.1004 50.1 30.3004 50.8 30.4004 51.5H27.6992H27.5996C27.5996 50.8 27.5008 50.2 27.3008 49.5ZM69.5996 49.5H72.1992C72.0992 50.2 71.9004 50.8 71.9004 51.5H71.8008H69.0996C69.1996 50.8 69.3996 50.1 69.5996 49.5ZM24.4004 51.6992C25.1004 52.5992 25.9008 53.4 26.8008 54L27 54.1992C28.2 54.8992 29.6 55.4 31 55.5H31.0996H31.1992H31.5996H33.0996H34.5996V56.5996C33.4996 56.7996 32.5996 57.8 32.5996 59C32.5996 60.4 33.6996 61.5 35.0996 61.5C36.4996 61.5 37.5996 60.4 37.5996 59C37.5996 57.8 36.6996 56.7996 35.5996 56.5996V55.5H43.5996V56.5996C42.4996 56.7996 41.5996 57.8 41.5996 59C41.5996 60.4 42.6996 61.5 44.0996 61.5C45.4996 61.5 46.5996 60.4 46.5996 59C46.5996 57.8 45.6996 56.7996 44.5996 56.5996V55.5H54.5996V56.5996C53.4996 56.7996 52.5996 57.8 52.5996 59C52.5996 60.4 53.6996 61.5 55.0996 61.5C56.4996 61.5 57.5996 60.4 57.5996 59C57.5996 57.8 56.6996 56.7996 55.5996 56.5996V55.5H63.5996V56.5996C62.4996 56.7996 61.5996 57.8 61.5996 59C61.5996 60.4 62.6996 61.5 64.0996 61.5C65.4996 61.5 66.5996 60.4 66.5996 59C66.5996 57.8 65.6996 56.7996 64.5996 56.5996V55.5H66.0996H67.5996H68H68.0996H68.1992C70.8992 55.3 73.3004 53.9008 74.9004 51.8008C75.3004 52.8008 75.5996 53.9996 75.5996 55.0996C75.5996 59.7996 71.7996 63.5996 67.0996 63.5996H32.1992V63.5C27.4992 63.5 23.6992 59.7 23.6992 55C23.6992 53.9 23.9004 52.6992 24.4004 51.6992ZM27.6992 52.5H30.5996C30.6996 53.1 30.6992 53.8004 30.6992 54.4004C29.5992 54.3004 28.5992 53.9004 27.6992 53.4004V53.3008V52.5ZM68.9004 52.5H71.8008H71.9004V53.3008V53.4004C71.0004 53.9004 70.0004 54.3004 68.9004 54.4004C68.8004 53.8004 68.8004 53.1 68.9004 52.5ZM35.1992 57.5C35.9992 57.5 36.6992 58.2 36.6992 59C36.6992 59.8 35.9992 60.5 35.1992 60.5C34.3992 60.5 33.6992 59.8 33.6992 59C33.6992 58.2 34.3992 57.5 35.1992 57.5ZM44.1992 57.5C44.9992 57.5 45.6992 58.2 45.6992 59C45.6992 59.8 44.9992 60.5 44.1992 60.5C43.3992 60.5 42.6992 59.8 42.6992 59C42.6992 58.2 43.3992 57.5 44.1992 57.5ZM55.1992 57.5C55.9992 57.5 56.6992 58.2 56.6992 59C56.6992 59.8 55.9992 60.5 55.1992 60.5C54.3992 60.5 53.6992 59.8 53.6992 59C53.6992 58.2 54.3992 57.5 55.1992 57.5ZM64.1992 57.5C64.9992 57.5 65.6992 58.2 65.6992 59C65.6992 59.8 64.9992 60.5 64.1992 60.5C63.3992 60.5 62.6992 59.8 62.6992 59C62.6992 58.2 63.3992 57.5 64.1992 57.5ZM18.1992 66.5C17.8992 66.5 17.6992 66.7 17.6992 67C17.6992 67.3 17.9992 67.5 18.1992 67.5H21.1992C21.4992 67.5 21.6992 67.3 21.6992 67C21.6992 66.7 21.4992 66.5 21.1992 66.5H18.1992ZM24.1992 66.5C23.8992 66.5 23.6992 66.7 23.6992 67C23.6992 67.3 23.8992 67.5 24.1992 67.5H47.1992C47.4992 67.5 47.6992 67.3 47.6992 67C47.6992 66.7 47.4992 66.5 47.1992 66.5H24.1992ZM50.1992 66.5C49.8992 66.5 49.6992 66.7 49.6992 67C49.6992 67.3 49.8992 67.5 50.1992 67.5H55.1992C55.4992 67.5 55.6992 67.3 55.6992 67C55.6992 66.7 55.4992 66.5 55.1992 66.5H50.1992ZM58.1992 66.5C57.8992 66.5 57.6992 66.7 57.6992 67C57.6992 67.3 57.8992 67.5 58.1992 67.5H81.1992C81.4992 67.5 81.6992 67.3 81.6992 67C81.6992 66.7 81.4992 66.5 81.1992 66.5H58.1992ZM18.1992 69.5C17.8992 69.5 17.6992 69.7 17.6992 70C17.6992 70.3 17.9992 70.5 18.1992 70.5H28.1992C28.4992 70.5 28.6992 70.3 28.6992 70C28.6992 69.7 28.4992 69.5 28.1992 69.5H18.1992ZM31.1992 69.5C30.9992 69.5 30.6992 69.7 30.6992 70C30.6992 70.3 30.8992 70.5 31.1992 70.5H71.1992C71.4992 70.5 71.6992 70.3 71.6992 70C71.6992 69.7 71.4992 69.5 71.1992 69.5H31.1992ZM74.1992 69.5C73.8992 69.5 73.6992 69.7 73.6992 70C73.6992 70.3 73.8992 70.5 74.1992 70.5H81.1992C81.4992 70.5 81.6992 70.3 81.6992 70C81.6992 69.7 81.4992 69.5 81.1992 69.5H74.1992ZM18.1992 72.5C17.8992 72.5 17.6992 72.7 17.6992 73C17.6992 73.3 17.9992 73.5 18.1992 73.5H23.1992C23.4992 73.5 23.6992 73.3 23.6992 73C23.6992 72.7 23.4992 72.5 23.1992 72.5H18.1992ZM26.1992 72.5C25.8992 72.5 25.6992 72.7 25.6992 73C25.6992 73.3 25.8992 73.5 26.1992 73.5H51.1992C51.4992 73.5 51.6992 73.3 51.6992 73C51.6992 72.7 51.4992 72.5 51.1992 72.5H26.1992ZM54.1992 72.5C53.8992 72.5 53.6992 72.7 53.6992 73C53.6992 73.3 53.8992 73.5 54.1992 73.5H63.1992C63.4992 73.5 63.6992 73.3 63.6992 73C63.6992 72.7 63.4992 72.5 63.1992 72.5H54.1992ZM66.1992 72.5C65.8992 72.5 65.6992 72.7 65.6992 73C65.6992 73.3 65.8992 73.5 66.1992 73.5H81.0996C81.3996 73.5 81.5996 73.3 81.5996 73C81.5996 72.7 81.4992 72.5 81.1992 72.5H66.1992ZM18.1992 75.5C17.8992 75.5 17.6992 75.7 17.6992 76C17.6992 76.3 17.9992 76.5 18.1992 76.5H35.1992C35.4992 76.5 35.6992 76.3 35.6992 76C35.6992 75.7 35.4992 75.5 35.1992 75.5H18.1992ZM38.1992 75.5C37.8992 75.5 37.6992 75.7 37.6992 76C37.6992 76.3 37.9992 76.5 38.1992 76.5H43.1992C43.4992 76.5 43.6992 76.3 43.6992 76C43.6992 75.7 43.4992 75.5 43.1992 75.5H38.1992ZM46.1992 75.5C45.8992 75.5 45.6992 75.7 45.6992 76C45.6992 76.3 45.8992 76.5 46.1992 76.5H69.1992C69.4992 76.5 69.6992 76.3 69.6992 76C69.6992 75.7 69.4992 75.5 69.1992 75.5H46.1992ZM72.1992 75.5C71.8992 75.5 71.6992 75.7 71.6992 76C71.6992 76.3 71.8992 76.5 72.1992 76.5H79.1992C79.4992 76.5 79.6992 76.3 79.6992 76C79.6992 75.7 79.4992 75.5 79.1992 75.5H72.1992ZM18.1992 78.5C17.8992 78.5 17.6992 78.7 17.6992 79C17.6992 79.3 17.8992 79.5 18.1992 79.5H23.1992C23.4992 79.5 23.6992 79.3 23.6992 79C23.6992 78.7 23.4992 78.5 23.1992 78.5H18.1992ZM26.1992 78.5C25.8992 78.5 25.6992 78.7 25.6992 79C25.6992 79.3 25.8992 79.5 26.1992 79.5H31.1992C31.4992 79.5 31.6992 79.3 31.6992 79C31.6992 78.7 31.4992 78.5 31.1992 78.5H26.1992ZM34.1992 78.5C33.8992 78.5 33.6992 78.7 33.6992 79C33.6992 79.3 33.8992 79.5 34.1992 79.5H57.1992C57.4992 79.5 57.6992 79.3 57.6992 79C57.6992 78.7 57.4992 78.5 57.1992 78.5H34.1992ZM60.1992 78.5C59.8992 78.5 59.6992 78.7 59.6992 79C59.6992 79.3 59.8992 79.5 60.1992 79.5H81.1992C81.4992 79.5 81.6992 79.3 81.6992 79C81.6992 78.7 81.4992 78.5 81.1992 78.5H60.1992ZM20.1992 81.5C19.8992 81.5 19.6992 81.7 19.6992 82C19.6992 82.3 19.8992 82.5 20.1992 82.5H27.1992C27.4992 82.5 27.6992 82.3 27.6992 82C27.6992 81.7 27.4992 81.5 27.1992 81.5H20.1992ZM30.1992 81.5C29.8992 81.5 29.6992 81.7 29.6992 82C29.6992 82.3 29.8992 82.5 30.1992 82.5H53.1992C53.4992 82.5 53.6992 82.3 53.6992 82C53.6992 81.7 53.4992 81.5 53.1992 81.5H30.1992ZM56.1992 81.5C55.8992 81.5 55.6992 81.7 55.6992 82C55.6992 82.3 55.8992 82.5 56.1992 82.5H61.1992C61.4992 82.5 61.6992 82.3 61.6992 82C61.6992 81.7 61.4992 81.5 61.1992 81.5H56.1992ZM64.1992 81.5C63.8992 81.5 63.6992 81.7 63.6992 82C63.6992 82.3 63.8992 82.5 64.1992 82.5H81.1992C81.4992 82.5 81.6992 82.3 81.6992 82C81.6992 81.7 81.4992 81.5 81.1992 81.5H64.1992Z" fill="#FCAE55"/>
</svg>
