<svg width="128" height="74" viewBox="0 0 128 74" fill="none" xmlns="http://www.w3.org/2000/svg">
<path d="M18.0846 36.76V38.132H13.8006L13.5626 40.568C14.1973 40.2787 14.8226 40.134 15.4386 40.134C17.4173 40.134 18.4066 41.058 18.4066 42.906C18.4066 43.9513 18.1313 44.754 17.5806 45.314C17.0393 45.874 16.2693 46.154 15.2706 46.154C14.8506 46.154 14.3746 46.112 13.8426 46.028C13.3106 45.9533 12.8859 45.8787 12.5686 45.804L12.0926 45.678L12.2606 44.502C13.3619 44.6887 14.3046 44.782 15.0886 44.782C15.6299 44.782 16.0499 44.6327 16.3486 44.334C16.6473 44.0353 16.7966 43.6107 16.7966 43.06C16.7966 42.5093 16.6659 42.1127 16.4046 41.87C16.1433 41.6273 15.8026 41.506 15.3826 41.506C14.6266 41.506 14.0106 41.5993 13.5346 41.786L13.2826 41.884L12.3026 41.674L12.5546 36.76H18.0846ZM21.9006 40.302V46H20.3886V40.302H19.5766V39H20.3886V38.552C20.3886 37.5533 20.5332 36.8673 20.8226 36.494C21.1119 36.1207 21.6252 35.934 22.3626 35.934L23.8746 36.074L23.8606 37.32C23.4032 37.3013 23.0206 37.292 22.7126 37.292C22.4139 37.292 22.2039 37.3853 22.0826 37.572C21.9612 37.7493 21.9006 38.0807 21.9006 38.566V39H23.7486V40.302H21.9006ZM28.6724 40.302H26.7404V43.382C26.7404 43.9513 26.7824 44.3293 26.8664 44.516C26.9504 44.7027 27.1651 44.796 27.5104 44.796L28.6584 44.754L28.7284 45.972C28.1031 46.0933 27.6271 46.154 27.3004 46.154C26.5071 46.154 25.9611 45.972 25.6624 45.608C25.3731 45.244 25.2284 44.558 25.2284 43.55V40.302H24.3324V39H25.2284V36.97H26.7404V39H28.6724V40.302Z" fill="#828282"/>
<line x1="32.2802" y1="24.7197" x2="36.7994" y2="24.7197" stroke="#828282" stroke-width="0.560702" stroke-linecap="round"/>
<line x1="32.2802" y1="57.0342" x2="36.7994" y2="57.0342" stroke="#828282" stroke-width="0.560702" stroke-linecap="round"/>
<line x1="34.2802" y1="25.2804" x2="34.2802" y2="56.7197" stroke="#828282" stroke-width="0.560702" stroke-linecap="square"/>
<line x1="95.4697" y1="13.1583" x2="95.4697" y2="18.0911" stroke="#828282" stroke-width="0.560702" stroke-linecap="round"/>
<line x1="41.2868" y1="13.1593" x2="41.2868" y2="18.092" stroke="#828282" stroke-width="0.560702" stroke-linecap="round"/>
<line x1="94.909" y1="15.5128" x2="41.2803" y2="15.5128" stroke="#828282" stroke-width="0.560702" stroke-linecap="square"/>
<path d="M59.718 11V9.348H55.56V8.158L57.996 1.76H59.718L57.142 7.99H59.718V5.274H61.286V7.99H62.294V9.348H61.286V11H59.718ZM63.688 11V8.984H65.326V11H63.688ZM73.0716 11H67.1216V9.67L69.4036 7.318C70.0943 6.60867 70.5796 6.05333 70.8596 5.652C71.1396 5.25067 71.2796 4.812 71.2796 4.336C71.2796 3.85067 71.1443 3.50533 70.8736 3.3C70.6029 3.09467 70.1596 2.992 69.5436 2.992C68.9649 2.992 68.3256 3.05733 67.6256 3.188L67.2756 3.244L67.1776 2.012C68.0829 1.74133 69.0209 1.606 69.9916 1.606C71.9236 1.606 72.8896 2.46467 72.8896 4.182C72.8896 4.854 72.7403 5.43733 72.4416 5.932C72.1523 6.42667 71.6296 7.024 70.8736 7.724L68.8996 9.642H73.0716V11ZM76.7756 5.302V11H75.2636V5.302H74.4516V4H75.2636V3.552C75.2636 2.55333 75.4082 1.86733 75.6976 1.494C75.9869 1.12067 76.5002 0.933999 77.2376 0.933999L78.7496 1.074L78.7356 2.32C78.2782 2.30133 77.8956 2.292 77.5876 2.292C77.2889 2.292 77.0789 2.38533 76.9576 2.572C76.8362 2.74933 76.7756 3.08067 76.7756 3.566V4H78.6236V5.302H76.7756ZM83.5474 5.302H81.6154V8.382C81.6154 8.95133 81.6574 9.32933 81.7414 9.516C81.8254 9.70267 82.0401 9.796 82.3854 9.796L83.5334 9.754L83.6034 10.972C82.9781 11.0933 82.5021 11.154 82.1754 11.154C81.3821 11.154 80.8361 10.972 80.5374 10.608C80.2481 10.244 80.1034 9.558 80.1034 8.55V5.302H79.2074V4H80.1034V1.97H81.6154V4H83.5474V5.302Z" fill="#828282"/>
<path d="M120.238 72.6691C124.525 72.6691 128 69.1978 128 64.9157C128 60.6336 124.525 57.1622 120.238 57.1622C115.951 57.1622 112.475 60.6336 112.475 64.9157C112.475 69.1978 115.951 72.6691 120.238 72.6691Z" fill="#1F1F31"/>
<path d="M120.207 68.7123C122.27 68.7123 123.943 67.0414 123.943 64.9803C123.943 62.9192 122.27 61.2483 120.207 61.2483C118.143 61.2483 116.47 62.9192 116.47 64.9803C116.47 67.0414 118.143 68.7123 120.207 68.7123Z" fill="#ADB2BF"/>
<path d="M120.207 66.7042C121.16 66.7042 121.932 65.9324 121.932 64.9804C121.932 64.0283 121.16 63.2565 120.207 63.2565C119.253 63.2565 118.481 64.0283 118.481 64.9804C118.481 65.9324 119.253 66.7042 120.207 66.7042Z" fill="#1F1F31"/>
<path d="M117.974 64.0112C118.259 64.0112 118.491 63.7798 118.491 63.4943C118.491 63.2088 118.259 62.9774 117.974 62.9774C117.688 62.9774 117.456 63.2088 117.456 63.4943C117.456 63.7798 117.688 64.0112 117.974 64.0112Z" fill="#1F1F31"/>
<path d="M122.372 64.0112C122.658 64.0112 122.89 63.7798 122.89 63.4943C122.89 63.2088 122.658 62.9774 122.372 62.9774C122.086 62.9774 121.855 63.2088 121.855 63.4943C121.855 63.7798 122.086 64.0112 122.372 64.0112Z" fill="#1F1F31"/>
<path d="M117.974 67.1127C118.259 67.1127 118.491 66.8812 118.491 66.5958C118.491 66.3103 118.259 66.0789 117.974 66.0789C117.688 66.0789 117.456 66.3103 117.456 66.5958C117.456 66.8812 117.688 67.1127 117.974 67.1127Z" fill="#1F1F31"/>
<path d="M122.372 67.1127C122.658 67.1127 122.89 66.8812 122.89 66.5958C122.89 66.3103 122.658 66.0789 122.372 66.0789C122.086 66.0789 121.855 66.3103 121.855 66.5958C121.855 66.8812 122.086 67.1127 122.372 67.1127Z" fill="#1F1F31"/>
<path d="M110.238 37.3374L113.139 38.4616" stroke="#1F1F31" stroke-width="0.632935" stroke-linecap="round"/>
<path d="M109.472 41.4979L113.896 39.6846" stroke="#1F1F31" stroke-width="0.632935" stroke-linecap="round"/>
<path d="M38.3165 43.0267H86.6305V52.3097H38.3165V43.0267Z" stroke="#1F1F31" stroke-width="0.632935"/>
<path d="M38.3165 50.8329H86.6305V52.3097H38.3165V50.8329Z" fill="white" stroke="#1F1F31" stroke-width="0.632935"/>
<path d="M87.2634 32.6888V50.3335" stroke="#1F1F31" stroke-width="0.632935" stroke-linecap="round"/>
<path d="M44.7513 43.4487L44.7513 50.411" stroke="#1F1F31" stroke-width="0.632935" stroke-linecap="round"/>
<path d="M53.1904 43.3432L53.1904 50.5165" stroke="#1F1F31" stroke-width="0.632935" stroke-linecap="round"/>
<path d="M61.6295 43.3432L61.6295 50.5165" stroke="#1F1F31" stroke-width="0.632935" stroke-linecap="round"/>
<path d="M70.0687 43.3432L70.0687 50.5165" stroke="#1F1F31" stroke-width="0.632935" stroke-linecap="round"/>
<path d="M78.5078 43.3432L78.5078 50.5165" stroke="#1F1F31" stroke-width="0.632935" stroke-linecap="round"/>
<path d="M87.4744 40.8956L97.9832 40.8956C99.422 40.8956 100.495 42.222 100.194 43.629L98.709 50.569" stroke="#1F1F31" stroke-width="0.632935"/>
<path d="M87.2634 40.8956H94.8185C96.2573 40.8956 97.3299 42.222 97.029 43.6289L95.5443 50.569" stroke="#1F1F31" stroke-width="0.632935"/>
<path d="M124.328 54.5343L118.383 51.3604L117.433 55.2635L124.607 56.3183V54.9996C124.607 54.8049 124.499 54.626 124.328 54.5343Z" fill="white" stroke="#1F1F31" stroke-width="0.632935"/>
<path d="M114.806 59.3571L116.411 50.0243C117.238 45.2229 116.209 40.2869 113.533 36.2153L104.458 22.4035L102.212 20.9182C100.308 19.6594 98.0679 19.0064 95.786 19.0451L93.6983 19.0806V21.7706C95.0521 21.6651 97.6549 21.5569 99.9221 23.7749C101.827 25.638 104.934 31.1521 107.534 36.1586C108.869 38.7286 109.607 41.5651 109.519 44.4597C109.346 50.1837 108.609 58.6891 107.043 62.1729H111.464C113.115 62.1729 114.526 60.984 114.806 59.3571Z" fill="#1F1F31" stroke="#1F1F31" stroke-width="0.632935"/>
<path d="M102.019 23.8438L103.667 22.7728C108.678 24.2497 114.171 36.3598 112.95 36.6447L112.918 36.6522C111.359 37.016 110.717 37.1658 109.205 35.4315C106.926 32.2799 103.266 26.6321 101.87 24.5936C101.7 24.3457 101.767 24.0075 102.019 23.8438Z" fill="#ADB2BF" stroke="#1F1F31" stroke-width="0.632935"/>
<path d="M97.7069 19.0806H87.9039C86.9676 19.0806 86.2086 19.8397 86.2086 20.776V21.0849M97.7069 19.0806V19.0806C100.799 18.8832 103.782 20.2628 105.634 22.7473L109.152 27.467L115.88 36.4272C119.632 41.4249 120.719 47.9351 118.794 53.8808L116.716 60.3011C116.263 61.7 114.96 62.6477 113.49 62.6477H112.528M97.7069 19.0806V20.7685M97.7069 20.7685C99.0607 20.663 101.663 21.5569 103.931 23.7749C105.841 25.6435 109.516 31.1842 112.357 36.2022C113.784 38.7222 114.515 41.5628 114.511 44.4588C114.502 50.3147 114.101 59.1497 112.528 62.6477M97.7069 20.7685L86.2086 21.0849M112.528 62.6477H95.7026V50.8329H86.2086V21.0849" stroke="#1F1F31" stroke-width="0.632935"/>
<path d="M85.9976 39.862L85.9976 31.4229L87.1579 31.4229C87.7405 31.4229 88.2128 31.8952 88.2128 32.4778L88.2128 38.8071C88.2128 39.3897 87.7405 39.862 87.1579 39.862L85.9976 39.862Z" fill="#1F1F31"/>
<path d="M97.7069 19.2073L88.4509 19.1005C87.507 19.0896 86.736 19.8518 86.736 20.7957V21.9289L97.4959 21.7918L97.7069 19.2073Z" fill="#1F1F31" stroke="#1F1F31" stroke-width="0.632935"/>
<path d="M116.728 59.8516L118.69 53.9471C120.678 47.9663 119.606 41.391 115.822 36.351L109.152 27.467L106.138 23.4227C103.969 20.5131 100.487 18.883 96.8629 19.0806V20.7685C98.2167 20.663 100.978 21.6097 103.245 23.8276C105.149 25.6901 108.611 30.9732 111.365 35.8801C112.782 38.4056 113.507 41.2487 113.393 44.1424C113.164 49.9545 112.305 58.6796 110.735 62.173H113.51C114.971 62.173 116.267 61.2376 116.728 59.8516Z" fill="white" stroke="#1F1F31" stroke-width="0.632935"/>
<path d="M111.948 37.0138L112.264 31.7394" stroke="#1F1F31" stroke-width="0.632935" stroke-linecap="round" stroke-linejoin="round"/>
<path d="M111.731 33.6982C112.892 33.6982 113.834 32.4804 113.834 30.9782C113.834 29.476 112.892 28.2582 111.731 28.2582C110.569 28.2582 109.627 29.476 109.627 30.9782C109.627 32.4804 110.569 33.6982 111.731 33.6982Z" fill="#1F1F31"/>
<rect x="43.5909" y="54.2086" width="24.2625" height="8.43913" fill="#1F1F31"/>
<path d="M40.2153 52.3098H84.7317V62.6477H40.2153V58.5491V52.3098Z" fill="white" stroke="#1F1F31" stroke-width="0.632935"/>
<mask id="path-39-inside-1_509_4" fill="white">
<rect x="84.2043" y="49.989" width="15.6124" height="12.9752" rx="0.105489"/>
</mask>
<rect x="84.2043" y="49.989" width="15.6124" height="12.9752" rx="0.105489" fill="white" stroke="#1F1F31" stroke-width="1.26587" mask="url(#path-39-inside-1_509_4)"/>
<path d="M108.302 60.1687H100.028C99.7363 60.1687 99.5002 60.4048 99.5002 60.6961V62.0675C99.5002 62.3588 99.7363 62.595 100.028 62.595H107.437C107.618 62.595 107.787 62.502 107.884 62.3488L108.748 60.9774C108.97 60.6262 108.717 60.1687 108.302 60.1687Z" fill="#1F1F31" stroke="#1F1F31" stroke-width="0.632935"/>
<path d="M55.5728 72.6691C59.8598 72.6691 63.3351 69.1978 63.3351 64.9157C63.3351 60.6336 59.8598 57.1622 55.5728 57.1622C51.2858 57.1622 47.8105 60.6336 47.8105 64.9157C47.8105 69.1978 51.2858 72.6691 55.5728 72.6691Z" fill="#1F1F31"/>
<path d="M55.5418 68.7123C57.6053 68.7123 59.2781 67.0414 59.2781 64.9803C59.2781 62.9192 57.6053 61.2483 55.5418 61.2483C53.4783 61.2483 51.8055 62.9192 51.8055 64.9803C51.8055 67.0414 53.4783 68.7123 55.5418 68.7123Z" fill="#ADB2BF"/>
<path d="M55.5417 66.7042C56.4949 66.7042 57.2676 65.9324 57.2676 64.9804C57.2676 64.0283 56.4949 63.2565 55.5417 63.2565C54.5886 63.2565 53.8159 64.0283 53.8159 64.9804C53.8159 65.9324 54.5886 66.7042 55.5417 66.7042Z" fill="#1F1F31"/>
<path d="M53.3088 64.0112C53.5946 64.0112 53.8263 63.7798 53.8263 63.4943C53.8263 63.2088 53.5946 62.9774 53.3088 62.9774C53.023 62.9774 52.7913 63.2088 52.7913 63.4943C52.7913 63.7798 53.023 64.0112 53.3088 64.0112Z" fill="#1F1F31"/>
<path d="M57.7075 64.0112C57.9933 64.0112 58.2249 63.7798 58.2249 63.4943C58.2249 63.2088 57.9933 62.9774 57.7075 62.9774C57.4217 62.9774 57.19 63.2088 57.19 63.4943C57.19 63.7798 57.4217 64.0112 57.7075 64.0112Z" fill="#1F1F31"/>
<path d="M53.3088 67.1127C53.5946 67.1127 53.8263 66.8812 53.8263 66.5958C53.8263 66.3103 53.5946 66.0789 53.3088 66.0789C53.023 66.0789 52.7913 66.3103 52.7913 66.5958C52.7913 66.8812 53.023 67.1127 53.3088 67.1127Z" fill="#1F1F31"/>
<path d="M57.7075 67.1127C57.9933 67.1127 58.225 66.8812 58.225 66.5958C58.225 66.3103 57.9933 66.0789 57.7075 66.0789C57.4217 66.0789 57.19 66.3103 57.19 66.5958C57.19 66.8812 57.4217 67.1127 57.7075 67.1127Z" fill="#1F1F31"/>
<path d="M51.7141 55.9726L45.9117 62.6582H49.2346L52.4519 58.526C52.5518 58.3977 52.7054 58.3226 52.868 58.3226H58.0918C58.26 58.3226 58.4181 58.4029 58.5174 58.5386L61.5241 62.6477H65.1635L59.6252 55.9813C59.525 55.8607 59.3763 55.7909 59.2195 55.7909H52.1124C51.9596 55.7909 51.8143 55.8572 51.7141 55.9726Z" fill="white" stroke="#1F1F31" stroke-width="0.632935"/>
<path d="M87.2634 46.0859H100.239C100.53 46.0859 100.766 46.322 100.766 46.6133V49.4615C100.766 49.7528 100.53 49.989 100.239 49.989H87.2634V46.0859Z" fill="#1F1F31"/>
<path d="M85.8921 20.874C85.8921 20.5244 86.1755 20.241 86.525 20.241C86.8746 20.241 87.158 20.5244 87.158 20.874V50.5164H85.8921V20.874Z" fill="#1F1F31"/>
<path d="M116.388 45.9212L116.019 41.8181C115.987 41.4656 116.292 41.1758 116.643 41.2259L117.009 41.2782C117.287 41.3179 117.548 41.4325 117.765 41.6098L118.782 42.4398C119.559 43.0741 119.988 44.0402 119.937 45.042L119.701 49.7252V50.2143C119.701 50.3811 119.566 50.5164 119.399 50.5164C119.222 50.5164 119.053 50.364 118.981 50.2013C118.658 49.4644 117.513 47.8492 116.722 46.7878C116.533 46.5348 116.416 46.2356 116.388 45.9212Z" fill="#1F1F31" stroke="#1F1F31" stroke-width="0.632935"/>
<path d="M120.323 44.7673H119.701V49.8308C121.73 48.7773 121.33 46.3799 120.785 45.0656C120.709 44.88 120.524 44.7673 120.323 44.7673Z" fill="#1F1F31" stroke="#1F1F31" stroke-width="0.632935"/>
<path d="M107.043 43.2136C106.958 42.7917 105.214 41.8423 104.353 41.4203C104.3 41.6313 102.77 42.2643 102.612 40.8929C102.642 40.4985 102.69 40.2437 102.856 40.0381C103.158 39.6636 103.708 39.6474 104.187 39.6863L105.408 39.7852C105.736 39.4571 106.589 39.5343 107.008 39.6196C107.031 39.6244 107.053 39.6334 107.073 39.6458L110.471 41.7368L111.631 44.7432H110.788L109.047 46.3783C108.924 45.9915 108.604 45.1652 108.309 44.9542C107.939 44.6905 107.148 43.7411 107.043 43.2136Z" fill="#1F1F31" stroke="#1F1F31" stroke-width="0.210978"/>
<path d="M101.806 40.9459L102.675 40.4794C103.029 40.2898 103.421 40.6579 103.254 41.0226C103.214 41.1093 103.146 41.1799 103.06 41.2225L102.279 41.6131C102.187 41.6591 102.083 41.6731 101.982 41.6529L101.909 41.6384C101.735 41.6036 101.61 41.451 101.61 41.2737C101.61 41.1366 101.685 41.0107 101.806 40.9459Z" fill="#1F1F31" stroke="#1F1F31" stroke-width="0.210978"/>
<rect x="38.7384" y="59.7995" width="1.79332" height="3.16467" fill="#1F1F31"/>
<rect x="38.7384" y="53.9976" width="1.79332" height="3.16467" fill="#1F1F31"/>
<path d="M39.0549 72.6692H125.767" stroke="#1F1F31" stroke-width="1.05489" stroke-linecap="round"/>
</svg>
