<svg width="32" height="32" viewBox="0 0 32 32" fill="none" xmlns="http://www.w3.org/2000/svg">
<g clip-path="url(#clip0_304_98)">
<path fillRule="evenodd" clipRule="evenodd" d="M28.8763 12.3647C28.6622 9.10517 27.2755 6.03329 24.9726 3.71704C22.6005 1.33739 19.3786 0 16.0184 0C12.6583 0 9.43641 1.33739 7.06427 3.71704C4.7611 6.03329 3.37468 9.10517 3.16028 12.3647C3.04753 14.1407 3.30932 15.9206 3.92866 17.5887C4.53624 19.2536 5.53013 20.8283 6.88288 22.2696L16.0184 32L25.1537 22.2693C26.5064 20.8279 27.5007 19.2533 28.1079 17.5884C28.7276 15.9202 28.9894 14.1403 28.8763 12.3647ZM16.0149 22.0307C15.9805 22.0307 15.9469 22.0307 15.9126 22.03C10.611 21.9731 6.34525 17.5041 6.40342 12.0672C6.41944 9.46599 7.45614 6.97522 9.28999 5.13059C11.0908 3.30132 13.5581 2.28357 16.1247 2.31102C18.6909 2.33847 21.136 3.40917 22.8969 5.27635C24.6909 7.15988 25.6737 9.67255 25.6338 12.2735C25.5753 17.675 21.27 22.0307 16.0149 22.0307ZM16.0185 11.0178C17.497 11.0178 18.6959 9.8193 18.6959 8.34039C18.6959 6.86181 17.497 5.663 16.0185 5.663C14.5399 5.663 13.3411 6.86181 13.3411 8.34039C13.3411 9.8193 14.5399 11.0178 16.0185 11.0178ZM20.2177 18.0024C20.2177 16.7072 19.4558 15.6596 18.0463 15.6596C17.1605 15.6596 16.5034 16.1358 16.2463 16.8596C16.0082 16.1358 15.332 15.6596 14.3986 15.6596C12.9986 15.6596 12.2558 16.7072 12.2558 18.012V20.4596H13.1986V18.1548C13.1986 17.3072 13.5891 16.5643 14.4653 16.5643C15.332 16.5643 15.7605 17.2786 15.7605 18.1358V20.4596H16.7034V18.1358C16.7034 17.2786 17.132 16.5643 17.9796 16.5643C18.8558 16.5643 19.2748 17.3072 19.2748 18.1548V20.4596H20.2177V18.0024ZM10.0842 5.92816C11.6941 4.29205 13.9006 3.38117 16.1959 3.4047C18.4919 3.42823 20.679 4.38683 22.2524 6.05889C25.6145 9.62331 25.5188 15.219 22.037 18.6664C21.5402 15.7749 19.0321 13.662 16.0982 13.6633C13.1642 13.6649 10.6581 15.7801 10.1642 18.6723C6.6299 15.1726 6.59395 9.47231 10.0842 5.92816ZM12.2524 8.43005C12.2524 10.5558 13.9754 12.2788 16.1011 12.2788C18.2259 12.2765 19.9476 10.5548 19.9499 8.43005C19.9499 6.30467 18.2268 4.58129 16.1011 4.58129C13.9754 4.58129 12.2524 6.30467 12.2524 8.43005Z" fill="url(#paint0_linear_304_98)"/>
</g>
<defs>
<linearGradient id="paint0_linear_304_98" x1="16.0184" y1="0" x2="16.0184" y2="32" gradientUnits="userSpaceOnUse">
<stop stop-color="#466AFF"/>
<stop offset="1" stop-color="#06B8FF"/>
</linearGradient>
<clipPath id="clip0_304_98">
<rect width="32" height="32" fill="white"/>
</clipPath>
</defs>
</svg>
