<svg xmlns="http://www.w3.org/2000/svg" enable-background="new 0 0 300 225" viewBox="0 0 300 225" id="404"><g><ellipse cx="150" cy="194.4" fill="#e6edf9" rx="113.8" ry="15.3"></ellipse><path fill="#e6edf9" d="M246.7,118.7c0-13.9-9.7-21.6-11.1-28.1c-1.6-7.7,8.2-19,4.5-26.2C231,47,212,50,199.6,43.4
		c-12.2-6.4-18.6-29-50.3-28.2c-32.9,0.8-33.1,25.5-46.9,33.3c-6.4,3.6-18,2.7-26.4,12.7c-8.8,10.5-3.7,18.9-7.1,26.4
		c-3.6,7.9-13.5,6.8-15.4,27.7c-3,32.3,21.5,46.1,67.4,50C166.4,169.3,246.7,174.8,246.7,118.7z"></path><g><g><g><rect width="1.7" height="13.4" x="228.3" y="172.4" fill="none" stroke="#007ffa" stroke-miterlimit="10" stroke-width=".291" transform="rotate(-45.001 229.151 179.127)"></rect><rect width="9.6" height="12.4" x="215.2" y="163.8" fill="none" stroke="#007ffa" stroke-miterlimit="10" stroke-width=".291" transform="rotate(-45.001 220.006 169.981)"></rect><line x1="215.6" x2="224.4" y1="165.6" y2="174.4" fill="none" stroke="#007ffa" stroke-miterlimit="10" stroke-width=".291"></line><g><line x1="214.4" x2="221.4" y1="171.3" y2="164.4" fill="none" stroke="#007ffa" stroke-miterlimit="10" stroke-width=".291"></line><line x1="218.1" x2="225" y1="175" y2="168.1" fill="none" stroke="#007ffa" stroke-miterlimit="10" stroke-width=".291"></line></g></g><g><rect width="9.6" height="12.4" x="233.7" y="181.9" fill="none" stroke="#007ffa" stroke-miterlimit="10" stroke-width=".291" transform="rotate(-45.001 238.475 188.111)"></rect><line x1="242.9" x2="234.1" y1="192.5" y2="183.7" fill="none" stroke="#007ffa" stroke-miterlimit="10" stroke-width=".291"></line><g><line x1="237.5" x2="244.4" y1="194.1" y2="187.1" fill="none" stroke="#007ffa" stroke-miterlimit="10" stroke-width=".291"></line><line x1="233.8" x2="240.7" y1="190.4" y2="183.4" fill="none" stroke="#007ffa" stroke-miterlimit="10" stroke-width=".291"></line></g></g></g><rect width="12.2" height="8.5" x="223.5" y="174.7" fill="#007ffa" transform="rotate(-45.001 229.61 178.942)"></rect><polygon fill="#007ffa" points="237 177.6 237.3 176.4 232.2 171.3 230.9 171.6"></polygon><polygon fill="#007ffa" points="245.2 173.1 238.1 175.6 233 170.5 235.4 163.4"></polygon><rect width="1.1" height="7.3" x="234.6" y="169.8" fill="#007ffa" transform="rotate(-45.001 235.128 173.425)"></rect><polygon fill="#007ffa" points="228.3 186.3 227 186.6 221.9 181.5 222.3 180.2"></polygon><rect width="1.1" height="7.3" x="223.5" y="180.8" fill="#007ffa" transform="rotate(134.999 224.096 184.456)"></rect><rect width="2.9" height=".6" x="239.9" y="166.9" fill="#007ffa" transform="rotate(-45.001 241.354 167.2)"></rect><circle cx="242.6" cy="166" r=".8" fill="#007ffa"></circle></g><g><g><path fill="#ffc543" d="M182.7,128c0,17.9-14.5,32.4-32.4,32.4c-12.2,0-22.8-6.7-28.3-16.7
				c-2.6-4.7-4.1-10-4.1-15.7c0-17.9,14.5-32.4,32.4-32.4c10,0,19,4.5,24.9,11.7C179.9,112.9,182.7,120.1,182.7,128z"></path><path fill="#ffd364" d="M176.7,117.2c0,18.7-15.1,33.8-33.8,33.8c-7.9,0-15.2-2.7-20.9-7.2
				c-2.6-4.7-4.1-10-4.1-15.7c0-17.9,14.5-32.4,32.4-32.4c10,0,19,4.5,24.9,11.7C176.1,110.4,176.7,113.7,176.7,117.2z"></path><circle cx="138.4" cy="115.1" r="9.5" fill="#ffba00"></circle><path fill="none" stroke="#ffba00" stroke-linecap="round" stroke-miterlimit="10" stroke-width=".291" d="M138.4,104.2c6,0,10.9,4.9,10.9,10.9"></path><circle cx="134.8" cy="136.6" r="4.9" fill="#ffba00"></circle><path fill="none" stroke="#ffba00" stroke-linecap="round" stroke-miterlimit="10" stroke-width=".291" d="M134.8,142.4c-3.2,0-5.8-2.6-5.8-5.8"></path><circle cx="168.2" cy="131.1" r="8.9" fill="#ffba00"></circle><path fill="none" stroke="#ffba00" stroke-linecap="round" stroke-miterlimit="10" stroke-width=".291" d="M158.2,131.1c0-5.5,4.5-10,10-10"></path><circle cx="155.5" cy="149.8" r="5" fill="#ffba00"></circle><path fill="none" stroke="#ffba00" stroke-linecap="round" stroke-miterlimit="10" stroke-width=".291" d="M149.5,149.8c0-3.3,2.7-6,6-6"></path><path fill="#ffc543" d="M130.6 150.8l9.2 4.7c.5.2.6.8.3 1.3l-1.8 2.3c-.2.3-.7.4-1 .2l-8.2-4.1c-.4-.2-.5-.6-.4-1l.8-2.8C129.6 150.9 130.2 150.6 130.6 150.8zM180.9 125.1l-1.6-8.1c-.1-.5.3-1 .8-1l2.2 0c.4 0 .7.3.8.7l1.5 7.3c.1.4-.1.8-.5.9l-2 .8C181.6 125.9 181 125.6 180.9 125.1z"></path><path fill="#ffd364" d="M121.6 120.2l-1.1 7.8c-.1.5-.6.8-1.1.7l-3.2-.9c-.4-.1-.6-.5-.6-.9l.9-6.8c.1-.4.4-.7.8-.7l3.4 0C121.3 119.3 121.7 119.7 121.6 120.2zM128.5 106.5l-2.8 3.3c-.3.4-.9.4-1.3 0l-1-1.1c-.3-.3-.3-.8 0-1.1l2.5-2.9c.3-.3.7-.4 1.1-.2l1.3.8C128.8 105.5 128.9 106.1 128.5 106.5zM139 100.3l-6.3 3.8c-.4.3-1 .1-1.2-.4l-.9-2.4c-.1-.4 0-.8.3-1l5.6-3.4c.3-.2.8-.1 1.1.2l1.7 1.9C139.5 99.5 139.4 100.1 139 100.3z"></path></g><g><g><g><g><path fill="#3376dd" d="M73.2 143.8v-9.4L95 103.1h12.5v31.7h7v9h-7v9.3H97v-9.3H73.2zM97.6 116.3l-11.9 18.5h11.9V116.3zM186.7 143.8v-9.4l21.6-31.4h13.3v31.7h5.2v9h-5.2v9.3h-12.2v-9.3H186.7zM210 116.3l-11 18.5h11V116.3z"></path></g></g></g></g></g><g><g><ellipse cx="116.8" cy="83.2" fill="none" stroke="#000" stroke-miterlimit="10" stroke-width=".291" rx="3.3" ry="11.9"></ellipse><ellipse cx="116.8" cy="83.2" fill="none" stroke="#000" stroke-miterlimit="10" stroke-width=".291" rx="3.3" ry="11.9" transform="rotate(-55.556 116.845 83.22)"></ellipse><circle cx="124.4" cy="85.2" r="1.2" fill="#ffba00"></circle><circle cx="113.6" cy="87.5" r=".9" fill="#ffba00"></circle><circle cx="116.8" cy="83.2" r="2.2" fill="#f15a24"></circle><circle cx="114.6" cy="74.4" r=".9" fill="#ffba00"></circle></g></g><g><path fill="#f15a24" d="M70.5,150.8c1.1,0.2,3.5-0.1,4.5,0.5c1.2,0.6,2.7,2.8,3.8,3.6c0.7,0.5,2.1,1.6,2.6,2.4
			c0.8,1.4,0.5,4.2,0.1,5.8c-1,3.6-0.1,6.6-1.4,8.3c-0.7,0.9-3.1,1.4-4.2,2c-1.6,0.9-4.1,3.4-5.8,3.4c-1,0-2.9-1-3.8-1.3
			c-1.9-0.6-4.9,1.2-7.9-3.1c-2.3-3.3-1.1-4.3-1.8-6.5c-0.5-1.7-1.5-6.4-1-8.2c0.6-2.1,3.2-2.5,4.6-3.9c1.2-1.2,3.9-3.4,5.6-3.7
			C66.9,149.7,69.2,150.6,70.5,150.8z"></path><path fill="#ff0b40" d="M67.3,152c1-0.1,3-0.9,4-0.7c1.1,0.2,3,1.8,4.1,2.2c0.8,0.3,2.2,0.9,2.8,1.5
			c1.1,1,1.4,3.5,1.4,5c0,3.3,1.4,5.7,0.7,7.5c-0.4,1-2.4,2-3.1,2.7c-1.2,1.1-2.7,3.9-4.3,4.3c-0.8,0.2-2.7-0.2-3.6-0.3
			c-1.8-0.1-3.9,2.2-7.5-0.8c-2.8-2.3-2-3.4-3.1-5.2c-0.8-1.4-2.8-5.1-2.8-6.8c0-2,2.1-2.9,3-4.4c0.8-1.3,2.6-3.8,3.9-4.5
			C63.9,151.8,66.1,152.1,67.3,152z"></path><circle cx="68.6" cy="163.3" r="10.3" fill="none" stroke="#d90429" stroke-miterlimit="10" stroke-width=".291"></circle><circle cx="69.4" cy="168.3" r=".9" fill="#ffba00"></circle><circle cx="60.6" cy="165.7" r=".5" fill="#ffba00"></circle><circle cx="59.5" cy="164.4" r=".3" fill="#ffba00"></circle><circle cx="77.3" cy="161.4" r=".5" fill="#ffba00"></circle><circle cx="75.9" cy="168.7" r=".4" fill="#ffba00"></circle><circle cx="74" cy="156.7" r=".6" fill="#ffba00"></circle><circle cx="71.3" cy="156.5" r=".8" fill="#ffba00"></circle><circle cx="83.5" cy="165.2" r="1" fill="none" stroke="#ff0b40" stroke-miterlimit="10" stroke-width=".291"></circle><circle cx="54.1" cy="168.7" r="1.4" fill="none" stroke="#d90429" stroke-miterlimit="10" stroke-width=".291"></circle><circle cx="55.3" cy="171.9" r=".6" fill="none" stroke="#ff0b40" stroke-miterlimit="10" stroke-width=".291"></circle><circle cx="76.5" cy="175.9" r=".8" fill="none" stroke="#ff0b40" stroke-miterlimit="10" stroke-width=".291"></circle><circle cx="61.1" cy="149.4" r=".9" fill="none" stroke="#ff0b40" stroke-miterlimit="10" stroke-width=".291"></circle><circle cx="81.4" cy="153" r="1.4" fill="none" stroke="#d90429" stroke-miterlimit="10" stroke-width=".291"></circle><circle cx="65.9" cy="159.9" r="2.7" fill="#ffba00"></circle></g><g><g><path fill="#007ffa" d="M96.1,63.5l-2-0.7c-0.1,0-0.3-0.1-0.4-0.1l-2.8,0l-2,0.6c-0.6,0.2-0.4,1.1,0.2,1l2-0.2
				l0.7,0.2l-3.2,1.2L86,67.3c-0.5,0.3,0,1.1,0.5,0.8l2.3-1L86.2,69c-0.5,0.3,0,1.1,0.5,0.7l2.8-1.7l0.6-0.3l-2.6,2.1
				c-0.4,0.3,0,0.9,0.5,0.6l2.8-1.8l1.2-0.5l-1.8,1.2l-0.7,0.7c-0.3,0.3,0.1,0.7,0.4,0.5l1.2-0.7l2.2-0.9l3.8-1.7L96.1,63.5z"></path><polyline fill="none" stroke="#000" stroke-linecap="round" stroke-miterlimit="10" stroke-width=".291" points="88.7 67.1 90 66.5 91 66.2"></polyline><polyline fill="none" stroke="#000" stroke-linecap="round" stroke-miterlimit="10" stroke-width=".291" points="90.2 67.7 90.8 67.4 91.5 67.1"></polyline><path fill="none" stroke="#000" stroke-linecap="round" stroke-miterlimit="10" stroke-width=".291" d="M92.2 65.1c0 0 1.3 1.1 2 2.8M92.8 64.5c0 0 .8.2 1.5-.2M93.3 66.3c0 0 1.1.4 2.7-.1"></path></g><g><g><g><g><g><path fill="#007ffa" d="M199.1,102.9c0.6-5.1-5.5-9.5-8.5-10.5c-0.1,0-0.1-0.1-0.1-0.3l0.5-5.7
								c0-0.2,0.1-0.3,0.3-0.3c0.5,0,5.6,0.1,6.6-0.3c1.6-0.6,3.6,0,3.6,0c2.2,9.6,0.9,14.8-0.7,17.5
								C200.3,104.3,199,103.9,199.1,102.9z"></path><path fill="#0054d4" d="M199.3,103.8c-0.2-0.1-0.1-0.4,0.1-0.4c0.4,0,0.9-0.1,1.3-0.6
								c1.1-1.3,1.6-4.6,0.6-8.7c-1.1-4.6,0-6.4-0.4-8.2c0-0.1,0-0.3,0.2-0.4l1.4-0.6c0.2-0.1,0.4,0,0.4,0.2
								c0.2,1.3,0.8,5.7,0.3,11.4C202.8,102.6,201.2,105,199.3,103.8z"></path></g></g></g></g></g><g><g><g><g><g><path fill="#007ffa" d="M212,59.6c-2.5-4.5-10.1-4.5-13.1-3.5c-0.1,0-0.2,0-0.2-0.2l-2.9-4.9
								c-0.1-0.1-0.1-0.3,0.1-0.4c0.4-0.3,4.6-3.2,5.2-4.1c1-1.4,2.9-2.1,2.9-2.1c7.4,6.5,9.4,11.4,9.7,14.6
								C213.7,60,212.5,60.4,212,59.6z"></path><path fill="#0054d4" d="M212.7,60.2c-0.2,0-0.3-0.2-0.1-0.4c0.3-0.2,0.7-0.6,0.7-1.3c0.1-1.7-1.4-4.6-4.6-7.4
								c-3.6-3.1-3.7-5.2-5.2-6.4c-0.1-0.1-0.1-0.3-0.1-0.4l0.8-1.3c0.1-0.2,0.3-0.2,0.5-0.1c0.9,0.9,4,4.2,7,9
								C214.8,57.1,214.9,60.1,212.7,60.2z"></path></g></g></g></g></g><path fill="#ec8800" d="M151.2,49.3l0.7,1.7c0.1-0.4,0.2-0.8,0.2-1.1C152.1,49.8,151.8,49.6,151.2,49.3z"></path><path fill="#007ffa" d="M140.4,64.3l7.8-9.5l17.2,25.4l28.4,4.9c0,0,1.1,5.7-1.3,9.7l-29.9-3.2
			c-3.3-0.4-6.3-2.2-8.1-5L140.4,64.3z"></path><path fill="none" stroke="#fff" stroke-linecap="round" stroke-miterlimit="10" stroke-width=".291" d="M193.4,90.3l-25.6-2.7c-3.3-0.4-6.3-2.2-8.1-5l-14.1-22.3"></path><path fill="#007ffa" d="M152.1,49.8c0,0,5.6,0.3,10.9,4.2l11.6,8.3l23.5-13.9c0,0,5.1,4.3,4.8,8.2l-23.7,16.4
			c-2.9,2-6.7,2.2-9.8,0.4L155,64.9l-13.7-1.5L152.1,49.8z"></path><path fill="none" stroke="#fff" stroke-linecap="round" stroke-miterlimit="10" stroke-width=".291" d="M200.8,52.4L179.5,67c-2.9,2-6.7,2.2-9.8,0.4l-14.6-8.6l-5.3-2.4"></path><polyline fill="none" stroke="#000" stroke-linecap="round" stroke-miterlimit="10" stroke-width=".291" points="169.5 73.4 155 64.9 146.3 63.9"></polyline><path fill="#007ffa" d="M141,42l4.2,0.6l0.8-8.8c0,0-5.3-2.1-7.4-2.4c-3.4-0.6-7,1.1-9.2,3.2L119.3,44
			c-1.8,1.7-3.3,3.9-4.2,6.2l-2.8,7l-17.3,5.4l1.6,5.5l18.1-2.3c2.7-0.3,5-2,6.2-4.4l3.7-7.8c0,0,8.9,10.1,17,12.6
			c0,0,8.3-6.4,10.3-15.3l-0.7-1.7C148.8,47.9,142.2,44,141,42z"></path><path fill="none" stroke="#fff" stroke-linecap="round" stroke-miterlimit="10" stroke-width=".291" d="M95.9,64.7l16.3-2.1c2.7-0.3,5-2,6.2-4.4l4-8.3"></path><path fill="#007ffa" d="M151.6,35.9c-1.4-0.5-5.6-2.2-5.6-2.2l-0.8,8.8l3.4,0.5l5.2,12.4l5.4-2.8l-4-12.9
			C154.8,37.9,153.4,36.5,151.6,35.9z"></path><path fill="none" stroke="#fff" stroke-linecap="round" stroke-miterlimit="10" stroke-width=".291" d="M156.7,54.7l-4-12.9c-0.5-1.8-1.9-3.2-3.7-3.8c-1.4-0.5-12.5-3.6-12.5-3.6"></path><line x1="148.7" x2="149.5" y1="43" y2="42.4" fill="none" stroke="#000" stroke-linecap="round" stroke-miterlimit="10" stroke-width=".291"></line><line x1="159.2" x2="158.4" y1="52.7" y2="50.1" fill="none" stroke="#000" stroke-linecap="round" stroke-miterlimit="10" stroke-width=".291"></line><path fill="#0054d4" d="M194.6 85.1l-1 10.2c0 .4-.4.6-.7.6l-.4 0c-.4 0-.6-.4-.6-.7l1-10.2c0-.4.4-.6.7-.6l.4 0C194.3 84.4 194.6 84.8 194.6 85.1zM96.3 61.7l1.1 6.7c.1.4-.2.7-.6.8l-.4.1c-.4.1-.7-.2-.8-.6L94.6 62c-.1-.4.2-.7.6-.8l.4-.1C95.9 61.1 96.2 61.3 96.3 61.7zM198.9 47.6l5.4 8.7c.2.3.1.7-.2.9l-.3.2c-.3.2-.7.1-.9-.2l-5.4-8.7c-.2-.3-.1-.7.2-.9l.3-.2C198.3 47.2 198.7 47.3 198.9 47.6z"></path><g><ellipse cx="114.9" cy="39.1" fill="#007ffa" rx="1.7" ry="2.3" transform="rotate(-42.767 114.902 39.135)"></ellipse><circle cx="120.4" cy="34.2" r="8.3" fill="#0054d4"></circle><ellipse cx="125" cy="39.4" fill="#0054d4" rx="8.3" ry="2.4" transform="rotate(-44.113 125.033 39.382)"></ellipse><path fill="#3376dd" d="M123.8,29.9c2.9,3,2.6,6.6,0.2,9c-2.4,2.4-6,2.6-9-0.4c-2.9-3-1-4.9,1.5-7.3
				S120.9,26.9,123.8,29.9z"></path><path fill="none" stroke="#fff" stroke-linecap="round" stroke-miterlimit="10" stroke-width=".291" d="M117.3 32.1c1.9-1.8 3.4-3.3 5.7-1M130.2 34.4c-.5 1.5-2.1 3.7-4.3 5.9-2.2 2.1-4.5 3.6-6 4.1"></path><ellipse cx="125.8" cy="29.2" fill="#007ffa" rx="1.7" ry="2.3" transform="rotate(-42.767 125.773 29.238)"></ellipse><ellipse cx="125.8" cy="29.2" fill="none" stroke="#0054d4" stroke-miterlimit="10" stroke-width=".291" rx="1.1" ry="1.5" transform="rotate(-42.767 125.773 29.238)"></ellipse></g><g><path fill="#007ffa" d="M154.7,54.6l-0.5,2c0,0.1,0,0.3,0,0.4l0.2,2.7l0.8,1.8c0.2,0.5,1.1,0.3,0.9-0.3l-0.4-1.9
				l0.1-0.7l1.5,3l1.9,2.2c0.4,0.4,1-0.1,0.7-0.5l-1.2-2.1l2,2.2c0.4,0.4,1-0.1,0.7-0.6l-1.9-2.5l-0.3-0.6l2.3,2.3
				c0.3,0.3,0.8-0.1,0.5-0.5l-2.1-2.5l-0.6-1.1l1.3,1.6l0.7,0.6c0.3,0.2,0.7-0.1,0.5-0.4l-0.8-1.1l-1.1-2l-2-3.4L154.7,54.6z"></path><path fill="none" stroke="#000" stroke-linecap="round" stroke-miterlimit="10" stroke-width=".291" d="M154.7,54.6l-0.5,2c0,0.1,0,0.3,0,0.4l0.2,2.7l0.8,1.8c0.2,0.5,1.1,0.3,0.9-0.3l-0.4-1.9
				l0.1-0.7l1.5,3l1.9,2.2c0.4,0.4,1-0.1,0.7-0.5l-1.2-2.1l2,2.2c0.4,0.4,1-0.1,0.7-0.6l-1.9-2.5l-0.3-0.6l2.3,2.3
				c0.3,0.3,0.8-0.1,0.5-0.5l-2.1-2.5l-0.6-1.1l1.3,1.6l0.7,0.6c0.3,0.2,0.7-0.1,0.5-0.4l-0.8-1.1l-1.1-2l-2-3.4L154.7,54.6z"></path><polyline fill="none" stroke="#000" stroke-linecap="round" stroke-miterlimit="10" stroke-width=".291" points="159 61.3 158.3 60.1 157.8 59.2"></polyline><polyline fill="none" stroke="#000" stroke-linecap="round" stroke-miterlimit="10" stroke-width=".291" points="159.4 59.8 159 59.3 158.6 58.6"></polyline><line x1="159.5" x2="159.1" y1="58" y2="57.4" fill="none" stroke="#000" stroke-linecap="round" stroke-miterlimit="10" stroke-width=".291"></line></g><line x1="151" x2="161.6" y1="81.1" y2="74.6" fill="none" stroke="#d90429" stroke-linecap="round" stroke-miterlimit="10" stroke-width=".291"></line><line x1="169.7" x2="164.9" y1="58.8" y2="70.7" fill="none" stroke="#d90429" stroke-linecap="round" stroke-miterlimit="10" stroke-width=".291"></line><line x1="169.7" x2="171.4" y1="92.4" y2="81.3" fill="none" stroke="#fff" stroke-linecap="round" stroke-miterlimit="10" stroke-width=".291"></line><line x1="172.3" x2="174.2" y1="92.7" y2="81.8" fill="none" stroke="#fff" stroke-linecap="round" stroke-miterlimit="10" stroke-width=".291"></line><line x1="185.6" x2="179" y1="68.7" y2="59.8" fill="none" stroke="#fff" stroke-linecap="round" stroke-miterlimit="10" stroke-width=".291"></line><line x1="187.8" x2="181.4" y1="67.1" y2="58.4" fill="none" stroke="#fff" stroke-linecap="round" stroke-miterlimit="10" stroke-width=".291"></line><path fill="none" stroke="#000" stroke-linecap="round" stroke-miterlimit="10" stroke-width=".291" d="M188.4 89.8l-.2 2.3c0 .6-.6 1.1-1.2 1.1l-6-.4c-.6 0-1.1-.6-1.1-1.2l.2-2.3c0-.6.6-1.1 1.2-1.1l6 .4C187.9 88.6 188.4 89.1 188.4 89.8zM197.6 54.6l1.3 1.9c.4.5.2 1.3-.3 1.6l-4.9 3.3c-.5.4-1.3.2-1.6-.3l-1.3-1.9c-.4-.5-.2-1.3.3-1.6l4.9-3.3C196.5 54 197.2 54.1 197.6 54.6zM148 36.8l-.6 2.2c-.2.6-.8 1-1.4.8l-5.8-1.5c-.6-.2-1-.8-.8-1.4l.6-2.2c.2-.6.8-1 1.4-.8l5.8 1.5C147.8 35.6 148.2 36.2 148 36.8z"></path><g><path fill="#fff" d="M147.8,52.6l-8.2,9.5c-0.4,0.5-1.2,0.5-1.6,0.1l-10.8-9.3c-0.5-0.4-0.5-1.2-0.1-1.6
				l8.2-9.5c0.4-0.5,1.2-0.5,1.6-0.1l10.8,9.3C148.2,51.4,148.2,52.1,147.8,52.6z"></path><path fill="none" stroke="#007ffa" stroke-miterlimit="10" stroke-width=".291" d="M147,52.6l-7.6,8.7c-0.4,0.5-1.2,0.5-1.6,0.1l-9.9-8.6c-0.5-0.4-0.5-1.2-0.1-1.6l7.6-8.7
				c0.4-0.5,1.2-0.5,1.6-0.1l9.9,8.6C147.4,51.4,147.5,52.1,147,52.6z"></path><path fill="#3376dd" d="M140.2,48.7l-5.6,6.5c-0.4,0.5-1.2,0.5-1.6,0.1l-2.8-2.4c-0.5-0.4-0.5-1.2-0.1-1.6
				l5.6-6.5c0.4-0.5,1.2-0.5,1.6-0.1l2.8,2.4C140.6,47.4,140.6,48.2,140.2,48.7z"></path><g><circle cx="136.1" cy="55.6" r=".6" fill="#f15a24"></circle><circle cx="137.8" cy="53.7" r=".6" fill="#f15a24"></circle><circle cx="139.5" cy="51.8" r=".6" fill="#f15a24"></circle><circle cx="141.1" cy="49.9" r=".6" fill="#f15a24"></circle></g><g><circle cx="143.4" cy="51.8" r="1.4" fill="#0054d4"></circle><circle cx="138.1" cy="57.8" r="1.4" fill="#0054d4"></circle></g><g><path fill="#007ffa" d="M142.5,56.3c-1.5,1.7-3.6,3-4.8,2c-0.3-0.2-0.3-0.6-0.1-0.9s0.6-0.3,0.9-0.1
					c0.2,0.2,1.6-0.2,3-1.9c1.4-1.7,1.6-3,1.4-3.2c-0.3-0.2-0.3-0.6-0.1-0.9c0.2-0.3,0.6-0.3,0.9-0.1
					C144.9,52.3,144,54.6,142.5,56.3z"></path></g></g><g><path fill="#f15a24" d="M141.6,66.3c0,0,8.3-6.4,10.3-15.3l-0.7-1.7c-0.3-0.1-0.6-0.3-0.9-0.5
				c-1.5,7.4-8.1,14.4-10.5,16.8C140.4,65.9,141,66.1,141.6,66.3z"></path></g><path fill="none" stroke="#fff" stroke-linecap="round" stroke-miterlimit="10" stroke-width=".291" d="M121.9 49.3c0 0 10.1 12 19.2 14.9M134.7 38.6c3.7 3.8 9.4 9.5 15.4 11.4"></path><line x1="155.9" x2="149.3" y1="42" y2="44.7" fill="none" stroke="#d90429" stroke-linecap="round" stroke-miterlimit="10" stroke-width=".291"></line><line x1="110.1" x2="112.1" y1="57.9" y2="66.2" fill="none" stroke="#d90429" stroke-linecap="round" stroke-miterlimit="10" stroke-width=".291"></line><line x1="157.3" x2="151.1" y1="46.6" y2="49.1" fill="none" stroke="#fff" stroke-linecap="round" stroke-miterlimit="10" stroke-width=".291"></line><line x1="157.8" x2="151.8" y1="48.3" y2="50.8" fill="none" stroke="#fff" stroke-linecap="round" stroke-miterlimit="10" stroke-width=".291"></line><line x1="99.5" x2="100.9" y1="61.3" y2="67.6" fill="none" stroke="#fff" stroke-linecap="round" stroke-miterlimit="10" stroke-width=".291"></line><line x1="101.2" x2="102.6" y1="60.8" y2="67.4" fill="none" stroke="#fff" stroke-linecap="round" stroke-miterlimit="10" stroke-width=".291"></line><polyline fill="none" stroke="#000" stroke-linecap="round" stroke-miterlimit="10" stroke-width=".291" points="139.7 41.7 148.6 43 153.8 55.5"></polyline><path fill="#0054d4" d="M160,53.7l-6.3,2.6c-0.3,0.1-0.7,0-0.9-0.4l-0.2-0.4c-0.1-0.3,0-0.7,0.4-0.9l6.3-2.6
			c0.3-0.1,0.7,0,0.9,0.4l0.2,0.4C160.5,53.2,160.3,53.6,160,53.7z"></path><line x1="113.5" x2="121.9" y1="54.3" y2="59.4" fill="none" stroke="#fff" stroke-linecap="round" stroke-miterlimit="10" stroke-width=".291"></line><line x1="114.3" x2="122.9" y1="52.3" y2="57.3" fill="none" stroke="#fff" stroke-linecap="round" stroke-miterlimit="10" stroke-width=".291"></line><path fill="none" stroke="#fff" stroke-linecap="round" stroke-miterlimit="10" stroke-width=".291" d="M116.2 47.9c0 0 15-.1 17.9-16.3M115.1 50.2c0 0 17.2 1.3 22.3-18.9"></path></g><g><path fill="none" stroke="#000" stroke-linecap="round" stroke-miterlimit="10" stroke-width=".291" d="M61,99.9c1,2.4,8.3,1.4,16.3-2S91,89.7,90,87.3"></path><circle cx="75.1" cy="94.3" r="10.1" fill="#ffba00"></circle><path fill="none" stroke="#ffd364" stroke-linecap="round" stroke-miterlimit="10" stroke-width=".291" d="M66,98.6c0,0,1.2-2,3.2-1.1c1.2,0.5,3,2.7,4.2,3.2c1.6,0.6,5.2-1,5.9,0.5
			c0.5,1.2-3.1,3.1-3.1,3.1"></path><path fill="none" stroke="#ffd364" stroke-miterlimit="10" stroke-width=".291" d="M74.9,94.6c-1.4-0.1-5.1,1.8-5.5-0.4c-0.6-2.6,2-8,7.7-7.5c4.8,0.4,6.8,7.5,4.4,9.4
			C78.5,98.3,77.2,94.8,74.9,94.6z"></path><circle cx="88.7" cy="90.1" r="1.3" fill="#f15a24"></circle><circle cx="65.3" cy="101.4" r="1.4" fill="#f15a24"></circle><path fill="none" stroke="#000" stroke-linecap="round" stroke-miterlimit="10" stroke-width=".291" d="M90,87.3c-1-2.4-8.3-1.4-16.3,2S60,97.5,61,99.9"></path><circle cx="63.4" cy="95.6" r="1.4" fill="#f15a24"></circle><circle cx="82.5" cy="86.2" r="1.3" fill="#f15a24"></circle></g><g><path fill="#3376dd" d="M85.9 186.3c-.6-.3-1.1-.8-1.4-1.4-.3-.6-.5-1.2-.5-2 0-.7.2-1.4.5-2 .3-.6.8-1 1.4-1.4.6-.3 1.2-.5 1.9-.5.7 0 1.4.2 1.9.5.6.3 1 .8 1.4 1.4.3.6.5 1.2.5 2 0 .7-.2 1.4-.5 2-.3.6-.8 1-1.4 1.4-.6.3-1.2.5-1.9.5C87.1 186.8 86.5 186.6 85.9 186.3zM89.2 185.3c.4-.2.7-.6.9-1 .2-.4.3-.9.3-1.5 0-.6-.1-1-.3-1.5-.2-.4-.5-.7-.9-1-.4-.2-.8-.3-1.3-.3-.5 0-.9.1-1.3.3-.4.2-.7.5-.9 1-.2.4-.3.9-.3 1.5 0 .6.1 1 .3 1.5.2.4.5.7.9 1 .4.2.8.3 1.3.3C88.3 185.7 88.8 185.6 89.2 185.3zM94 186.4c-.5-.3-.8-.6-1.1-1.1-.3-.5-.4-1-.4-1.6 0-.6.1-1.1.4-1.6.3-.5.6-.8 1.1-1.1.5-.3 1-.4 1.5-.4s1.1.1 1.5.4c.5.3.8.6 1.1 1.1s.4 1 .4 1.6-.1 1.1-.4 1.6c-.3.5-.6.8-1.1 1.1-.5.3-1 .4-1.6.4C94.9 186.8 94.4 186.6 94 186.4zM96.4 185.5c.3-.2.5-.4.7-.7.2-.3.3-.7.3-1.1 0-.4-.1-.8-.2-1.1-.2-.3-.4-.5-.7-.7-.3-.2-.6-.2-.9-.2-.3 0-.6.1-.9.2-.3.2-.5.4-.6.7-.2.3-.2.7-.2 1.1 0 .6.2 1.1.5 1.5.3.3.7.5 1.2.5C95.8 185.7 96.1 185.6 96.4 185.5zM101.8 180.9c.4-.2.8-.3 1.3-.3.5 0 1 .1 1.4.4.4.3.8.6 1 1.1.2.5.4 1 .4 1.6 0 .6-.1 1.1-.4 1.6-.2.5-.6.8-1 1.1-.4.3-.9.4-1.4.4-.5 0-1-.1-1.3-.3-.4-.2-.7-.4-1-.7v3.4h-.9v-8.7h.9v1.1C101.1 181.3 101.4 181.1 101.8 180.9zM104.4 182.6c-.2-.3-.4-.5-.7-.7-.3-.2-.6-.2-.9-.2-.3 0-.6.1-.9.2-.3.2-.5.4-.7.7-.2.3-.3.7-.3 1.1 0 .4.1.8.3 1.1.2.3.4.5.7.7.3.2.6.2.9.2.3 0 .6-.1.9-.2.3-.2.5-.4.7-.7.2-.3.3-.7.3-1.1C104.6 183.3 104.6 182.9 104.4 182.6zM108 186.5c-.4-.2-.7-.4-.9-.7-.2-.3-.3-.4-.3-1h1.3c0 0 .1.4.4.6.2.2.5.2.8.2.3 0 .6-.1.8-.2.2-.1.3-.3.3-.5 0-.2-.1-.4-.3-.5-.2-.1-.5-.2-1-.4-.4-.1-.8-.2-1.1-.4-.3-.1-.5-.3-.7-.5-.2-.2-.3-.6-.3-.9 0-.3.1-.6.3-.9.2-.3.5-.5.8-.6.4-.2.8-.2 1.2-.2.7 0 1.2.2 1.6.5.4.3.6.8.7 1.4h-1.2c0-.3-.1-.5-.3-.6-.2-.2-.5-.2-.8-.2-.3 0-.6.1-.7.2-.2.1-.3.3-.3.5 0 .2.1.3.2.4.1.1.3.2.4.3.2.1.4.1.7.2.4.1.8.2 1.1.4.3.1.5.3.7.5.2.2.3.5.3.9 0 .3-.1.6-.3.9-.2.3-.5.5-.8.6-.3.2-.7.2-1.2.2C108.8 186.8 108.4 186.7 108 186.5zM114.3 185.5l-1.3 2.6h-.8l.8-2.6H114.3zM123.1 182.5c-.2.3-.5.7-.9.9-.4.2-.9.4-1.5.4h-1.3v2.9H118v-7.3h2.8c.6 0 1.1 0 1.5.2.4.2.7.4.9.8.2.3.3.7.3 1.1C123.4 181.8 123.3 182.1 123.1 182.5zM121.8 182.3c.2-.2.3-.5.3-.9 0-.8-.5-1.2-1.4-1.2h-1.3v2.3h1.3C121.2 182.6 121.6 182.5 121.8 182.3zM124.5 182.1c.2-.5.6-.8 1-1.1.4-.3.9-.4 1.4-.4.5 0 .9.1 1.2.3.3.2.5.4.8.7v-1.1h1.2v6.1H129v-.8c-.3.3-.5.5-.9.7-.4.2-.8.3-1.2.3-.5 0-1-.1-1.4-.4-.4-.3-.8-.6-1-1.1-.2-.5-.4-1-.4-1.6C124.2 183.1 124.3 182.5 124.5 182.1zM128.8 182.6c-.2-.3-.4-.5-.7-.7-.3-.2-.6-.2-.9-.2-.3 0-.6.1-.9.2-.3.2-.5.4-.7.7-.2.3-.3.7-.3 1.1 0 .4.1.8.3 1.1.2.3.4.5.7.7.3.2.6.2.9.2.3 0 .6-.1.9-.2.3-.2.5-.4.7-.7.2-.3.3-.7.3-1.1C129 183.3 129 182.9 128.8 182.6zM135.5 180.9c.4.2.8.4.8.7v-1.1h1.2v6.3c0 .5 0 1-.3 1.5-.2.4-.5.8-1 1-.4.2-.9.4-1.5.4-.8 0-1.5-.3-2-.7-.5-.4-.8-.8-.9-1.7h1.2c.1.6.3.7.6.9.3.2.7.4 1.1.4.5 0 .9-.1 1.2-.4.3-.3.4-.7.4-1.3v-1c0 .3-.5.5-.8.7-.4.2-.7.3-1.2.3-.5 0-1-.1-1.4-.4-.4-.3-.8-.6-1-1.1-.2-.5-.4-1-.4-1.6 0-.6.1-1.1.4-1.6.2-.5.6-.8 1-1.1.4-.3.9-.4 1.4-.4C134.8 180.6 135.2 180.7 135.5 180.9zM136.1 182.6c-.2-.3-.4-.5-.7-.7-.3-.2-.6-.2-.9-.2-.3 0-.6.1-.9.2-.3.2-.5.4-.7.7-.2.3-.3.7-.3 1.1 0 .4.1.8.3 1.1.2.3.4.5.7.7.3.2.6.2.9.2.3 0 .6-.1.9-.2.3-.2.5-.4.7-.7.2-.3.3-.7.3-1.1C136.4 183.3 136.3 182.9 136.1 182.6zM144.7 184h-4.6c0 .6.2.9.5 1.2.3.3.7.5 1.2.5.7 0 1.1-.2 1.4-.8h1.3c-.2.6-.5 1-1 1.4-.5.3-1.1.5-1.8.5-.6 0-1.1-.1-1.5-.4-.5-.3-.8-.6-1.1-1.1-.3-.5-.4-1-.4-1.6 0-.6.1-1.2.4-1.6.2-.5.6-.8 1-1.1.4-.3 1-.4 1.6-.4.6 0 1.1.1 1.5.4.4.2.8.6 1 1 .2.4.4.9.4 1.5C144.7 183.7 144.7 184 144.7 184zM143.4 183.4c0-.9-.2-1-.5-1.2-.3-.3-.7-.5-1.2-.5-.4 0-.8.2-1.1.5-.3.3-.5.3-.5 1.2H143.4zM154.7 186.6h-1l-3.7-5.6v5.6h-1.5v-7.3h1.4l3.8 5.4v-5.4h.9V186.6zM157.6 186.4c-.5-.3-.8-.6-1.1-1.1-.3-.5-.4-1-.4-1.6 0-.6.1-1.1.4-1.6.3-.5.6-.8 1.1-1.1.5-.3 1-.4 1.5-.4.6 0 1.1.1 1.5.4.5.3.8.6 1.1 1.1.3.5.4 1 .4 1.6s-.1 1.1-.4 1.6c-.3.5-.6.8-1.1 1.1-.5.3-1 .4-1.6.4C158.5 186.8 158 186.6 157.6 186.4zM160 185.5c.3-.2.5-.4.7-.7.2-.3.3-.7.3-1.1 0-.4-.1-.8-.2-1.1-.2-.3-.4-.5-.7-.7-.3-.2-.6-.2-.9-.2-.3 0-.6.1-.9.2-.3.2-.5.4-.6.7-.2.3-.2.7-.2 1.1 0 .6.2 1.1.5 1.5.3.3.7.5 1.2.5C159.4 185.7 159.7 185.6 160 185.5zM164.8 181.7v3.3c0 .2.1.4.2.5.1.1.3.2.5.2h.8v.9h-1c-.6 0-1.1-.1-1.4-.4-.3-.3-.6-.7-.6-1.2v-3.3h-.6v-1.2h.6v-1.2h1.5v1.2h1.5v1.2H164.8zM174.5 179.4v.9h-2.9v2h2.3v1.2h-2.3v3.2h-1.5v-7.3H174.5zM176.9 186.4c-.5-.3-.8-.6-1.1-1.1-.3-.5-.4-1-.4-1.6 0-.6.1-1.1.4-1.6.3-.5.6-.8 1.1-1.1.5-.3 1-.4 1.5-.4s1.1.1 1.5.4c.5.3.8.6 1.1 1.1.3.5.4 1 .4 1.6s-.1 1.1-.4 1.6c-.3.5-.6.8-1.1 1.1-.5.3-1 .4-1.6.4C177.8 186.8 177.3 186.6 176.9 186.4zM179.3 185.5c.3-.2.5-.4.7-.7.2-.3.3-.7.3-1.1 0-.4-.1-.8-.2-1.1-.2-.3-.4-.5-.7-.7-.3-.2-.6-.2-.9-.2-.3 0-.6.1-.9.2-.3.2-.5.4-.6.7-.2.3-.2.7-.2 1.1 0 .6.2 1.1.5 1.5.3.3.7.5 1.2.5C178.7 185.7 179 185.6 179.3 185.5zM188.1 180.5v6.1h-1.5V186c0 .2-.3.4-.7.6-.3.1-.6.2-.9.2-.5 0-.9-.1-1.2-.3-.4-.2-.7-.5-.9-.9-.2-.4-.3-.8-.3-1.4v-3.7h1.2v3.5c0 .5.2.9.5 1.2.3.3.7.4 1.1.4.5 0 .7-.1 1-.4.3-.3.3-.7.3-1.2v-3.5H188.1zM194 180.9c.4.2.6.5.8.9.2.4.3.8.3 1.4v3.5h-1.5v-3.3c0-.5 0-.9-.3-1.2-.3-.3-.6-.4-1-.4-.5 0-.9.1-1.2.4-.3.3-.5.7-.5 1.2v3.3h-.9v-6.1h.9v.9c.3-.2.6-.4.9-.6.3-.1.7-.2 1.1-.2C193.2 180.6 193.6 180.7 194 180.9zM196.7 182.1c.2-.5.6-.8 1-1.1.4-.3.9-.4 1.4-.4.4 0 .8.1 1.2.3.4.2.6.4.9.7v-3.1h1.5v8.2h-1.5v-.8c-.3.3-.5.5-.8.7-.4.2-.8.3-1.2.3-.5 0-1-.1-1.4-.4-.4-.3-.8-.6-1-1.1-.2-.5-.4-1-.4-1.6C196.3 183.1 196.5 182.5 196.7 182.1zM201 182.6c-.2-.3-.4-.5-.7-.7-.3-.2-.6-.2-.9-.2-.3 0-.6.1-.9.2-.3.2-.5.4-.7.7-.2.3-.3.7-.3 1.1 0 .4.1.8.3 1.1.2.3.4.5.7.7.3.2.6.2.9.2.3 0 .6-.1.9-.2.3-.2.5-.4.7-.7.2-.3.3-.7.3-1.1C201.2 183.3 201.1 182.9 201 182.6zM206.8 186.5c-.2-.2-.2-.3-.2-.6 0-.2.1-.4.2-.6.2-.2.3-.2.6-.2.2 0 .4.1.6.2.2.2.2.3.2.6 0 .2-.1.4-.2.6-.2.2-.3.2-.6.2C207.2 186.8 207 186.7 206.8 186.5zM209.4 186.5c-.2-.2-.2-.3-.2-.6 0-.2.1-.4.2-.6.2-.2.3-.2.6-.2.2 0 .4.1.6.2.2.2.2.3.2.6 0 .2-.1.4-.2.6-.2.2-.3.2-.6.2C209.8 186.8 209.6 186.7 209.4 186.5zM212 186.5c-.2-.2-.2-.3-.2-.6 0-.2.1-.4.2-.6.2-.2.3-.2.6-.2.2 0 .4.1.6.2.2.2.2.3.2.6 0 .2-.1.4-.2.6-.2.2-.3.2-.6.2C212.4 186.8 212.2 186.7 212 186.5zM214.7 186.5c-.2-.2-.2-.3-.2-.6 0-.2.1-.4.2-.6.2-.2.3-.2.6-.2.2 0 .4.1.6.2.2.2.2.3.2.6 0 .2-.1.4-.2.6-.2.2-.3.2-.6.2C215 186.8 214.8 186.7 214.7 186.5z"></path></g><g><path fill="none" stroke="#ffba00" stroke-linecap="round" stroke-miterlimit="10" stroke-width=".291" d="M210.8,72.9c1-1.8,7.7,0,15,4C233,81,238,85.8,237,87.6"></path><circle cx="223.9" cy="80.3" r="9.7" fill="#f15a24"></circle><path fill="none" stroke="#fff" stroke-linecap="round" stroke-miterlimit="10" stroke-width=".291" d="M224.2 70.5c0 0 1 3.9 6.6 2.9M221 71c0 0 4 5.9 11.9 5.8M215.1 76.1c0 0 10.5 11 17.6 8.3M218.6 72.1c0 0 6 4.7 4.3 5.8-1.7 1-5.9-3.1-6.7-3.6"></path><path fill="none" stroke="#fff" stroke-linecap="round" stroke-miterlimit="10" stroke-width=".291" d="M217.6 72.9c0 0 2.8 1.6 2.4 2.3s-2.7-.9-3.2-1.6M233.4 78.2c0 0-8.4-1.2-8.8.3s1.8 4.6 8.8 3.8"></path><path fill="none" stroke="#fff" stroke-linecap="round" stroke-miterlimit="10" stroke-width=".291" d="M233.6 79.2c0 0-3.3 0-3.3 1.1s3.3.7 3.3.7M214.4 78.2c0 0 3.4 3.6 2.5 4.8-.8 1.1-1.6 0-2.4-.1M214.2 79.6c0 0 1.9 2.4.1 2.4M220.3 89.3c0 0-4.5-3.6-2.4-5.9 2.1-2.3 12.5 4.1 12.5 4.1"></path><path fill="none" stroke="#fff" stroke-linecap="round" stroke-miterlimit="10" stroke-width=".291" d="M226.2,89.7c0,0-7.9-2.8-7-4.8s8.2,0.4,10.7,2.9"></path><path fill="none" stroke="#fff" stroke-linecap="round" stroke-miterlimit="10" stroke-width=".291" d="M229.1,88.5c0,0-3.4-1.9-4.2-1.4c-0.8,0.4,2.6,2.3,2.6,2.3"></path><path fill="none" stroke="#ffba00" stroke-linecap="round" stroke-miterlimit="10" stroke-width=".291" d="M237,87.6c-1,1.8-7.7,0-15-4c-7.2-4.1-12.2-8.9-11.2-10.7"></path></g><g><polygon fill="#ffba00" points="239.7 118.2 240.1 119.9 241.6 119 240.6 120.5 242.4 120.9 240.6 121.3 241.6 122.8 240.1 121.8 239.7 123.6 239.3 121.8 237.8 122.8 238.7 121.3 237 120.9 238.7 120.5 237.8 119 239.3 119.9"></polygon></g><g><polygon fill="#ffba00" points="228.3 53.6 228.7 55.3 230.2 54.4 229.3 55.9 231 56.3 229.3 56.7 230.2 58.2 228.7 57.2 228.3 59 227.9 57.2 226.4 58.2 227.4 56.7 225.6 56.3 227.4 55.9 226.4 54.4 227.9 55.3"></polygon></g><g><polygon fill="#ffba00" points="164.9 26.2 165.3 28 166.8 27 165.8 28.5 167.6 28.9 165.8 29.3 166.8 30.8 165.3 29.9 164.9 31.6 164.5 29.9 163 30.8 163.9 29.3 162.2 28.9 163.9 28.5 163 27 164.5 28"></polygon></g><g><polygon fill="#ffba00" points="89.8 46 90.2 47.8 91.7 46.8 90.7 48.3 92.5 48.7 90.7 49.1 91.7 50.6 90.2 49.6 89.8 51.4 89.4 49.6 87.9 50.6 88.8 49.1 87.1 48.7 88.8 48.3 87.9 46.8 89.4 47.8"></polygon></g><g><polygon fill="#ffba00" points="60.7 120.2 61.1 122 62.6 121 61.6 122.5 63.4 122.9 61.6 123.3 62.6 124.8 61.1 123.9 60.7 125.6 60.3 123.9 58.8 124.8 59.7 123.3 58 122.9 59.7 122.5 58.8 121 60.3 122"></polygon></g><g><polygon fill="#ffba00" points="66.8 191.3 67.2 193 68.7 192 67.7 193.6 69.5 194 67.7 194.3 68.7 195.9 67.2 194.9 66.8 196.7 66.4 194.9 64.9 195.9 65.8 194.3 64.1 194 65.8 193.6 64.9 192 66.4 193"></polygon></g><g><polygon fill="#ffba00" points="190.5 166.5 190.9 168.3 192.4 167.3 191.4 168.8 193.2 169.2 191.4 169.6 192.4 171.1 190.9 170.2 190.5 171.9 190.1 170.2 188.6 171.1 189.5 169.6 187.8 169.2 189.5 168.8 188.6 167.3 190.1 168.3"></polygon></g><g><path fill="#f15a24" d="M239.2,146.1l1.9-0.7c0.1,0,0.3,0,0.4,0l3,1.4c0,0,0.1,0,0.1,0l2.4,0.5
			c0.2,0,0.3,0.1,0.4,0.3l0.8,1.7c0.1,0.2,0.1,0.3,0,0.5l-0.9,1.6c-0.1,0.1-0.1,0.3-0.1,0.4l0.3,1.2c0.1,0.3-0.1,0.6-0.4,0.6
			l-5.5,1.3c-0.2,0-0.4,0-0.5-0.2l-1-1.2c-0.1-0.1-0.2-0.2-0.4-0.2l-2.6-0.2c-0.2,0-0.4-0.1-0.5-0.3l-0.3-0.8
			c-0.1-0.2-0.1-0.3,0-0.5l1.5-2.7c0,0,0,0,0-0.1l1.1-2.6C238.9,146.3,239,146.2,239.2,146.1z"></path><ellipse cx="240.9" cy="148.6" fill="#bc0029" rx="1.4" ry=".5"></ellipse><ellipse cx="244.8" cy="149.7" fill="#bc0029" rx=".8" ry=".4"></ellipse><ellipse cx="242.9" cy="152" fill="#bc0029" rx=".4" ry=".8"></ellipse><ellipse cx="239" cy="151.7" fill="#bc0029" rx=".9" ry=".4"></ellipse></g><g><path fill="#3376dd" d="M184,31.2l0.7,1.9c0,0.1,0,0.3,0,0.4l-1.4,3c0,0,0,0.1,0,0.1l-0.5,2.4
			c0,0.2-0.1,0.3-0.3,0.4l-1.7,0.8c-0.2,0.1-0.3,0.1-0.5,0l-1.6-0.9c-0.1-0.1-0.3-0.1-0.4-0.1l-1.2,0.3c-0.3,0.1-0.6-0.1-0.6-0.4
			l-1.3-5.5c0-0.2,0-0.4,0.2-0.5l1.2-1c0.1-0.1,0.2-0.2,0.2-0.4l0.2-2.6c0-0.2,0.1-0.4,0.3-0.5l0.8-0.3c0.2-0.1,0.3-0.1,0.5,0
			l2.7,1.5c0,0,0,0,0.1,0l2.6,1.1C183.8,31,183.9,31.1,184,31.2z"></path><ellipse cx="181.6" cy="33" fill="#444343" rx=".5" ry="1.4"></ellipse><ellipse cx="180.4" cy="36.8" fill="#444343" rx=".4" ry=".8"></ellipse><ellipse cx="178.2" cy="34.9" fill="#444343" rx=".8" ry=".4"></ellipse><ellipse cx="178.4" cy="31" fill="#444343" rx=".4" ry=".9"></ellipse></g><g><path fill="#f15a24" d="M128.2,200.7l-1.4,0.5c-0.1,0-0.2,0-0.3,0l-2.3-1.1c0,0-0.1,0-0.1,0l-1.8-0.4
			c-0.1,0-0.2-0.1-0.3-0.2l-0.6-1.3c-0.1-0.1,0-0.3,0-0.4l0.7-1.2c0.1-0.1,0.1-0.2,0-0.3l-0.2-0.9c0-0.2,0.1-0.4,0.3-0.5l4.2-1
			c0.2,0,0.3,0,0.4,0.1l0.7,0.9c0.1,0.1,0.2,0.1,0.3,0.2l2,0.1c0.2,0,0.3,0.1,0.4,0.3l0.2,0.6c0,0.1,0,0.2,0,0.4l-1.2,2.1
			c0,0,0,0,0,0l-0.9,2C128.4,200.5,128.3,200.6,128.2,200.7z"></path><ellipse cx="126.9" cy="198.8" fill="#bc0029" rx="1" ry=".4"></ellipse><ellipse cx="123.9" cy="197.9" fill="#bc0029" rx=".6" ry=".3"></ellipse><ellipse cx="125.4" cy="196.2" fill="#bc0029" rx=".3" ry=".6"></ellipse><ellipse cx="128.4" cy="196.4" fill="#bc0029" rx=".7" ry=".3"></ellipse></g><g><path fill="#3376dd" d="M69.8,64.1l-0.5-1.5c0-0.1,0-0.2,0-0.3l1.1-2.4c0,0,0-0.1,0-0.1l0.4-1.9
			c0-0.1,0.1-0.3,0.2-0.3l1.4-0.6c0.1-0.1,0.3,0,0.4,0l1.3,0.7c0.1,0.1,0.2,0.1,0.3,0l1-0.2c0.2,0,0.4,0.1,0.5,0.3l1.1,4.4
			c0,0.2,0,0.3-0.1,0.4l-1,0.8c-0.1,0.1-0.1,0.2-0.2,0.3l-0.1,2.1c0,0.2-0.1,0.3-0.3,0.4l-0.6,0.3c-0.1,0-0.3,0-0.4,0l-2.1-1.2
			c0,0,0,0,0,0l-2.1-0.9C70,64.3,69.9,64.2,69.8,64.1z"></path><ellipse cx="71.8" cy="62.7" fill="#444343" rx=".4" ry="1.1"></ellipse><ellipse cx="72.6" cy="59.6" fill="#444343" rx=".3" ry=".6"></ellipse><ellipse cx="74.5" cy="61.1" fill="#444343" rx=".6" ry=".3"></ellipse><ellipse cx="74.2" cy="64.2" fill="#444343" rx=".3" ry=".7"></ellipse></g></g></svg>