<svg width="24" height="24" viewBox="0 0 24 24" fill="none" xmlns="http://www.w3.org/2000/svg">
<path d="M17.5661 8.32587C17.3546 8.11715 17.0685 8 16.7702 8C16.472 8 16.1859 8.11715 15.9744 8.32587L11.9218 12.2928L7.92561 8.32587C7.7141 8.11715 7.42799 8 7.12976 8C6.83153 8 6.54542 8.11715 6.33392 8.32587C6.22811 8.43004 6.14413 8.55398 6.08682 8.69054C6.02951 8.8271 6 8.97357 6 9.1215C6 9.26943 6.02951 9.4159 6.08682 9.55246C6.14413 9.68902 6.22811 9.81296 6.33392 9.91713L11.1203 14.6685C11.2252 14.7736 11.3501 14.8569 11.4876 14.9138C11.6252 14.9707 11.7728 15 11.9218 15C12.0708 15 12.2183 14.9707 12.3559 14.9138C12.4935 14.8569 12.6183 14.7736 12.7233 14.6685L17.5661 9.91713C17.6719 9.81296 17.7559 9.68902 17.8132 9.55246C17.8705 9.4159 17.9 9.26943 17.9 9.1215C17.9 8.97357 17.8705 8.8271 17.8132 8.69054C17.7559 8.55398 17.6719 8.43004 17.5661 8.32587Z" fill="black"/>
</svg>
