<svg width="24" height="24" viewBox="0 0 24 24" fill="none" xmlns="http://www.w3.org/2000/svg">
<path d="M6.34315 4.34315C7.84344 2.84285 9.87827 2 12 2C14.1217 2 16.1566 2.84285 17.6569 4.34315C19.1571 5.84344 20 7.87827 20 10C20 15.4 13 21.5 12.65 21.76C12.4689 21.9149 12.2384 22.0001 12 22.0001C11.7616 22.0001 11.5311 21.9149 11.35 21.76L11.3483 21.7586C11.025 21.4784 4 15.3904 4 10C4 7.87827 4.84285 5.84344 6.34315 4.34315Z" fill="#11AD59"/>
<path d="M12 6C11.2089 6 10.4355 6.2346 9.77772 6.67412C9.11993 7.11365 8.60723 7.73836 8.30448 8.46927C8.00173 9.20017 7.92252 10.0044 8.07686 10.7804C8.2312 11.5563 8.61216 12.269 9.17157 12.8284C9.73098 13.3878 10.4437 13.7688 11.2196 13.9231C11.9956 14.0775 12.7998 13.9983 13.5307 13.6955C14.2616 13.3928 14.8864 12.8801 15.3259 12.2223C15.7654 11.5645 16 10.7911 16 10C16 8.93913 15.5786 7.92172 14.8284 7.17157C14.0783 6.42143 13.0609 6 12 6Z" fill="white"/>
<path d="M6.34315 4.34315C7.84344 2.84285 9.87827 2 12 2C14.1217 2 16.1566 2.84285 17.6569 4.34315C19.1571 5.84344 20 7.87827 20 10C20 15.4 13 21.5 12.65 21.76C12.4689 21.9149 12.2384 22.0001 12 22.0001C11.7616 22.0001 11.5311 21.9149 11.35 21.76L11.3483 21.7586C11.025 21.4784 4 15.3904 4 10C4 7.87827 4.84285 5.84344 6.34315 4.34315Z" fill="#11AD59"/>
<path d="M12 6C11.2089 6 10.4355 6.2346 9.77772 6.67412C9.11993 7.11365 8.60723 7.73836 8.30448 8.46927C8.00173 9.20017 7.92252 10.0044 8.07686 10.7804C8.2312 11.5563 8.61216 12.269 9.17157 12.8284C9.73098 13.3878 10.4437 13.7688 11.2196 13.9231C11.9956 14.0775 12.7998 13.9983 13.5307 13.6955C14.2616 13.3928 14.8864 12.8801 15.3259 12.2223C15.7654 11.5645 16 10.7911 16 10C16 8.93913 15.5786 7.92172 14.8284 7.17157C14.0783 6.42143 13.0609 6 12 6Z" fill="white"/>
<path d="M6.34315 4.34315C7.84344 2.84285 9.87827 2 12 2C14.1217 2 16.1566 2.84285 17.6569 4.34315C19.1571 5.84344 20 7.87827 20 10C20 15.4 13 21.5 12.65 21.76C12.4689 21.9149 12.2384 22.0001 12 22.0001C11.7616 22.0001 11.5311 21.9149 11.35 21.76L11.3483 21.7586C11.025 21.4784 4 15.3904 4 10C4 7.87827 4.84285 5.84344 6.34315 4.34315Z" fill="#2967FF"/>
<path d="M12 6C11.2089 6 10.4355 6.2346 9.77772 6.67412C9.11993 7.11365 8.60723 7.73836 8.30448 8.46927C8.00173 9.20017 7.92252 10.0044 8.07686 10.7804C8.2312 11.5563 8.61216 12.269 9.17157 12.8284C9.73098 13.3878 10.4437 13.7688 11.2196 13.9231C11.9956 14.0775 12.7998 13.9983 13.5307 13.6955C14.2616 13.3928 14.8864 12.8801 15.3259 12.2223C15.7654 11.5645 16 10.7911 16 10C16 8.93913 15.5786 7.92172 14.8284 7.17157C14.0783 6.42143 13.0609 6 12 6Z" fill="white"/>
</svg>
