<svg width="58" height="58" viewBox="0 0 58 58" fill="none" xmlns="http://www.w3.org/2000/svg">
<circle cx="29" cy="29" r="29" fill="#EBF5FF"/>
<path d="M25.4999 24.0626C26.0177 24.0626 26.4374 24.4823 26.4374 25.0001V25.8751C26.4374 26.3928 26.0177 26.8126 25.4999 26.8126C24.9822 26.8126 24.5624 26.3928 24.5624 25.8751V25.0001C24.5624 24.4823 24.9822 24.0626 25.4999 24.0626Z" fill="#0A57FF"/>
<path d="M32.1876 25.0001C32.1876 24.4823 31.7678 24.0626 31.2501 24.0626C30.7323 24.0626 30.3126 24.4823 30.3126 25.0001V25.8751C30.3126 26.3928 30.7323 26.8126 31.2501 26.8126C31.7678 26.8126 32.1876 26.3928 32.1876 25.8751V25.0001Z" fill="#0A57FF"/>
<path fill-rule="evenodd" clip-rule="evenodd" d="M21.5 16.5C20.8096 16.5 20.25 17.0596 20.25 17.75V39C20.25 39.6904 20.8096 40.25 21.5 40.25H22.3124V40.5674C22.3124 41.0851 22.7321 41.5049 23.2499 41.5049C23.7676 41.5049 24.1874 41.0851 24.1874 40.5674V40.25H33.8124V40.5653C33.8124 41.0831 34.2321 41.5028 34.7499 41.5028C35.2677 41.5028 35.6874 41.0831 35.6874 40.5653V40.25H36.5C37.1904 40.25 37.75 39.6904 37.75 39V17.75C37.75 17.0596 37.1904 16.5 36.5 16.5H21.5ZM22.125 36.1875V38.375H27.4375V36.1875H22.125ZM22.125 34.3125H27.4375V31.1878H22.125V34.3125ZM22.125 29.3128H27.4375V18.375H22.125V29.3128ZM35.875 38.375H29.3125V18.375H35.875V38.375Z" fill="#0A57FF"/>
</svg>
