<svg width="56" height="56" viewBox="0 0 56 56" fill="none" xmlns="http://www.w3.org/2000/svg">
<rect width="56" height="56" rx="28" fill="#EBF5FF"/>
<path fill-rule="evenodd" clip-rule="evenodd" d="M30.7905 18.4476L26.88 16.666H33.9195C34.1036 16.666 34.2528 16.8152 34.2528 16.9993V36.5108C34.2528 36.9731 34.5666 37.3622 34.9928 37.4767C35.0993 37.5153 35.2142 37.5364 35.334 37.5364H38.6674C39.2197 37.5364 39.6674 37.0887 39.6674 36.5364C39.6674 35.9841 39.2197 35.5364 38.6674 35.5364H36.2528V16.9993C36.2528 15.7106 35.2082 14.666 33.9195 14.666H21.8789C21.7876 14.666 21.6991 14.6782 21.6151 14.7011C20.5486 14.8806 19.6634 15.7996 19.6634 17.0053V35.5364H17.334C16.7817 35.5364 16.334 35.9841 16.334 36.5364C16.334 37.0887 16.7817 37.5364 17.334 37.5364H21.2901L28.8557 40.9833C30.4008 41.6872 32.1564 40.5578 32.1564 38.8599V20.5709C32.1564 19.6566 31.6225 18.8266 30.7905 18.4476ZM27.2442 30.6172C27.9805 30.6172 28.5775 30.0202 28.5775 29.2838C28.5775 28.5474 27.9805 27.9505 27.2442 27.9505C26.5078 27.9505 25.9108 28.5474 25.9108 29.2838C25.9108 30.0202 26.5078 30.6172 27.2442 30.6172Z" fill="#0A57FF"/>
</svg>
