<svg width="58" height="58" viewBox="0 0 58 58" fill="none" xmlns="http://www.w3.org/2000/svg">
<circle cx="29" cy="29" r="29" fill="#EBF5FF"/>
<path d="M36.8116 24.3751C37.3294 24.3751 37.7491 23.9553 37.7491 23.4376C37.7491 22.9198 37.3294 22.5001 36.8116 22.5001C36.2938 22.5001 35.8741 22.9198 35.8741 23.4376C35.8741 23.9553 36.2938 24.3751 36.8116 24.3751Z" fill="#0A57FF"/>
<path d="M34.7492 23.4376C34.7492 23.9553 34.3295 24.3751 33.8117 24.3751C33.2939 24.3751 32.8742 23.9553 32.8742 23.4376C32.8742 22.9198 33.2939 22.5001 33.8117 22.5001C34.3295 22.5001 34.7492 22.9198 34.7492 23.4376Z" fill="#0A57FF"/>
<path fill-rule="evenodd" clip-rule="evenodd" d="M16.5 20.25C16.5 19.5596 17.0596 19 17.75 19H40.25C40.9404 19 41.5 19.5596 41.5 20.25V29C41.5 29.6557 40.9952 30.1934 40.3531 30.2458L39.721 33.027C39.5917 33.5961 39.0858 34 38.5021 34H19.4977C18.9141 34 18.4081 33.5961 18.2788 33.027L17.6467 30.2458C17.0047 30.1933 16.5 29.6556 16.5 29V20.25ZM18.375 28.375V20.875H39.625V28.375H36.184C36.1192 27.225 35.1662 26.3125 34 26.3125H24C22.8338 26.3125 21.8808 27.225 21.816 28.375H18.375ZM19.5989 30.3751L19.9966 32.125H38.0032L38.401 30.3751H19.5989Z" fill="#0A57FF"/>
<path d="M25.1509 36.3306C24.9194 35.8675 24.3562 35.6798 23.8931 35.9113C23.43 36.1429 23.2423 36.706 23.4739 37.1691L23.8524 37.9261C24.0723 38.366 24.0723 38.8837 23.8524 39.3236L23.4739 40.0806C23.2423 40.5437 23.43 41.1068 23.8931 41.3384C24.3562 41.5699 24.9194 41.3822 25.1509 40.9191L25.5294 40.1621C26.0133 39.1944 26.0133 38.0553 25.5294 37.0875L25.1509 36.3306Z" fill="#0A57FF"/>
<path d="M28.5806 35.9113C29.0437 35.6798 29.6069 35.8675 29.8384 36.3306L30.2169 37.0875C30.7008 38.0553 30.7008 39.1944 30.2169 40.1621L29.8384 40.9191C29.6069 41.3822 29.0437 41.5699 28.5806 41.3384C28.1175 41.1068 27.9298 40.5437 28.1614 40.0806L28.5399 39.3236C28.7598 38.8837 28.7598 38.366 28.5399 37.9261L28.1614 37.1691C27.9298 36.706 28.1175 36.1429 28.5806 35.9113Z" fill="#0A57FF"/>
<path d="M34.5259 36.3306C34.2944 35.8675 33.7312 35.6798 33.2681 35.9113C32.805 36.1429 32.6173 36.706 32.8489 37.1691L33.2274 37.9261C33.4473 38.366 33.4473 38.8837 33.2274 39.3236L32.8489 40.0806C32.6173 40.5437 32.805 41.1068 33.2681 41.3384C33.7312 41.5699 34.2944 41.3822 34.5259 40.9191L34.9044 40.1621C35.3883 39.1944 35.3883 38.0553 34.9044 37.0875L34.5259 36.3306Z" fill="#0A57FF"/>
</svg>
