<svg width="24" height="24" viewBox="0 0 24 24" fill="none" xmlns="http://www.w3.org/2000/svg">
<path d="M9.28726 2.29474L5.28726 6.29474C5.19402 6.38798 5.12006 6.49867 5.0696 6.62049C5.01914 6.74232 4.99316 6.87288 4.99316 7.00474C4.99316 7.27105 5.09895 7.52644 5.28726 7.71474C5.47556 7.90305 5.73095 8.00883 5.99726 8.00883C6.26356 8.00883 6.51895 7.90305 6.70726 7.71474L8.99726 5.41474V17.0047C8.99726 17.27 9.10261 17.5243 9.29015 17.7118C9.47769 17.8994 9.73204 18.0047 9.99726 18.0047C10.2625 18.0047 10.5168 17.8994 10.7044 17.7118C10.8919 17.5243 10.9973 17.27 10.9973 17.0047V3.00474C10.9963 2.80732 10.9369 2.6146 10.8265 2.45088C10.7162 2.28716 10.5599 2.15976 10.3773 2.08474C10.1951 2.00816 9.99443 1.98724 9.80044 2.02462C9.60645 2.06199 9.42788 2.15599 9.28726 2.29474V2.29474ZM12.9973 7.00474L12.9973 21.0047C12.9982 21.2022 13.0576 21.3949 13.168 21.5586C13.2783 21.7223 13.4346 21.8497 13.6173 21.9247C13.7994 22.0013 14.0001 22.0222 14.1941 21.9849C14.3881 21.9475 14.5666 21.8535 14.7073 21.7147L18.7073 17.7147C18.801 17.6218 18.8754 17.5112 18.9261 17.3893C18.9769 17.2675 19.0031 17.1368 19.0031 17.0047C19.0031 16.8727 18.9769 16.742 18.9261 16.6202C18.8754 16.4983 18.801 16.3877 18.7073 16.2947C18.6143 16.201 18.5037 16.1266 18.3818 16.0759C18.26 16.0251 18.1293 15.9989 17.9973 15.9989C17.8652 15.9989 17.7345 16.0251 17.6127 16.0759C17.4908 16.1266 17.3802 16.201 17.2873 16.2947L14.9973 18.5947L14.9973 7.00474C14.9973 6.73953 14.8919 6.48517 14.7044 6.29764C14.5168 6.1101 14.2625 6.00474 13.9973 6.00474C13.732 6.00474 13.4777 6.1101 13.2901 6.29764C13.1026 6.48517 12.9973 6.73953 12.9973 7.00474Z" fill="white"/>
</svg>
