<svg width="74" height="32" viewBox="0 0 74 32" fill="none" xmlns="http://www.w3.org/2000/svg">
<path d="M69.3762 0.342773L64.7857 8.51017V13.7319H62.1652V8.51017L57.5938 0.342773H60.5776L63.485 5.92797L66.3924 0.342773H69.3762Z" fill="white"/>
<path d="M57.3076 0.342773V2.86759H53.6926V13.7319H51.053V2.86759H47.457V0.342773H57.3076Z" fill="white"/>
<path d="M43.3432 0.342773H45.9636V13.7319H43.3432V8.185H38.37V13.7319H35.7305V0.342773H38.37V5.66019H43.3432V0.342773Z" fill="white"/>
<path d="M33.8542 6.54026V7.57313C33.8542 9.48587 33.2421 11.0352 32.0179 12.2211C30.7938 13.407 29.2126 13.9999 27.2743 13.9999C25.2086 13.9999 23.4935 13.3305 22.1291 11.9916C20.7774 10.6399 20.1016 8.99494 20.1016 7.05669C20.1016 5.1057 20.771 3.45437 22.1099 2.1027C23.4616 0.75103 25.1321 0.0751953 27.1213 0.0751953C28.371 0.0751953 29.5122 0.362106 30.5451 0.935928C31.578 1.497 32.3814 2.24934 32.9552 3.19296L30.6981 4.49362C30.3793 3.94531 29.8948 3.499 29.2445 3.15471C28.6069 2.81041 27.8928 2.63827 27.1022 2.63827C25.827 2.63827 24.775 3.05907 23.9462 3.90067C23.1301 4.72953 22.722 5.78153 22.722 7.05669C22.722 8.3191 23.1364 9.36473 23.9653 10.1936C24.8069 11.0097 25.9163 11.4177 27.2935 11.4177C28.3136 11.4177 29.1552 11.1946 29.8183 10.7483C30.4941 10.2892 30.9532 9.6644 31.1955 8.8738H27.1404V6.54026H33.8542Z" fill="white"/>
<path d="M15.5938 0.342773H18.2333V13.7319H15.5938V0.342773Z" fill="white"/>
<path d="M13.1023 0.342773V13.7319H10.4818V5.04811L6.71372 11.2645H6.40768L2.63958 5.06724V13.7319H0V0.342773H2.71609L6.5607 6.67394L10.3862 0.342773H13.1023Z" fill="white"/>
<path d="M68.7874 31.9247C67.4612 31.9247 66.3454 31.6315 65.4401 31.0449C64.5347 30.4456 63.8971 29.6358 63.5273 28.6157L65.7844 27.2959C66.3072 28.6603 67.3337 29.3425 68.8639 29.3425C69.6035 29.3425 70.1454 29.2087 70.4897 28.9409C70.834 28.6731 71.0062 28.3352 71.0062 27.9271C71.0062 27.4553 70.7958 27.0919 70.375 26.8369C69.9541 26.5691 69.2018 26.2822 68.1179 25.9761C67.5186 25.7976 67.0085 25.6191 66.5877 25.4406C66.1797 25.262 65.7652 25.0261 65.3444 24.7328C64.9364 24.4268 64.624 24.0443 64.4072 23.5852C64.1904 23.1261 64.082 22.5906 64.082 21.9785C64.082 20.7671 64.5092 19.8044 65.3636 19.0903C66.2307 18.3634 67.2699 18 68.4813 18C69.5652 18 70.5152 18.2678 71.3313 18.8034C72.1602 19.3262 72.8041 20.0594 73.2632 21.003L71.0444 22.2845C70.5088 21.1369 69.6545 20.5631 68.4813 20.5631C67.933 20.5631 67.4995 20.6906 67.1807 20.9456C66.8746 21.1879 66.7216 21.5067 66.7216 21.902C66.7216 22.3228 66.8938 22.6671 67.2381 22.9349C67.5951 23.1899 68.2709 23.4704 69.2656 23.7765C69.6736 23.904 69.9796 24.006 70.1837 24.0825C70.4005 24.1463 70.6874 24.2547 71.0444 24.4077C71.4142 24.5479 71.6947 24.6818 71.886 24.8094C72.09 24.9369 72.3196 25.109 72.5746 25.3258C72.8296 25.5426 73.0209 25.7657 73.1484 25.9953C73.2887 26.2248 73.4035 26.5053 73.4927 26.8369C73.5947 27.1556 73.6457 27.5063 73.6457 27.8889C73.6457 29.1258 73.1931 30.1076 72.2877 30.8345C71.3951 31.5613 70.2283 31.9247 68.7874 31.9247Z" fill="white"/>
<path d="M60.0168 31.6568L57.3198 27.0088H55.3115V31.6568H52.6719V18.2676H58.0275C59.2645 18.2676 60.3165 18.7011 61.1836 19.5682C62.0507 20.4354 62.4842 21.481 62.4842 22.7051C62.4842 23.534 62.2483 24.3055 61.7765 25.0196C61.3047 25.7209 60.6799 26.2501 59.902 26.6071L62.8668 31.6568H60.0168ZM55.3115 20.735V24.6944H58.0275C58.5249 24.6944 58.952 24.5031 59.3091 24.1206C59.6661 23.7253 59.8446 23.2535 59.8446 22.7051C59.8446 22.1568 59.6661 21.6914 59.3091 21.3088C58.952 20.9263 58.5249 20.735 58.0275 20.735H55.3115Z" fill="white"/>
<path d="M45.1708 29.1319H50.8134V31.6568H42.5312V18.2676H50.7178V20.7924H45.1708V23.6424H50.2396V26.1289H45.1708V29.1319Z" fill="white"/>
<path d="M33.4559 31.6568L28.9609 18.2676H31.83L35.1008 28.5581L38.3525 18.2676H41.2407L36.7267 31.6568H33.4559Z" fill="white"/>
<path d="M26.8625 29.9164C25.5108 31.2553 23.8659 31.9247 21.9276 31.9247C19.9894 31.9247 18.3444 31.2553 16.9928 29.9164C15.6538 28.5647 14.9844 26.9134 14.9844 24.9624C14.9844 23.0114 15.6538 21.3664 16.9928 20.0275C18.3444 18.6758 19.9894 18 21.9276 18C23.8659 18 25.5108 18.6758 26.8625 20.0275C28.2142 21.3664 28.89 23.0114 28.89 24.9624C28.89 26.9134 28.2142 28.5647 26.8625 29.9164ZM18.8481 28.1184C19.677 28.9345 20.7035 29.3425 21.9276 29.3425C23.1518 29.3425 24.1783 28.9345 25.0071 28.1184C25.836 27.2895 26.2504 26.2375 26.2504 24.9624C26.2504 23.6872 25.836 22.6352 25.0071 21.8064C24.1783 20.9775 23.1518 20.5631 21.9276 20.5631C20.7035 20.5631 19.677 20.9775 18.8481 21.8064C18.0193 22.6352 17.6048 23.6872 17.6048 24.9624C17.6048 26.2375 18.0193 27.2895 18.8481 28.1184Z" fill="white"/>
<path d="M13.1023 18.2676V31.6568H10.4818V22.9729L6.71372 29.1893H6.40768L2.63958 22.992V31.6568H0V18.2676H2.71609L6.5607 24.5987L10.3862 18.2676H13.1023Z" fill="white"/>
</svg>
