<svg xmlns="http://www.w3.org/2000/svg" width="87" height="78" viewBox="0 0 87 78" fill="none">
  <path fill-rule="evenodd" clip-rule="evenodd" d="M0 6C0 5.17157 0.672 4.5 1.5 4.5H84.98C85.808 4.5 86.48 5.17157 86.48 6C86.48 6.8284 85.808 7.5 84.98 7.5H1.5C0.672 7.5 0 6.8284 0 6Z" fill="url(#paint0_linear_6_78)"/>
  <path fill-rule="evenodd" clip-rule="evenodd" d="M0 32.16C0 31.3316 0.672 30.66 1.5 30.66H84.98C85.808 30.66 86.48 31.3316 86.48 32.16C86.48 32.9884 85.808 33.66 84.98 33.66H1.5C0.672 33.66 0 32.9884 0 32.16Z" fill="url(#paint1_linear_6_78)"/>
  <path fill-rule="evenodd" clip-rule="evenodd" d="M0 58.31C0 57.4816 0.672 56.81 1.5 56.81H84.98C85.808 56.81 86.48 57.4816 86.48 58.31C86.48 59.1384 85.808 59.81 84.98 59.81H1.5C0.672 59.81 0 59.1384 0 58.31Z" fill="url(#paint2_linear_6_78)"/>
  <path d="M16.53 12C19.844 12 22.53 9.3137 22.53 6C22.53 2.68629 19.844 0 16.53 0C13.216 0 10.53 2.68629 10.53 6C10.53 9.3137 13.216 12 16.53 12Z" fill="#20044E"/>
  <path d="M35.23 39.66C39.372 39.66 42.73 36.3021 42.73 32.16C42.73 28.0179 39.372 24.66 35.23 24.66C31.088 24.66 27.73 28.0179 27.73 32.16C27.73 36.3021 31.088 39.66 35.23 39.66Z" fill="url(#paint3_linear_6_78)"/>
  <path d="M77.48 64.31C80.794 64.31 83.48 61.6237 83.48 58.31C83.48 54.9963 80.794 52.31 77.48 52.31C74.166 52.31 71.48 54.9963 71.48 58.31C71.48 61.6237 74.166 64.31 77.48 64.31Z" fill="#20044E"/>
  <path d="M40.19 68.41L34.49 74.37L25.09 64.98C23.5 63.39 23.48 60.83 25.03 59.21C26.63 57.54 29.29 57.51 30.93 59.14L40.19 68.41Z" fill="#F6921E"/>
  <path d="M23.39 61.36C23.12 61.36 22.9 61.57 22.89 61.84C22.83 63.27 23.37 64.67 24.39 65.69L29.61 70.91C29.62 70.92 29.62 70.92 29.63 70.93C29.64 70.94 29.64 70.94 29.65 70.95L29.69 70.99C29.7 71 29.7 71 29.71 71.01C29.72 71.02 29.72 71.02 29.73 71.03L32.91 74.21C33.01 74.31 33.14 74.36 33.26 74.36C33.39 74.36 33.52 74.31 33.61 74.21C33.81 74.01 33.81 73.7 33.61 73.5L30.43 70.32C30.42 70.31 30.42 70.31 30.41 70.3C30.4 70.29 30.4 70.29 30.39 70.28C30.39 70.28 30.38 70.27 30.37 70.26L30.35 70.24C30.34 70.23 30.34 70.23 30.33 70.22C30.32 70.21 30.32 70.21 30.31 70.2L25.14 65.03L25.12 65.01L25.11 65V64.99C25.11 64.99 25.11 64.99 25.11 64.98C25.11 64.98 25.11 64.98 25.11 64.97C25.11 64.97 25.11 64.97 25.11 64.96C25.11 64.96 25.11 64.95 25.1 64.94C25.1 64.94 25.1 64.94 25.1 64.93C25.1 64.93 25.1 64.93 25.1 64.92C25.1 64.92 25.1 64.92 25.1 64.91C25.1 64.91 25.1 64.91 25.1 64.9C25.1 64.89 25.09 64.89 25.09 64.88C25.09 64.88 25.09 64.88 25.09 64.87C25.09 64.87 25.09 64.87 25.09 64.86C25.09 64.86 25.09 64.86 25.09 64.85C25.09 64.84 25.08 64.83 25.08 64.82C25.08 64.82 25.08 64.82 25.08 64.81C25.08 64.81 25.08 64.81 25.08 64.8C25.08 64.79 25.07 64.78 25.07 64.77C25.07 64.77 25.07 64.77 25.07 64.76C25.07 64.76 25.07 64.76 25.07 64.75C25.07 64.74 25.06 64.73 25.06 64.72C24.86 64.19 24.77 63.63 24.79 63.07C24.8 62.79 24.59 62.56 24.31 62.55C23.4 61.36 23.4 61.36 23.39 61.36ZM35.05 62.06C34.92 62.06 34.79 62.11 34.7 62.21C34.5 62.41 34.5 62.72 34.7 62.92C34.7 62.92 36.57 64.79 37.44 65.66L37.45 65.67L37.46 65.68L37.47 65.69L37.48 65.7C37.48 65.7 37.48 65.7 37.49 65.71L37.5 65.72L37.51 65.73L37.53 65.75L37.58 65.8L37.87 66.09C37.88 66.1 37.88 66.1 37.89 66.11C37.9 66.12 37.9 66.12 37.91 66.13L37.95 66.17C37.96 66.18 37.96 66.18 37.97 66.19C37.98 66.2 37.98 66.2 37.99 66.21C37.99 66.21 39.95 68.17 40.17 68.39L40.18 68.4L40.12 68.46L40.09 68.49L40.06 68.52L40.05 68.53L40.04 68.54L40.03 68.55V68.56C40.03 68.56 40.03 68.56 40.02 68.57C39.05 69.58 34.9 73.92 34.9 73.92C34.71 74.12 34.72 74.44 34.92 74.63C35.02 74.72 35.14 74.77 35.27 74.77C35.4 74.77 35.53 74.72 35.63 74.62L40.95 69.06C41.33 68.67 41.32 68.05 40.93 67.66L38.73 65.46C38.72 65.45 38.72 65.45 38.71 65.44C38.7 65.43 38.7 65.43 38.69 65.42L38.65 65.38C38.64 65.37 38.64 65.37 38.63 65.36C38.62 65.35 38.62 65.35 38.61 65.34L35.43 62.16C35.3 62.11 35.17 62.06 35.05 62.06ZM28.01 56.94C26.6 56.94 25.28 57.5 24.31 58.52C23.97 58.87 23.69 59.27 23.47 59.7C23.34 59.94 23.44 60.25 23.68 60.37C23.75 60.41 23.83 60.43 23.91 60.43C24.09 60.43 24.26 60.33 24.35 60.16C24.35 60.16 24.35 60.15 24.36 60.15C24.36 60.15 24.36 60.15 24.36 60.14C24.36 60.14 24.36 60.13 24.37 60.13C24.51 59.92 24.67 59.71 24.85 59.52C25.66 58.67 26.75 58.25 27.83 58.25C28.88 58.25 29.94 58.65 30.74 59.46L30.75 59.47C30.97 59.69 33.23 61.95 33.23 61.95C33.33 62.05 33.46 62.1 33.58 62.1C33.71 62.1 33.84 62.05 33.93 61.95C34.13 61.75 34.13 61.44 33.93 61.24L31.43 58.75C30.66 57.47 29.38 56.94 28.01 56.94Z" fill="#00103D"/>
  <path d="M54.57 53.9H51.19V53.63C51.19 51.97 49.85 50.63 48.19 50.63H44.81V50.36C44.81 48.7 43.47 47.36 41.81 47.36H38.43V36.2C38.43 34.44 37 33.01 35.24 33.01C33.48 33.01 32.05 34.44 32.05 36.2V61.73V64.92V66.87C32.05 73.92 37.77 79.64 44.82 79.64C51.87 79.64 57.59 73.92 57.59 66.87V61.73V56.9C57.57 55.25 56.23 53.9 54.57 53.9Z" fill="url(#paint4_linear_6_78)"/>
  <path d="M35.23 33.01C36.99 33.01 38.42 34.44 38.42 36.2V47.37H41.54C43.34 47.37 44.81 48.83 44.81 50.64H47.93C49.73 50.64 51.2 52.1 51.2 53.91H54.32C56.12 53.91 57.59 55.37 57.59 57.18V61.75V64.94V66.89C57.59 73.94 51.87 79.66 44.82 79.66C37.77 79.66 32.05 73.94 32.05 66.89V64.94V61.75V36.2C32.04 34.44 33.47 33.01 35.23 33.01ZM35.23 32.01C32.92 32.01 31.04 33.89 31.04 36.2V61.73V64.92V66.87C31.04 74.46 37.22 80.64 44.81 80.64C52.4 80.64 58.58 74.46 58.58 66.87V64.92V61.73V57.16C58.58 54.81 56.67 52.89 54.31 52.89H52.07C51.62 51.02 49.93 49.62 47.92 49.62H45.68C45.23 47.75 43.54 46.35 41.53 46.35H39.41V36.2C39.42 33.89 37.54 32.01 35.23 32.01Z" fill="#00103D"/>
  <path d="M45.29 50.43V57.48" stroke="#00103D" stroke-miterlimit="10" stroke-linecap="round" stroke-linejoin="round"/>
  <path d="M51.68 53.47V57.48" stroke="#00103D" stroke-miterlimit="10" stroke-linecap="round" stroke-linejoin="round"/>
  <path d="M38.92 47.23V54.28" stroke="#00103D" stroke-miterlimit="10" stroke-linecap="round" stroke-linejoin="round"/>
  <defs>
    <linearGradient id="paint0_linear_6_78" x1="1.5" y1="6.5" x2="84.98" y2="6.5" gradientUnits="userSpaceOnUse">
      <stop stop-color="#F05A28"/>
      <stop offset="0.339" stop-color="#F3732F"/>
      <stop offset="1" stop-color="#FAAF40"/>
    </linearGradient>
    <linearGradient id="paint1_linear_6_78" x1="1.5" y1="32.66" x2="84.98" y2="32.66" gradientUnits="userSpaceOnUse">
      <stop stop-color="#F05A28"/>
      <stop offset="0.339" stop-color="#F3732F"/>
      <stop offset="1" stop-color="#FAAF40"/>
    </linearGradient>
    <linearGradient id="paint2_linear_6_78" x1="1.5" y1="58.81" x2="84.98" y2="58.81" gradientUnits="userSpaceOnUse">
      <stop stop-color="#F05A28"/>
      <stop offset="0.339" stop-color="#F3732F"/>
      <stop offset="1" stop-color="#FAAF40"/>
    </linearGradient>
    <linearGradient id="paint3_linear_6_78" x1="27.73" y1="32.1556" x2="42.73" y2="32.1556" gradientUnits="userSpaceOnUse">
      <stop stop-color="#2962FF"/>
      <stop offset="1" stop-color="#7D2BFF"/>
    </linearGradient>
    <linearGradient id="paint4_linear_6_78" x1="32.038" y1="56.3272" x2="57.572" y2="56.3272" gradientUnits="userSpaceOnUse">
      <stop offset="0.00119874" stop-color="#FFBB00"/>
      <stop offset="0.6804" stop-color="#FFD400"/>
      <stop offset="1" stop-color="#FFE200"/>
    </linearGradient>
  </defs>
</svg>
