<svg width="24" height="24" viewBox="0 0 24 24" fill="none" xmlns="http://www.w3.org/2000/svg">
<path d="M11 11.9V17C11 17.2652 11.1054 17.5195 11.2929 17.7071C11.4804 17.8946 11.7348 18 12 18C12.2652 18 12.5196 17.8946 12.7071 17.7071C12.8947 17.5195 13 17.2652 13 17V11.9C14.2141 11.6521 15.2928 10.9624 16.0272 9.96437C16.7616 8.96637 17.0992 7.73123 16.9747 6.49843C16.8502 5.26563 16.2723 4.12298 15.3532 3.29202C14.434 2.46106 13.2391 2.00098 12 2.00098C10.7609 2.00098 9.56599 2.46106 8.64686 3.29202C7.72772 4.12298 7.14987 5.26563 7.02533 6.49843C6.90079 7.73123 7.23844 8.96637 7.97281 9.96437C8.70719 10.9624 9.78597 11.6521 11 11.9ZM12 3.99996C12.5934 3.99996 13.1734 4.1759 13.6667 4.50555C14.1601 4.83519 14.5446 5.30373 14.7717 5.85191C14.9987 6.40008 15.0581 7.00328 14.9424 7.58523C14.8266 8.16717 14.5409 8.70172 14.1213 9.12128C13.7018 9.54083 13.1672 9.82656 12.5853 9.94231C12.0033 10.0581 11.4001 9.99866 10.852 9.7716C10.3038 9.54453 9.83525 9.16001 9.5056 8.66667C9.17596 8.17332 9.00001 7.5933 9.00001 6.99996C9.00001 6.20431 9.31608 5.44125 9.87869 4.87864C10.4413 4.31603 11.2044 3.99996 12 3.99996Z" fill="white"/>
</svg>
