<svg width="56" height="56" viewBox="0 0 56 56" fill="none" xmlns="http://www.w3.org/2000/svg">
<g clip-path="url(#clip0_8474_115345)">
<path d="M56 28C56 12.536 43.464 0 28 0C12.536 0 0 12.536 0 28C0 43.464 12.536 56 28 56C43.464 56 56 43.464 56 28Z" fill="#EBF5FF"/>
<mask id="mask0_8474_115345" style="mask-type:alpha" maskUnits="userSpaceOnUse" x="16" y="16" width="25" height="24">
<rect x="16.332" y="16" width="24" height="24" fill="#D9D9D9"/>
</mask>
<g mask="url(#mask0_8474_115345)">
<path d="M35.6097 37.4002L32.602 34.4079H33.8328V34.6925C33.8328 35.1896 33.6557 35.6152 33.3017 35.9692C32.9477 36.3232 32.5222 36.5002 32.025 36.5002H24.6405C24.1434 36.5002 23.7178 36.3232 23.3638 35.9692C23.0098 35.6152 22.8328 35.1896 22.8328 34.6925V32.5002H20.929C20.4319 32.5002 20.0063 32.3232 19.6523 31.9692C19.2983 31.6152 19.1213 31.1896 19.1213 30.6925V26.8079C19.1213 26.0996 19.3633 25.5058 19.8472 25.0267C20.3312 24.5475 20.9226 24.3079 21.6213 24.3079H22.5021L18.9174 20.7233C18.7687 20.5746 18.6928 20.398 18.6896 20.1935C18.6864 19.989 18.7623 19.8092 18.9174 19.6541C19.0726 19.4989 19.2508 19.4214 19.452 19.4214C19.6533 19.4214 19.8315 19.4989 19.9866 19.6541L36.6789 36.3464C36.8276 36.4951 36.9036 36.6691 36.9068 36.8685C36.91 37.0678 36.834 37.2451 36.6789 37.4002C36.5238 37.5553 36.3456 37.6329 36.1443 37.6329C35.943 37.6329 35.7648 37.5553 35.6097 37.4002ZM24.6405 35.0002H32.025C32.1148 35.0002 32.1885 34.9714 32.2462 34.9137C32.3039 34.856 32.3328 34.7822 32.3328 34.6925V34.1386L28.9251 30.731H24.6405C24.5508 30.731 24.477 30.7598 24.4193 30.8175C24.3616 30.8752 24.3328 30.9489 24.3328 31.0387V34.6925C24.3328 34.7822 24.3616 34.856 24.4193 34.9137C24.477 34.9714 24.5508 35.0002 24.6405 35.0002ZM35.6635 32.5002L27.4713 24.3079H35.0443C35.7526 24.3079 36.3464 24.5475 36.8255 25.0267C37.3047 25.5058 37.5442 26.0996 37.5442 26.8079V30.7117C37.5442 31.2036 37.3691 31.6246 37.0189 31.9748C36.6687 32.3251 36.2476 32.5002 35.7558 32.5002H35.6635ZM33.8328 23.4233H26.5867L22.9713 19.808H32.025C32.5222 19.808 32.9477 19.985 33.3017 20.339C33.6557 20.693 33.8328 21.1185 33.8328 21.6156V23.4233ZM34.1404 28.3079C34.4238 28.3079 34.6613 28.2121 34.8529 28.0204C35.0446 27.8287 35.1404 27.5912 35.1404 27.3079C35.1404 27.0246 35.0446 26.7871 34.8529 26.5954C34.6613 26.4037 34.4238 26.3079 34.1404 26.3079C33.8571 26.3079 33.6196 26.4037 33.4279 26.5954C33.2363 26.7871 33.1404 27.0246 33.1404 27.3079C33.1404 27.5912 33.2363 27.8287 33.4279 28.0204C33.6196 28.2121 33.8571 28.3079 34.1404 28.3079Z" fill="#0A57FF"/>
</g>
</g>
<defs>
<clipPath id="clip0_8474_115345">
<rect width="56" height="56" fill="white"/>
</clipPath>
</defs>
</svg>
