<svg xmlns="http://www.w3.org/2000/svg" width="150" height="150" viewBox="0 0 150 150" fill="none"><path fill-rule="evenodd" clip-rule="evenodd" d="M75 12.9585C82.5187 12.9585 84.375 20.5546 84.375 27.021C84.375 33.4897 80.175 36.396 75 36.396C69.825 36.396 65.625 33.4897 65.625 27.021C65.625 20.5546 67.4813 12.9585 75 12.9585Z" fill="url(#paint0_linear_4880_87591)"></path><path fill-rule="evenodd" clip-rule="evenodd" d="M75 12.9585C82.5188 12.9585 84.375 20.5546 84.375 27.021C84.375 33.4897 80.175 36.396 75 36.396C74.5313 36.396 74.0695 36.3726 73.6172 36.3233C78.1383 35.8405 81.6117 32.9015 81.6117 27.021C81.6117 20.578 82.5117 13.0171 75.0867 12.9585H75Z" fill="#A4BBDB"></path><path fill-rule="evenodd" clip-rule="evenodd" d="M75.0001 111.26C102.811 111.26 123.047 117.035 125.391 124.151C127.617 130.908 102.811 137.042 75.0001 137.042C47.1892 137.042 22.3829 130.908 24.6095 124.151C26.9532 117.035 47.1892 111.26 75.0001 111.26Z" fill="url(#paint1_linear_4880_87591)"></path><path fill-rule="evenodd" clip-rule="evenodd" d="M118.751 118.24C122.383 120.009 124.69 122.02 125.391 124.151C127.617 130.908 102.811 137.041 74.9999 137.041C59.3507 137.041 44.653 135.098 35.189 132.197C42.8671 133.071 51.3374 133.568 60.0608 133.568C92.6343 133.568 121.69 126.642 119.081 119.013C118.99 118.748 118.879 118.489 118.751 118.24Z" fill="#B8CAE3"></path><path d="M75 131.154C81.4721 131.154 86.7188 125.907 86.7188 119.435C86.7188 112.963 81.4721 107.716 75 107.716C68.5279 107.716 63.2812 112.963 63.2812 119.435C63.2812 125.907 68.5279 131.154 75 131.154Z" fill="url(#paint2_linear_4880_87591)"></path><path fill-rule="evenodd" clip-rule="evenodd" d="M63.4548 121.458C63.1604 119.773 63.2382 118.045 63.6826 116.393C64.127 114.742 64.9273 113.208 66.0273 111.898C67.1274 110.589 68.5006 109.536 70.0506 108.814C71.6007 108.091 73.29 107.717 75.0001 107.716C77.2515 107.717 79.4552 108.366 81.3478 109.585C83.2405 110.805 84.7422 112.543 85.6735 114.593C81.7466 112.998 77.389 112.81 73.3394 114.061C69.2898 115.312 65.7976 117.926 63.4548 121.458Z" fill="#526B8F"></path><path fill-rule="evenodd" clip-rule="evenodd" d="M24.6094 124.151L34.5328 97.9267C38.0438 88.6492 39.8432 78.8119 39.8438 68.8923V59.3696C39.8438 50.6672 43.3008 42.3212 49.4543 36.1677C55.6078 30.0141 63.9538 26.5571 72.6562 26.5571H77.3438C86.0462 26.5571 94.3922 30.0141 100.546 36.1677C106.699 42.3212 110.156 50.6672 110.156 59.3696V69.1126C110.157 79.1098 111.984 89.0227 115.549 98.3626L125.391 124.151C123.047 117.035 102.811 111.26 75 111.26C48.9258 111.26 29.5125 116.337 25.2563 122.834L24.6094 124.151Z" fill="url(#paint3_linear_4880_87591)"></path><path fill-rule="evenodd" clip-rule="evenodd" d="M73.7414 26.5571C42.1523 40.0853 50.557 66.3024 45.3891 90.2134C43.9219 97.0009 41.3602 106.582 36.4805 116.152C30.8039 118.027 26.8992 120.324 25.2563 122.834L24.6094 124.151L34.5328 97.9267C38.0438 88.6492 39.8432 78.8119 39.8438 68.8923V59.3696C39.8438 50.6672 43.3008 42.3212 49.4543 36.1677C55.6078 30.0141 63.9538 26.5571 72.6562 26.5571H73.7414Z" fill="#F2F8FD"></path><path fill-rule="evenodd" clip-rule="evenodd" d="M10.219 49.4509C18.5557 56.3931 26.2268 59.7986 32.3768 60.6306C37.4862 61.322 41.6487 60.2673 44.5338 58.0595C47.562 55.7462 49.2987 52.1462 49.219 47.6087C49.1393 43.1111 47.4541 39.9095 45.1713 37.8658C39.4901 32.7775 29.9698 34.8025 28.1862 42.429C28.0455 43.0344 28.1506 43.6708 28.4783 44.1989C28.806 44.7269 29.3297 45.1036 29.9346 45.2462C30.54 45.3869 31.1764 45.2818 31.7045 44.9541C32.2325 44.6264 32.6091 44.1027 32.7518 43.4978C33.7174 39.3611 38.9627 38.597 42.0424 41.3579C43.5166 42.6751 44.4799 44.7892 44.5315 47.6908C44.5737 50.0954 43.8963 52.1134 42.5393 53.5665C41.1588 55.0431 39.1127 55.9032 36.5979 56.1072C30.6612 56.5876 22.458 53.5408 13.219 45.8486C12.7413 45.4507 12.1251 45.259 11.506 45.3155C10.8869 45.3719 10.3156 45.672 9.91781 46.1497C9.51999 46.6274 9.32822 47.2436 9.3847 47.8627C9.44118 48.4818 9.74128 49.0531 10.219 49.4509Z" fill="url(#paint4_linear_4880_87591)"></path><path fill-rule="evenodd" clip-rule="evenodd" d="M10.0806 70.4205C18.9423 79.0784 37.247 81.4104 52.3994 75.6213C67.9197 69.694 72.572 64.3666 82.8189 60.7057C84.0376 60.2698 84.6728 58.9268 84.2392 57.708C84.0289 57.1237 83.5957 56.6464 83.0343 56.3806C82.473 56.1149 81.8292 56.0823 81.2439 56.2901C70.9642 59.9627 66.2954 65.2971 50.7259 71.2432C37.3619 76.3479 21.1712 74.7026 13.3572 67.069C13.1381 66.8491 12.8775 66.6749 12.5906 66.5565C12.3037 66.4382 11.9961 66.378 11.6857 66.3794C11.3753 66.3809 11.0683 66.444 10.7825 66.5651C10.4967 66.6861 10.2378 66.8628 10.0209 67.0847C9.80387 67.3067 9.63314 67.5695 9.51856 67.858C9.40398 68.1464 9.34784 68.4548 9.3534 68.7651C9.35896 69.0755 9.42611 69.3816 9.55094 69.6658C9.67578 69.95 9.85581 70.2065 10.0806 70.4205Z" fill="url(#paint5_linear_4880_87591)"></path><path fill-rule="evenodd" clip-rule="evenodd" d="M94.8049 56.775C98.8736 54.7242 107.004 52.7367 111.659 54.525C112.235 54.7302 112.868 54.7022 113.424 54.4469C113.979 54.1917 114.413 53.7295 114.633 53.1588C114.852 52.5882 114.84 51.9544 114.599 51.3925C114.358 50.8307 113.907 50.3854 113.342 50.1516C107.651 47.9625 97.6713 50.0813 92.6955 52.5891C92.145 52.8714 91.7285 53.36 91.5367 53.9483C91.345 54.5365 91.3937 55.1767 91.6721 55.7292C91.9505 56.2817 92.4361 56.7018 93.023 56.8977C93.6099 57.0936 94.2504 57.0495 94.8049 56.775Z" fill="url(#paint6_linear_4880_87591)"></path><path fill-rule="evenodd" clip-rule="evenodd" d="M105.469 51.5342C108.609 35.292 132.968 39.8178 138.281 54.6818C138.281 54.6818 135.11 55.0381 128.906 59.3693C118.483 66.649 103.472 61.8654 105.469 51.5342Z" fill="url(#paint7_linear_4880_87591)"></path><path fill-rule="evenodd" clip-rule="evenodd" d="M74.1705 103.345C82.99 95.8853 96.1479 90.0189 106.02 89.4869C111.584 89.1869 116.096 90.5111 117.26 95.1025C117.797 97.2166 117.619 98.9978 116.909 100.416C115.847 102.537 113.67 103.798 111.413 104.222C108.989 104.674 106.385 104.21 104.951 102.429C104.56 101.946 103.993 101.638 103.375 101.571C102.757 101.505 102.138 101.686 101.653 102.075C101.17 102.466 100.862 103.033 100.796 103.651C100.729 104.269 100.91 104.888 101.299 105.373C103.763 108.424 108.12 109.608 112.278 108.828C115.941 108.141 119.377 105.956 121.099 102.516C122.246 100.226 122.67 97.3596 121.803 93.9494C120.092 87.2041 113.939 84.3658 105.769 84.8064C95.0463 85.383 80.7213 91.6666 71.1424 99.7666C70.6971 100.177 70.4275 100.743 70.3898 101.347C70.3521 101.951 70.5494 102.546 70.9403 103.008C71.3313 103.47 71.8856 103.763 72.4876 103.826C73.0895 103.889 73.6925 103.717 74.1705 103.345Z" fill="url(#paint8_linear_4880_87591)"></path><defs><linearGradient id="paint0_linear_4880_87591" x1="68.5163" y1="14.4254" x2="82.9891" y2="30.5522" gradientUnits="userSpaceOnUse"><stop stop-color="#CADCF0"></stop><stop offset="1" stop-color="#A4BBDB"></stop></linearGradient><linearGradient id="paint1_linear_4880_87591" x1="121.797" y1="134.783" x2="32.3728" y2="112.492" gradientUnits="userSpaceOnUse"><stop stop-color="#A4BBDB"></stop><stop offset="1" stop-color="#8DA3BE"></stop></linearGradient><linearGradient id="paint2_linear_4880_87591" x1="86.0497" y1="132.069" x2="60.7907" y2="107.654" gradientUnits="userSpaceOnUse"><stop stop-color="#738BAB"></stop><stop offset="1" stop-color="#526B8F"></stop></linearGradient><linearGradient id="paint3_linear_4880_87591" x1="57.3686" y1="30.3343" x2="112.959" y2="113.584" gradientUnits="userSpaceOnUse"><stop stop-color="#E9F3FC"></stop><stop offset="1" stop-color="#CADCF0"></stop></linearGradient><linearGradient id="paint4_linear_4880_87591" x1="8.87692" y1="33.7736" x2="30.3403" y2="71.69" gradientUnits="userSpaceOnUse"><stop stop-color="#1A48D3"></stop><stop offset="1" stop-color="#577CEC"></stop></linearGradient><linearGradient id="paint5_linear_4880_87591" x1="8.41525" y1="55.0224" x2="19.2765" y2="96.1402" gradientUnits="userSpaceOnUse"><stop stop-color="#1A48D3"></stop><stop offset="1" stop-color="#577CEC"></stop></linearGradient><linearGradient id="paint6_linear_4880_87591" x1="94.4879" y1="38.683" x2="133.479" y2="62.8622" gradientUnits="userSpaceOnUse"><stop stop-color="#559AFF"></stop><stop offset="1" stop-color="#2E69EF"></stop></linearGradient><linearGradient id="paint7_linear_4880_87591" x1="104.876" y1="40.188" x2="122.971" y2="71.775" gradientUnits="userSpaceOnUse"><stop stop-color="#1A48D3"></stop><stop offset="1" stop-color="#577CEC"></stop></linearGradient><linearGradient id="paint8_linear_4880_87591" x1="69.7368" y1="83.5473" x2="86.2964" y2="123.953" gradientUnits="userSpaceOnUse"><stop stop-color="#1A48D3"></stop><stop offset="1" stop-color="#577CEC"></stop></linearGradient></defs></svg>