<svg width="56" height="56" viewBox="0 0 56 56" fill="none" xmlns="http://www.w3.org/2000/svg">
<rect width="56" height="56" rx="28" fill="#EBF5FF"/>
<g clip-path="url(#clip0_8230_59231)">
<path d="M41.068 28.422C39.948 27.862 38.548 27.442 37.148 27.442C35.328 27.442 33.788 28.002 32.388 28.982L28.384 26.532C28.174 26.392 28.048 26.168 28.048 25.916V20.092C28.048 19.504 27.572 19.042 26.998 19.042C26.424 19.042 25.948 19.504 25.948 20.092V27.036C25.948 27.288 26.074 27.526 26.284 27.652L30.708 30.382C29.448 31.922 28.748 33.742 28.748 35.842C28.748 37.242 29.168 38.642 29.728 39.762C29.378 39.832 28.986 39.902 28.594 39.958C28.426 39.972 28.244 40 28.076 40C27.838 40.014 27.586 40.014 27.348 40.014C25.402 40.014 23.568 39.622 21.888 38.908C21.678 38.824 21.468 38.726 21.272 38.628C20.446 38.236 19.676 37.76 18.962 37.228C18.78 37.102 18.612 36.962 18.444 36.836C15.322 34.26 13.334 30.368 13.334 26C13.334 18.272 19.606 12 27.348 12C32.906 12 37.722 15.234 39.976 19.938C40.06 20.106 40.144 20.274 40.2 20.442C40.214 20.484 40.228 20.526 40.256 20.554C40.312 20.708 40.368 20.876 40.424 21.03C41.684 24.67 41.32 27.904 41.068 28.422Z" fill="#0A57FF"/>
<path d="M33.5162 36.4772L36.2385 39.1623L43.1539 32.685" stroke="#0A57FF" stroke-width="1.3" stroke-linecap="round" stroke-linejoin="round"/>
<path d="M18.9614 37.228C18.7794 37.102 18.6114 36.962 18.4434 36.836C18.6114 36.962 18.7794 37.088 18.9614 37.228Z" fill="#0A57FF"/>
</g>
<defs>
<clipPath id="clip0_8230_59231">
<rect width="30.6667" height="28" fill="white" transform="translate(13.334 12)"/>
</clipPath>
</defs>
</svg>
